<svg width="586" height="446" viewBox="0 0 586 446" fill="none" xmlns="http://www.w3.org/2000/svg">
<g clip-path="url(#clip0_1_188)">
<path d="M46.68 288.42V364.64H349.12V288.42H46.68ZM318.76 348H73V293.77H318.76V348Z" fill="#455A64"/>
<path d="M359.63 281.92H34.11V293.66H359.63V281.92Z" fill="#455A64"/>
<path d="M359.63 293.71C359.63 293.71 286.76 293.76 196.88 293.76C107 293.76 34.11 293.76 34.11 293.71C34.11 293.66 106.97 293.71 196.88 293.71C286.79 293.71 359.63 293.69 359.63 293.71Z" fill="#263238"/>
<path d="M359.63 282C359.63 282 286.76 282 196.88 282C107 282 34.11 282 34.11 282C34.11 282 106.97 281.95 196.88 281.95C286.79 281.95 359.63 281.94 359.63 282Z" fill="#263238"/>
<path d="M72.95 349.06H46.68V407.94H72.95V349.06Z" fill="#455A64"/>
<path d="M349.13 347.99H318.65V407.85H349.13V347.99Z" fill="#455A64"/>
<path d="M318.65 406.86C318.5 406.86 318.38 381.49 318.38 350.2C318.38 318.91 318.5 293.54 318.65 293.54C318.8 293.54 318.91 318.9 318.91 350.2C318.91 381.5 318.79 406.86 318.65 406.86Z" fill="#263238"/>
<path d="M73 407.94C72.86 407.94 72.74 382.38 72.74 350.85C72.74 319.32 72.86 293.77 73 293.77C73.14 293.77 73.27 319.32 73.27 350.85C73.27 382.38 73.1 407.94 73 407.94Z" fill="#263238"/>
<path d="M256.63 314.05H130.26V328.32H256.63V314.05Z" fill="#263238"/>
<path d="M253.4 328.33H133.5V332.61H253.4V328.33Z" fill="#90CAF9"/>
<path d="M256.63 331.63H130.26V345.9H256.63V331.63Z" fill="#263238"/>
<path d="M251.05 345.91H134.86V347.92H251.05V345.91Z" fill="#263238"/>
<path d="M138.19 334.01H133.91V336.19H138.19V334.01Z" fill="#455A64"/>
<path d="M144.01 334.01H139.73V336.19H144.01V334.01Z" fill="white"/>
<path d="M384.91 0.199997H0.970001V258.93H384.91V0.199997Z" fill="#263238"/>
<path d="M228.24 252.16H158.66V281.93H228.24V252.16Z" fill="#263238"/>
<path d="M10.65 252.16L375.04 252.16L375.04 4.38L10.65 4.38L10.65 252.16Z" fill="#455A64"/>
<path d="M148.18 63.62C145.631 59.6233 144.59 54.8495 145.242 50.1544C145.895 45.4594 148.198 41.1504 151.74 38C150.788 38.4178 149.871 38.9128 149 39.48C146.708 40.9732 144.747 42.9224 143.241 45.2062C141.734 47.49 140.714 50.0595 140.244 52.7546C139.774 55.4498 139.864 58.2129 140.508 60.8718C141.152 63.5308 142.336 66.0287 143.988 68.2099C145.639 70.3912 147.722 72.209 150.106 73.5503C152.491 74.8916 155.126 75.7276 157.848 76.0063C160.569 76.2849 163.319 76.0002 165.926 75.1698C168.533 74.3395 170.941 72.9814 173 71.18C168.641 73.0884 163.744 73.3754 159.192 71.989C154.641 70.6025 150.735 67.6342 148.18 63.62Z" fill="#90CAF9"/>
<g opacity="0.3">
<path d="M64.51 253.15L32.14 187.11V96.73L43.66 76.39L37.9 70.41L27.79 83.73L32.65 4.55L10.66 4.38V253.15H64.51Z" fill="black"/>
</g>
<g opacity="0.3">
<path d="M312.85 4.33L345.7 61.5L321.51 252.32H340.66C340.66 252.32 369.9 56.59 369.9 55.1C369.9 53.61 363.7 4.38 363.7 4.38L348.38 4.33L354.63 49L329.77 4.38L312.85 4.33Z" fill="black"/>
</g>
<g opacity="0.3">
<path d="M278 4.38C278.14 4.38 273.67 87.18 273.67 87.18L277.72 106L284.04 95.2L288.51 101.06L278.62 113.42L293.29 252.21H263.63L267.69 180.49L255.14 70.13L196.87 4.38H219L258.81 49.6L262.35 4.38H278Z" fill="black"/>
</g>
<g opacity="0.3">
<path d="M98.92 5.34999C98.79 5.34999 103.26 88.15 103.26 88.15L99.2 106.92L92.87 96.12L88.41 102L98.3 114.36L83.63 253.13H113.29L109.23 181.41L121.78 71.1L151.59 5.34999H140.45L110.74 78.06L105.74 5.34999H98.92Z" fill="black"/>
</g>
<path d="M119.31 252.32C119.78 249.88 116.01 150.93 116.01 150.93L86.28 66.66L96.57 4.99999L64.57 4.51999L58.57 70.2L38 47L33.53 50.32L57 79L90.24 154L88.91 252.32H119.31Z" fill="#263238"/>
<path d="M185.17 82.16C183.84 82.69 172.96 85.08 168.98 86.16C165 87.24 156.5 98.37 156.5 98.37L152.26 111.11L144 116.93L140.81 123.03L139.49 129.57L138.19 139V144L120.94 181.16L134.74 182.75L158.63 154.35C158.63 154.35 161.81 150.64 162.34 148.78C162.87 146.92 171.34 142.14 171.34 142.14L174.25 157.8L169.74 184.87L165.74 202.39L161.49 219.64L151 252.16L193.86 252.49C193.86 252.49 201.67 223.89 204.59 223.63C207.51 223.37 210.1 252.16 210.1 252.16H246C246 252.16 246.74 225.75 245.95 212.48C245.16 199.21 240.37 166.83 240.37 166.83L251.26 179.2L253.11 187C251.968 190.129 250.993 193.317 250.19 196.55C249.66 199.47 253.11 204.25 253.11 204.25C253.11 204.25 254.97 200.53 254.97 198.15V193.1L259.97 199.21L261.82 204.78L257.58 208.78C257.58 208.78 255.19 212.5 257.31 213.03C259.43 213.56 261.82 210.64 261.82 210.64L265.01 208.78L261.82 215.42C261.82 215.42 265.54 217.01 267.13 215.15C268.72 213.29 270.85 206.39 270.85 206.39V197.63L269 185.94L252.58 157L244.58 137.09C244.58 137.09 236.58 104.71 236.09 103.91C235.6 103.11 228.09 96.21 228.09 96.21L219.87 86.39L224.11 72.33C224.11 72.33 226.77 60.12 225.44 55.33C224.11 50.54 219.34 42.06 210.05 42.86C200.76 43.66 194.65 53.74 194.12 60.64C194.12 60.64 190.84 61.64 190.67 63.56C190.17 69.07 194.39 70.77 194.39 70.77L193.59 79.22L189.59 77.36L185.17 82.16Z" fill="#263238"/>
<path d="M204.69 62.11C204.97 62.24 210.29 68.32 210.29 68.32C209.55 68.5354 208.775 68.5986 208.01 68.5058C207.245 68.413 206.507 68.1661 205.84 67.78C203.74 66.47 204.69 62.11 204.69 62.11Z" fill="#90CAF9"/>
<path d="M223.44 65.86L216.39 68.72C216.15 68.46 218.26 71.14 220.64 70.43C223.02 69.72 223.44 65.86 223.44 65.86Z" fill="#90CAF9"/>
<path d="M317.07 4.34L316.76 208.67V252.49L275.42 252.16L282.48 64.71L280.62 4.38L317.07 4.34Z" fill="#263238"/>
<path d="M312.74 89.67L333.97 61.79L339.49 68.58L312.74 110.44V89.67Z" fill="#263238"/>
<path d="M64.43 54L62.06 49.73C60 46 57.18 40.89 54 35.24C50.82 29.59 47.82 24.53 45.66 20.86L43.1 16.5C42.7628 15.9814 42.4749 15.4323 42.24 14.86C42.6654 15.3105 43.0347 15.8108 43.34 16.35C44.01 17.35 44.95 18.78 46.09 20.58C47.61 23 49.49 26.06 51.52 29.51C51.46 29.16 51.4 28.76 51.33 28.33C51.03 26.33 50.66 23.65 50.33 20.64C50 17.63 49.68 14.9 49.52 12.92C49.3557 11.8549 49.3154 10.7744 49.4 9.7C49.736 10.7252 49.9541 11.7854 50.05 12.86C50.35 14.86 50.72 17.54 51.05 20.55C51.38 23.56 51.7 26.29 51.86 28.27C51.93 29.11 51.98 29.81 52.01 30.34C52.86 31.79 53.74 33.34 54.63 34.87C57.84 40.52 60.63 45.72 62.53 49.51C63.35 51.11 64.01 52.46 64.53 53.51" fill="#263238"/>
<path d="M101.22 207.36L66 164.28C66 163.64 65.93 162.7 65.84 161.54C65.68 159.26 65.41 156.13 65.06 152.67C64.71 149.21 64.37 146.09 64.06 143.83C63.9629 142.602 63.7791 141.382 63.51 140.18C63.23 140.18 63.58 145.84 64.27 152.75C64.27 153.11 64.34 153.46 64.38 153.81C63.3714 152.116 62.2488 150.492 61.02 148.95C58.38 145.6 55.79 143.31 55.65 143.45C55.51 143.59 57.82 146.11 60.43 149.45C62.22 151.71 63.67 153.74 64.48 154.77C64.75 157.43 65.03 159.77 65.27 161.63C65.39 162.53 65.5 163.29 65.6 163.88L31.67 153.41L44.4 158.25C41.9202 158.875 39.4875 159.673 37.12 160.64C35.6651 160.327 34.1923 160.103 32.71 159.97C31.073 159.717 29.4142 159.633 27.76 159.72C27.69 160 29.91 160.44 32.63 160.72C34.08 160.88 35.38 160.96 36.29 160.97C31.86 162.79 28.54 164.69 28.63 164.86C28.72 165.03 32.36 163.37 36.92 161.53C40.58 160.04 43.74 158.9 44.8 158.4L59.8 164.1L93.87 207.15" fill="#263238"/>
<path d="M97 165L123 140.26L134.74 112.21L136.07 110.91L135.83 110.66L132.64 107.27L130.47 104.92C129.636 104.119 128.958 103.169 128.47 102.12C127.47 101.71 124.14 99.87 120.24 97.55C115.62 94.8 111.97 92.42 112.08 92.24C112.19 92.06 116.01 94.15 120.62 96.9C124.25 99.06 127.27 100.98 128.35 101.8C128.189 101.17 127.975 100.554 127.71 99.96C127.43 99.34 127.15 98.71 126.85 98.07L125.06 94.07C123.85 91.39 122.71 88.82 121.68 86.48C120.61 85.83 118.62 84.48 116.38 82.78C113.12 80.35 110.58 78.24 110.71 78.08C110.84 77.92 113.57 79.74 116.83 82.17C118.69 83.56 120.31 84.83 121.34 85.71C120.41 83.6 119.58 81.71 118.88 80.07C118.18 78.43 117.58 76.94 117.09 75.79C116.838 75.275 116.65 74.7309 116.53 74.17C116.859 74.6357 117.137 75.1352 117.36 75.66L119.36 79.85C120.6 82.49 122.17 85.85 123.91 89.71C123.91 89.27 123.86 88.71 123.84 88.12C123.84 86.24 123.84 83.64 123.92 80.77C124 77.9 124.23 75.31 124.42 73.44C124.456 72.4233 124.621 71.4154 124.91 70.44C125.12 70.44 124.91 75.09 124.67 80.81C124.5 85.19 124.38 88.93 124.23 90.44C124.73 91.53 125.23 92.64 125.74 93.78C126.35 95.15 126.95 96.48 127.53 97.78C127.81 98.42 128.09 99.06 128.37 99.68C128.638 100.299 128.849 100.942 129 101.6C129.413 102.707 130.073 103.706 130.93 104.52L133.03 106.94L136.03 110.48L136.25 110.74L164.31 83.41H165.84L157.84 91.41C158.375 91.4158 158.909 91.4525 159.44 91.52C161.44 91.86 164.3 91.36 167.44 91.07C170.58 90.78 173.44 90.51 175.55 90.38C176.673 90.2256 177.811 90.2021 178.94 90.31C177.854 90.6277 176.738 90.8289 175.61 90.91C173.69 91.16 171.09 91.46 168.2 91.75C168.52 91.89 168.95 92.09 169.43 92.35C170.59 92.94 172.16 93.8 173.86 94.79C177.28 96.79 179.97 98.52 179.86 98.7C179.75 98.88 176.86 97.43 173.48 95.44C171.76 94.44 170.23 93.51 169.14 92.8C168.6 92.45 168.14 92.15 167.88 91.93L167.71 91.8H167.51C164.37 92.09 161.44 92.52 159.33 92.03C158.701 91.8958 158.062 91.8089 157.42 91.77L136.42 112.93L124.18 141.24L99.44 166.49" fill="#263238"/>
<path d="M291.15 98.89L265.15 74.16L253.4 46.1L252.07 44.8L252.31 44.55C253.17 43.64 254.24 42.55 255.49 41.17L257.66 38.81C258.497 38.0147 259.176 37.068 259.66 36.02C260.66 35.61 263.99 33.77 267.89 31.44C272.51 28.69 276.16 26.32 276.05 26.14C275.94 25.96 272.11 28.05 267.5 30.8C263.88 32.95 260.86 34.88 259.78 35.69C259.942 35.0579 260.152 34.4394 260.41 33.84C260.7 33.22 260.98 32.59 261.27 31.95L263.07 27.95C264.28 25.26 265.42 22.7 266.45 20.36C267.52 19.71 269.51 18.36 271.75 16.65C275 14.22 277.54 12.12 277.42 11.95C277.3 11.78 274.55 13.62 271.29 16.05C269.44 17.43 267.82 18.71 266.79 19.58C267.72 17.48 268.55 15.58 269.24 13.94L271.04 9.65999C271.292 9.14814 271.48 8.60747 271.6 8.04999C271.266 8.51272 270.988 9.01276 270.77 9.53999L268.77 13.72C267.52 16.36 265.95 19.72 264.22 23.59C264.22 23.14 264.22 22.59 264.28 21.99C264.33 20.11 264.28 17.52 264.21 14.65C264.14 11.78 263.9 9.18999 263.71 7.31999C263.674 6.30334 263.509 5.29535 263.22 4.31999C263 4.31999 263.22 8.96999 263.46 14.69C263.63 19.06 263.75 22.8 263.89 24.32L262.39 27.66L260.6 31.66C260.32 32.3267 260.04 32.9567 259.76 33.55C259.493 34.1699 259.282 34.8125 259.13 35.47C258.707 36.5753 258.049 37.5752 257.2 38.4C256.45 39.25 255.75 40.06 255.1 40.82L252.1 44.36L251.89 44.62L223.82 17.29H222.29L230.29 25.29C229.751 25.2861 229.213 25.3229 228.68 25.4C226.68 25.74 223.83 25.24 220.68 24.95C217.53 24.66 214.68 24.39 212.57 24.25C211.449 24.1018 210.316 24.0783 209.19 24.18C210.272 24.5112 211.39 24.7126 212.52 24.78C214.43 25.04 217.04 25.34 219.92 25.63C219.61 25.77 219.18 25.97 218.69 26.22C217.54 26.82 215.97 27.68 214.26 28.66C210.85 30.66 208.16 32.4 208.26 32.58C208.36 32.76 211.21 31.3 214.64 29.32C216.36 28.32 217.89 27.39 218.97 26.68C219.52 26.33 219.97 26.03 220.24 25.81C220.288 25.7607 220.342 25.7171 220.4 25.68H220.61C223.75 25.97 226.68 26.39 228.79 25.91C229.418 25.7709 230.057 25.6839 230.7 25.65L251.7 46.81L263.94 75.12L288.68 100.36" fill="#263238"/>
<path d="M123.65 4.37999C123.55 4.82999 122.32 7.05999 122.23 7.37999L123.23 43.78L122.72 46.31L122.88 46.14L126.3 42.43C129.1 39.43 132.94 35.27 137.13 30.64C137.497 28.5846 137.991 26.554 138.61 24.56C139.72 20.86 140.93 17.97 141.12 18.04C141.31 18.11 140.44 21.1 139.34 24.77C138.7 26.9 138.13 28.77 137.72 29.99C141.99 25.25 145.81 20.91 148.58 17.76L151.88 14C152.266 13.513 152.702 13.0672 153.18 12.67C152.881 13.2146 152.522 13.7244 152.11 14.19C151.38 15.13 150.31 16.48 148.95 18.12C147.14 20.33 144.82 23.07 142.18 26.12L143.24 25.57C145.01 24.66 147.48 23.46 150.24 22.17C153 20.88 155.49 19.76 157.32 18.98C158.27 18.4854 159.278 18.1092 160.32 17.86C159.451 18.4986 158.511 19.0354 157.52 19.46C155.75 20.37 153.29 21.57 150.52 22.86C147.75 24.15 145.28 25.27 143.45 26.05C142.68 26.38 142.03 26.65 141.53 26.84C140.42 28.1 139.25 29.41 138.05 30.75C133.69 35.57 129.63 39.83 126.63 42.85C125.13 44.37 123.9 45.58 123.04 46.39L122.58 46.82L121.39 52.76L152.78 49.49C153.46 48.9 154.48 48.07 155.78 47.07C158.32 45.07 161.9 42.38 165.97 39.58C168.97 37.53 171.74 35.71 174.12 34.22C174.12 33.92 174.97 32.22 175.8 30.22C176.63 28.22 177.22 26.09 177.44 26.13C177.66 26.17 177.44 28.19 176.5 30.51C176.013 31.7737 175.339 32.9569 174.5 34.02C175.24 33.56 175.94 33.13 176.59 32.75C177.97 31.91 179.11 31.26 179.91 30.83C180.299 30.5622 180.728 30.3565 181.18 30.22C179.81 31.313 178.371 32.3152 176.87 33.22C174.17 34.99 170.45 37.46 166.4 40.22L163.4 42.33C165.19 41.8 168.72 40.91 172.81 39.98C178.74 38.62 183.58 37.68 183.63 37.89C183.68 38.1 178.91 39.35 172.98 40.71C168.25 41.79 164.22 42.61 162.76 42.79C160.2 44.59 157.93 46.22 156.14 47.51C155.01 48.33 154.07 49.01 153.35 49.51L169.28 62.68C170.5 62.3 174.28 61.5 178.86 60.68C184.42 59.68 188.95 59.04 188.99 59.24C189.03 59.44 184.55 60.42 178.99 61.42C174.67 62.2 170.99 62.76 169.52 62.88L184.17 74.98L151.27 50.5L120.67 56.37L86 94.56L85 90.23L117.59 55L121.67 43L121.16 7.28999L122.03 4.28999" fill="#263238"/>
<path d="M84.87 135.84C84.19 134.84 83.31 133.53 82.2 132.08C81.47 131.08 80.66 130.08 79.74 129.08C78.82 128.08 77.74 126.97 76.66 125.82C74.5 123.53 72.07 121.04 69.66 118.29C65.5376 113.592 61.742 108.617 58.3 103.4C56.98 101.4 55.99 99.73 55.3 98.58C54.9062 97.998 54.5712 97.3783 54.3 96.73C54.7525 97.2564 55.1574 97.822 55.51 98.42C56.26 99.53 57.32 101.14 58.69 103.1C62.2484 108.197 66.0842 113.094 70.18 117.77C72.57 120.5 74.98 123 77.18 125.34C78.25 126.51 79.29 127.59 80.18 128.66C81.07 129.73 81.89 130.79 82.6 131.76C83.6 133.08 84.32 134.27 84.92 135.27" fill="#263238"/>
<path d="M50.18 120.34C49.0821 120.355 47.9908 120.168 46.96 119.79C46.96 119.67 48.21 119.84 50.19 119.79C50.85 119.79 51.6 119.74 52.41 119.66C52.61 119.46 52.75 119.36 52.81 119.4C52.87 119.44 52.81 119.5 52.81 119.63C54.32 119.47 56.04 119.21 57.86 118.85C60.86 118.26 63.55 117.69 65.55 117.45C66.6196 117.237 67.7153 117.186 68.8 117.3C67.7632 117.609 66.7031 117.833 65.63 117.97L58 119.61C56.1886 119.975 54.3543 120.216 52.51 120.33C52.1267 121.045 51.7062 121.739 51.25 122.41C50.25 123.94 49.25 125.09 49.06 124.97C48.87 124.85 49.59 123.52 50.62 121.97C51.04 121.35 51.46 120.79 51.81 120.35C51.22 120.38 50.68 120.37 50.18 120.34Z" fill="#263238"/>
<path d="M125.68 170.89L116.44 192.46L121.58 212.53L129.87 211.38L132.86 205.62L131.25 191.57L138.16 175.69L125.68 170.89Z" fill="#263238"/>
<path d="M129 210.88C128.924 210.89 128.846 210.89 128.77 210.88C128.2 210.74 127.58 209.65 124.11 199.88C123.68 198.69 123.28 197.56 123.21 197.41L123.04 197.18L123.19 196.97L126.51 189.22L130.51 191.32L130.57 191.54C130.57 191.54 131.16 193.99 131.68 197.08C131.988 198.921 131.791 200.812 131.11 202.55C131.591 203.54 131.912 204.6 132.06 205.69C132.19 206.5 132.118 207.33 131.851 208.106C131.584 208.882 131.131 209.581 130.53 210.14C130.113 210.546 129.577 210.805 129 210.88ZM124.19 197.09C124.31 197.39 124.53 198.02 125.05 199.47C126.05 202.32 128.38 208.86 129.05 209.87C129.469 209.684 129.836 209.399 130.12 209.04C130.519 208.609 130.815 208.094 130.988 207.534C131.162 206.973 131.206 206.38 131.12 205.8C130.67 203.42 130.24 202.9 130.22 202.88L129.93 202.62L130.13 202.31C130.811 200.688 131.019 198.906 130.73 197.17C130.31 194.65 129.84 192.57 129.73 191.91L127 190.52L124.19 197.09Z" fill="#263238"/>
<path d="M138.16 189.83C138.16 189.83 141.85 193.89 140.59 195.56C139.33 197.23 117.73 213.72 117.73 213.72L114.82 207.4L131.77 196.15L138.16 189.83Z" fill="#263238"/>
<path d="M115.1 207.36C90.4388 220.183 66.5813 234.497 43.66 250.22C44.7964 251.29 46.1501 252.104 47.629 252.604C49.1078 253.104 50.6771 253.28 52.23 253.12C55.33 252.92 63.36 251.64 66.23 250.41C86.98 241.53 102.95 229.31 117.74 213.72" fill="#263238"/>
<path d="M210.31 44.67C209.215 44.8288 208.135 45.0763 207.08 45.41C204.591 46.3683 202.405 47.9777 200.75 50.07C199.118 52.1838 197.792 54.5166 196.81 57C196.425 58.0509 195.981 59.0793 195.48 60.08C195.505 59.7754 195.572 59.4758 195.68 59.19C195.85 58.64 196.1 57.84 196.46 56.86C197.369 54.2915 198.682 51.8846 200.35 49.73C202.068 47.563 204.378 45.9408 207 45.06C207.79 44.804 208.611 44.656 209.44 44.62C209.731 44.5878 210.025 44.6047 210.31 44.67Z" fill="#90CAF9"/>
<path d="M192.33 66.72C192.27 66.72 192.07 66.55 191.9 66.13C191.68 65.5776 191.621 64.9744 191.73 64.39C191.824 63.8035 192.077 63.2539 192.46 62.8C192.76 62.46 193.02 62.34 193.06 62.38C192.715 63.0497 192.44 63.7535 192.24 64.48C192.191 65.2277 192.221 65.9786 192.33 66.72Z" fill="#90CAF9"/>
<path d="M195.16 80.33C194.929 79.0098 194.872 77.665 194.99 76.33C194.932 75.0103 195.049 73.6886 195.34 72.4C195.571 73.7202 195.628 75.065 195.51 76.4C195.569 77.7197 195.452 79.0415 195.16 80.33Z" fill="#90CAF9"/>
<path d="M185 83.73C185.572 82.6996 186.29 81.7566 187.13 80.93C187.848 79.9963 188.697 79.1712 189.65 78.48C189.086 79.5159 188.368 80.46 187.52 81.28C186.805 82.2159 185.956 83.0414 185 83.73Z" fill="#90CAF9"/>
<path d="M168.2 88.41C168.827 88.0403 169.499 87.7546 170.2 87.56C171.45 87.11 173.2 86.56 175.2 86.05C177.2 85.54 178.97 85.19 180.29 84.99C180.994 84.8244 181.717 84.7538 182.44 84.78C182.44 84.93 179.24 85.55 175.33 86.56C171.42 87.57 168.25 88.55 168.2 88.41Z" fill="#90CAF9"/>
<path d="M158.59 98.55C159.594 97.1732 160.679 95.8575 161.84 94.61C162.859 93.2459 163.954 91.9404 165.12 90.7C164.373 92.2467 163.402 93.6752 162.24 94.94C161.204 96.3136 159.975 97.5296 158.59 98.55Z" fill="#90CAF9"/>
<path d="M158.36 99.78C157.936 101.719 157.34 103.616 156.58 105.45C155.988 107.347 155.228 109.187 154.31 110.95C154.739 109.009 155.335 107.109 156.09 105.27C156.689 103.379 157.448 101.542 158.36 99.78Z" fill="#90CAF9"/>
<path d="M152.58 112.79C152.64 112.87 151.32 113.7 149.49 115.38C148.423 116.366 147.436 117.436 146.54 118.58C145.455 119.986 144.491 121.481 143.66 123.05C142.848 124.634 142.179 126.287 141.66 127.99C141.25 129.384 140.952 130.808 140.77 132.25C140.46 134.72 140.55 136.25 140.45 136.25C140.359 135.897 140.319 135.534 140.33 135.17C140.299 134.744 140.299 134.316 140.33 133.89C140.33 133.39 140.33 132.82 140.42 132.19C140.554 130.72 140.819 129.264 141.21 127.84C142.182 124.342 143.863 121.081 146.15 118.26C147.083 117.116 148.113 116.055 149.23 115.09C149.655 114.714 150.099 114.36 150.56 114.03C150.895 113.761 151.249 113.517 151.62 113.3C151.917 113.09 152.24 112.918 152.58 112.79Z" fill="#90CAF9"/>
<path d="M139.73 145.93C139.86 145.99 136.3 153.64 131.73 163.01C127.16 172.38 123.44 179.92 123.31 179.85C123.18 179.78 126.74 172.15 131.26 162.78C135.78 153.41 139.6 145.87 139.73 145.93Z" fill="#90CAF9"/>
<path d="M118.11 192.41C118.575 190.799 119.205 189.241 119.99 187.76C120.625 186.207 121.416 184.723 122.35 183.33C121.885 184.941 121.255 186.499 120.47 187.98C119.835 189.533 119.044 191.017 118.11 192.41Z" fill="#90CAF9"/>
<path d="M130 193.16C130.107 193.578 130.141 194.011 130.1 194.44C129.999 195.599 129.812 196.749 129.54 197.88C129.375 198.646 129.294 199.427 129.3 200.21C129.377 201.116 129.504 202.018 129.68 202.91C129.854 203.986 129.79 205.087 129.493 206.136C129.196 207.184 128.673 208.155 127.96 208.98C127.619 209.383 127.234 209.745 126.81 210.06L126.54 210.27L126.41 209.95C124.96 206.09 123.7 202.65 122.81 200.17L121.81 197.23C121.666 196.876 121.562 196.507 121.5 196.13C121.704 196.442 121.869 196.778 121.99 197.13C122.31 197.9 122.7 198.87 123.17 200.01C124.17 202.46 125.47 205.88 126.93 209.73L126.53 209.62C126.917 209.321 127.276 208.986 127.6 208.62C128.268 207.851 128.76 206.944 129.042 205.965C129.323 204.986 129.387 203.957 129.23 202.95C129.069 202.04 128.959 201.122 128.9 200.2C128.913 199.384 129.017 198.573 129.21 197.78C129.511 196.671 129.751 195.546 129.93 194.41C130 193.62 129.92 193.17 130 193.16Z" fill="#90CAF9"/>
<path d="M119.43 206.09C119.197 206.26 118.954 206.414 118.7 206.55L116.56 207.81L108.63 212.31L82.36 227C72.12 232.77 62.92 238.12 56.36 242.13C53.07 244.13 50.42 245.77 48.6 246.92L46.49 248.23C46.2537 248.393 46.0026 248.534 45.74 248.65C45.958 248.464 46.1885 248.294 46.43 248.14L48.49 246.75C50.28 245.55 52.9 243.85 56.17 241.82C62.7 237.73 71.87 232.32 82.11 226.55C92.35 220.78 101.7 215.69 108.46 212L116.46 207.64L118.65 206.47C118.897 206.318 119.158 206.191 119.43 206.09Z" fill="#90CAF9"/>
<path d="M78 240C78.1108 238.418 78.3925 236.852 78.84 235.33C79.1193 233.769 79.5686 232.243 80.18 230.78C79.8019 233.925 79.0706 237.018 78 240Z" fill="#90CAF9"/>
<path d="M80.57 238.7C80.8147 236.885 81.2299 235.097 81.81 233.36C82.2262 231.575 82.8122 229.834 83.56 228.16C82.9016 231.762 81.897 235.291 80.56 238.7H80.57Z" fill="#90CAF9"/>
<path d="M84.82 233.14C84.934 232.024 85.1109 230.916 85.35 229.82C85.4204 228.7 85.5539 227.585 85.75 226.48C86.0645 227.591 86.1023 228.761 85.86 229.89C85.7922 231.044 85.4345 232.161 84.82 233.14Z" fill="#90CAF9"/>
<path d="M214 90C211.13 88.9773 208.319 87.7955 205.58 86.46C202.772 85.2854 200.034 83.9498 197.38 82.46C200.252 83.4773 203.064 84.6593 205.8 86C208.608 87.1746 211.346 88.5102 214 90Z" fill="#90CAF9"/>
<path d="M231 100.11C230.91 100.22 230.19 99.82 229.39 99.2C228.59 98.58 228.01 97.99 228.1 97.88C228.19 97.77 228.91 98.17 229.71 98.79C230.51 99.41 231.13 100 231 100.11Z" fill="#90CAF9"/>
<path d="M255.13 177.81C252.998 175.741 250.994 173.544 249.13 171.23C247.139 169.034 245.28 166.724 243.56 164.31C245.689 166.382 247.693 168.579 249.56 170.89C251.543 173.092 253.403 175.402 255.13 177.81Z" fill="#90CAF9"/>
<path d="M255.16 187.11C255.01 187.11 255.01 185.83 254.65 184.35C254.29 182.87 253.73 181.73 253.86 181.65C254.557 182.349 255.013 183.253 255.16 184.23C255.473 185.164 255.473 186.176 255.16 187.11Z" fill="#90CAF9"/>
<path d="M239.53 43C239.53 43 239.53 43.09 239.53 43.26C239.465 43.5097 239.345 43.7419 239.18 43.94C238.865 44.3011 238.471 44.5847 238.029 44.7686C237.587 44.9524 237.108 45.0316 236.63 45C235.284 44.8139 233.962 44.4785 232.69 44C231.968 43.7868 231.204 43.7627 230.47 43.93C229.693 44.2046 228.969 44.6105 228.33 45.13C227.63 45.6895 226.807 46.0766 225.93 46.26C225.1 46.3463 224.26 46.2367 223.48 45.94C222.271 45.3773 221.021 44.9092 219.74 44.54C218.883 44.3551 217.987 44.4978 217.23 44.94C216.97 45.1339 216.729 45.3515 216.51 45.59C216.51 45.59 216.59 45.2 217.12 44.78C217.502 44.5022 217.937 44.3049 218.397 44.2001C218.858 44.0952 219.335 44.085 219.8 44.17C221.114 44.492 222.396 44.9339 223.63 45.49C224.344 45.7467 225.107 45.8356 225.86 45.75C226.65 45.5875 227.393 45.2454 228.03 44.75C228.721 44.1994 229.503 43.7731 230.34 43.49C231.157 43.3075 232.008 43.3385 232.81 43.58C234.047 44.0692 235.33 44.4343 236.64 44.67C237.072 44.7111 237.507 44.6582 237.916 44.5149C238.325 44.3716 238.698 44.1414 239.01 43.84C239.215 43.5812 239.39 43.2993 239.53 43Z" fill="#263238"/>
<path d="M226.49 48.94C226.55 48.94 225.88 49.35 224.92 48.94C224.395 48.6869 223.915 48.349 223.5 47.94C223.038 47.4752 222.501 47.093 221.91 46.81C220.81 46.3527 219.583 46.303 218.45 46.67C217.57 46.96 217.12 47.35 217.06 47.29C217 47.23 217.4 46.74 218.31 46.29C218.912 46.0328 219.56 45.9002 220.215 45.9002C220.87 45.9002 221.518 46.0328 222.12 46.29C222.767 46.589 223.349 47.0139 223.83 47.54C224.201 47.9264 224.622 48.2625 225.08 48.54C225.511 48.7838 225.995 48.9209 226.49 48.94Z" fill="#263238"/>
<path d="M239.17 83.4C238.174 83.1259 237.196 82.792 236.24 82.4C233.952 81.4595 231.477 81.0657 229.01 81.25C227.676 81.4048 226.397 81.8744 225.28 82.62C224.365 83.3014 223.354 83.8439 222.28 84.23C221.518 84.4593 220.702 84.4276 219.96 84.14C219.681 84.0477 219.442 83.8646 219.28 83.62C219.28 83.62 219.54 83.79 220.03 83.95C220.738 84.1457 221.489 84.1178 222.18 83.87C223.205 83.4513 224.168 82.8927 225.04 82.21C226.212 81.3815 227.574 80.8622 229 80.7C231.546 80.4937 234.102 80.9484 236.42 82.02C237.383 82.3812 238.305 82.8438 239.17 83.4Z" fill="#263238"/>
<path d="M229.8 78.4C229.388 78.5073 228.971 78.5907 228.55 78.65C227.552 78.9783 226.518 79.1864 225.47 79.27C224.374 79.2527 223.317 78.865 222.47 78.17C221.84 77.64 221.61 77.17 221.66 77.17C221.71 77.17 222.05 77.49 222.66 77.91C223.49 78.4487 224.451 78.7496 225.44 78.78C226.448 78.6807 227.449 78.5272 228.44 78.32C229.31 78.18 229.81 78.34 229.8 78.4Z" fill="#263238"/>
<path d="M223.84 59C224.173 58.373 224.59 57.7944 225.08 57.28L226.54 55.5L227.42 54.5C227.735 54.1693 228.001 53.7956 228.21 53.39C228.307 53.2265 228.338 53.0322 228.297 52.8466C228.256 52.661 228.147 52.4978 227.99 52.39C227.632 52.1649 227.241 51.9994 226.83 51.9C226.112 51.6822 225.375 51.5283 224.63 51.44C223.35 51.29 222.54 51.35 222.53 51.27C223.217 51.0504 223.944 50.9822 224.66 51.07C225.437 51.1149 226.208 51.2389 226.96 51.44C227.436 51.5372 227.89 51.7202 228.3 51.98C228.542 52.1553 228.716 52.4101 228.79 52.7C228.857 52.9952 228.826 53.3045 228.7 53.58C228.466 54.0371 228.162 54.4554 227.8 54.82C227.49 55.17 227.2 55.51 226.9 55.82L225.36 57.52C224.909 58.0676 224.399 58.564 223.84 59Z" fill="#263238"/>
<path d="M193.48 62.79C193.546 62.116 193.475 61.4356 193.27 60.79C193.08 60.21 192.76 59.54 192.48 58.79C192.293 58.3451 192.197 57.8675 192.197 57.385C192.197 56.9025 192.293 56.4249 192.48 55.98C192.958 55.1662 193.65 54.4987 194.48 54.05C195.19 53.62 195.84 53.27 196.32 52.9C196.836 52.4928 197.273 51.9946 197.61 51.43C197.61 51.43 197.61 51.64 197.49 51.98C197.275 52.4481 196.953 52.8591 196.55 53.18C195.974 53.649 195.366 54.0767 194.73 54.46C193.987 54.8794 193.364 55.4818 192.92 56.21C192.605 56.9893 192.605 57.8607 192.92 58.64C193.16 59.41 193.45 60.12 193.6 60.74C193.735 61.0688 193.794 61.4238 193.774 61.7787C193.753 62.1335 193.652 62.4792 193.48 62.79Z" fill="#263238"/>
<path d="M223.67 40.4C223.72 40.4 223.72 41.22 222.79 41.99C222.256 42.4171 221.629 42.7118 220.96 42.85C220.158 42.9921 219.342 43.0325 218.53 42.97C217.755 42.904 216.975 42.904 216.2 42.97C215.586 43.0425 214.992 43.2326 214.45 43.53C213.965 43.8439 213.544 44.2478 213.21 44.72C213.15 44.72 213.26 43.9 214.21 43.22C214.778 42.8463 215.419 42.5974 216.09 42.49C216.892 42.3856 217.703 42.3622 218.51 42.42C219.28 42.4793 220.055 42.4558 220.82 42.35C221.431 42.2444 222.013 42.0128 222.53 41.67C223.45 41.09 223.58 40.36 223.67 40.4Z" fill="#263238"/>
<path d="M237.15 116.28C237.683 118.222 238.538 120.061 239.68 121.72C240.259 122.545 241.031 123.215 241.929 123.671C242.827 124.128 243.823 124.358 244.83 124.34C246.29 124.21 247.68 123.34 249.12 123.62C250.56 123.9 251.69 125.14 252.92 126.04C256.12 128.36 260.47 128.04 264.4 127.58C261.71 130.58 257.24 131.64 253.22 131C251.08 130.65 248.99 129.89 246.81 129.86C244.63 129.83 242.64 130.48 240.54 130.69C238.44 130.9 236.08 130.56 234.7 128.96" fill="#263238"/>
<path d="M239.77 132.07C242 136.49 244.48 141.18 248.83 143.55C249.928 144.002 250.917 144.684 251.73 145.55C253.21 147.6 251.73 150.44 251.89 152.96C252.05 155.48 254.01 157.55 255.36 159.73C256.71 161.91 257.36 165.11 255.42 166.73" fill="#263238"/>
<path d="M281.87 153.94L269.35 122.28L275.42 118.46L281.87 134.81V153.94Z" fill="#263238"/>
<path d="M346.16 252.16L349.05 120.95L334.22 107.16L345.03 103.43L351.34 112.79L367.77 41.55L365.07 4.33L375.04 4.38V252.16H346.16Z" fill="#263238"/>
<path d="M172.93 185.38L158.66 191.48L144.01 233.43L158.36 244.35L172.93 185.38Z" fill="#263238"/>
<path d="M329.51 244.43C350.701 244.43 367.88 227.251 367.88 206.06C367.88 184.869 350.701 167.69 329.51 167.69C308.319 167.69 291.14 184.869 291.14 206.06C291.14 227.251 308.319 244.43 329.51 244.43Z" fill="#EBEBEB"/>
<path d="M291.88 198.56L299.24 196.23C301.575 195.493 303.639 194.08 305.17 192.17C307.25 189.57 309.96 186.17 310.1 185.88C310.33 185.42 326.84 183.26 331.99 180.18C336.83 177.29 333.14 168.88 332.51 167.81C331.517 167.73 330.517 167.69 329.51 167.69C320.635 167.69 312.035 170.766 305.174 176.395C298.313 182.024 293.615 189.857 291.88 198.56Z" fill="#E0E0E0"/>
<path d="M358.05 213.78L367.86 204.78C367.635 197.357 365.251 190.16 361 184.07L357.3 190.43L341.7 201.71L310.95 200.13L291.53 211.5C292.269 216.664 294.054 221.622 296.776 226.072C299.498 230.522 303.1 234.37 307.36 237.38C310.2 235.51 313.52 233.18 314.09 232.23C315.09 230.52 333.91 221.98 333.91 221.98L358.05 213.78Z" fill="#E0E0E0"/>
<g opacity="0.5">
<path d="M329.82 205.74L301.25 180.14C305.103 176.19 309.711 173.055 314.799 170.919C319.887 168.784 325.352 167.693 330.87 167.71C346.75 167.71 357.58 179.6 357.58 179.6L329.82 205.74Z" fill="white"/>
</g>
<path d="M329.41 200.57L327.23 204C326.839 204.597 326.614 205.287 326.58 206C326.565 206.193 326.565 206.387 326.58 206.58C326.6 206.933 326.693 207.278 326.853 207.593C327.014 207.908 327.238 208.186 327.512 208.41C327.785 208.634 328.102 208.798 328.443 208.893C328.784 208.988 329.14 209.01 329.49 208.96C329.847 208.995 330.208 208.952 330.548 208.835C330.887 208.718 331.197 208.53 331.457 208.282C331.717 208.034 331.921 207.734 332.054 207.4C332.188 207.067 332.248 206.709 332.23 206.35C332.129 205.176 331.714 204.05 331.03 203.09L329.41 200.57Z" fill="#90CAF9"/>
<path d="M367.88 206.06C367.88 206.06 367.88 205.85 367.82 205.43C367.76 205.01 367.75 204.43 367.7 203.61C367.7 203.21 367.65 202.77 367.62 202.27C367.59 201.77 367.46 201.27 367.38 200.67C367.3 200.07 367.19 199.47 367.08 198.8C366.97 198.13 366.75 197.45 366.58 196.71C365.685 193.125 364.252 189.696 362.33 186.54C359.816 182.339 356.516 178.662 352.61 175.71L351 174.48C350.42 174.1 349.81 173.75 349.21 173.38C348.61 173.01 348.01 172.6 347.34 172.3L345.34 171.3L344.34 170.82L343.28 170.44L341.13 169.66C340.4 169.42 339.64 169.26 338.88 169.05C338.121 168.83 337.35 168.656 336.57 168.53C334.978 168.234 333.368 168.05 331.75 167.98C330.93 167.98 330.1 167.87 329.26 167.88L326.74 168.01C326.32 168.01 325.89 168.01 325.47 168.09L324.19 168.29C323.35 168.43 322.48 168.53 321.63 168.71C319.902 169.093 318.202 169.591 316.54 170.2C314.827 170.815 313.156 171.543 311.54 172.38C310.74 172.82 309.97 173.33 309.17 173.8C308.78 174.05 308.36 174.26 307.99 174.55L306.87 175.39C305.35 176.516 303.907 177.742 302.55 179.06C301.205 180.448 299.956 181.924 298.81 183.48L297.93 184.65L297.17 185.91L296.4 187.17C296.126 187.582 295.889 188.017 295.69 188.47L294.4 191.16C294.05 192.09 293.71 193.03 293.4 193.98C290.798 201.768 290.798 210.192 293.4 217.98C293.75 218.92 294.09 219.86 294.4 220.8C294.71 221.74 295.27 222.6 295.7 223.49C295.903 223.941 296.14 224.375 296.41 224.79L297.18 226.05L297.94 227.31L298.82 228.48C301.037 231.607 303.761 234.341 306.88 236.57L308 237.41C308.37 237.7 308.79 237.91 309.18 238.16C309.98 238.63 310.75 239.16 311.55 239.58C314.734 241.227 318.114 242.464 321.61 243.26C322.46 243.43 323.33 243.53 324.17 243.67L325.45 243.87C325.87 243.87 326.3 243.87 326.72 243.95L329.24 244.08C330.08 244.08 330.91 244.01 331.73 243.99C333.347 243.912 334.958 243.725 336.55 243.43C337.33 243.304 338.101 243.13 338.86 242.91C339.62 242.7 340.38 242.55 341.11 242.3L343.26 241.52L344.32 241.14L345.32 240.66L347.32 239.71C347.98 239.41 348.56 238.98 349.18 238.63C349.8 238.28 350.39 237.91 350.97 237.53L352.63 236.3C356.536 233.351 359.833 229.673 362.34 225.47C364.262 222.314 365.695 218.885 366.59 215.3C366.76 214.56 367.01 213.88 367.09 213.21C367.17 212.54 367.3 211.92 367.39 211.34C367.48 210.76 367.58 210.23 367.63 209.74C367.68 209.25 367.69 208.8 367.71 208.4C367.76 207.61 367.8 207.01 367.83 206.58C367.86 206.15 367.89 205.96 367.89 205.96C367.89 205.96 367.89 206.17 367.89 206.58C367.89 206.99 367.89 207.58 367.83 208.4C367.83 208.813 367.81 209.263 367.77 209.75C367.77 210.24 367.63 210.75 367.55 211.36C367.47 211.97 367.37 212.57 367.28 213.24C367.19 213.91 366.96 214.6 366.8 215.35C365.933 218.968 364.516 222.431 362.6 225.62C360.094 229.881 356.787 233.617 352.86 236.62L351.2 237.86C350.61 238.25 350 238.61 349.39 238.98C348.78 239.35 348.18 239.77 347.51 240.08L345.51 241.08L344.51 241.57L343.44 241.96L341.27 242.76C340.53 243.01 339.76 243.17 339 243.38C338.233 243.608 337.451 243.785 336.66 243.91C335.052 244.216 333.425 244.41 331.79 244.49C330.96 244.49 330.12 244.6 329.27 244.59L326.72 244.47C326.29 244.47 325.86 244.47 325.43 244.39L324.14 244.19C323.28 244.05 322.41 243.95 321.54 243.78C318 242.978 314.576 241.732 311.35 240.07C310.54 239.63 309.75 239.07 308.94 238.64C308.55 238.38 308.13 238.17 307.75 237.88L306.61 237.03C305.068 235.89 303.604 234.647 302.23 233.31C300.866 231.908 299.6 230.414 298.44 228.84L297.55 227.65L296.77 226.38L295.99 225.1C295.719 224.681 295.478 224.243 295.27 223.79C294.84 222.88 294.4 221.97 293.96 221.06L292.91 218.2C290.257 210.29 290.257 201.73 292.91 193.82L293.96 190.96L295.27 188.24C295.481 187.809 295.725 187.394 296 187L296.77 185.72L297.55 184.45L298.44 183.27C299.603 181.694 300.869 180.198 302.23 178.79C303.607 177.459 305.07 176.219 306.61 175.08L307.75 174.23C308.13 173.94 308.55 173.73 308.95 173.47C309.75 173 310.54 172.47 311.35 172.04C314.574 170.376 317.999 169.132 321.54 168.34C322.41 168.16 323.28 168.06 324.14 167.92L325.43 167.72C325.86 167.67 326.29 167.67 326.72 167.64L329.27 167.52C330.11 167.52 330.95 167.59 331.79 167.62C333.425 167.7 335.052 167.894 336.66 168.2C337.45 168.33 338.231 168.507 339 168.73C339.76 168.94 340.53 169.1 341.27 169.35L343.43 170.15L344.5 170.54L345.5 171.03L347.5 172.03C348.17 172.34 348.75 172.77 349.38 173.13C350.01 173.49 350.6 173.86 351.18 174.25L352.85 175.49C356.774 178.496 360.081 182.231 362.59 186.49C364.506 189.679 365.923 193.142 366.79 196.76C366.95 197.51 367.19 198.19 367.27 198.87C367.35 199.55 367.46 200.17 367.54 200.75C367.62 201.33 367.72 201.87 367.76 202.36C367.8 202.85 367.76 203.3 367.82 203.71C367.82 204.5 367.87 205.1 367.88 205.53C367.89 205.96 367.88 206.06 367.88 206.06Z" fill="#263238"/>
<path d="M316.06 242C316.06 242 322.43 234.63 325.12 232.17C327.81 229.71 343.47 222.88 343.81 222.88C344.15 222.88 366.55 216.09 366.55 216.09C366.55 216.09 363.26 231.46 348.84 239.2C343.931 242.083 338.439 243.831 332.767 244.315C327.095 244.8 321.387 244.009 316.06 242Z" fill="#E0E0E0"/>
<path d="M41.23 27.14H117.75L126.21 19.06H42.47L39.69 23.1L41.23 27.14Z" fill="#90CAF9"/>
<path d="M41.23 27.14C41.1862 27.0635 41.1494 26.9831 41.12 26.9L40.81 26.15L39.61 23.15L42.36 19.15H42.42C56.78 19.06 87.84 19 123.79 19H126.79L126.32 19.45L117.86 27.52L117.79 27.59H117.68L63.07 27.49L47 27.22H42.68H41.56H41.2C41.3295 27.2046 41.4605 27.2046 41.59 27.22H42.73H47.1L63.28 27L117.75 26.9L117.58 26.97L126 18.87L126.17 19.32H123.8C87.85 19.32 56.8 19.26 42.43 19.17H42.52L39.71 23.17V23.1C40.19 24.41 40.56 25.42 40.81 26.1L41.09 26.87C41.2 27 41.23 27.13 41.23 27.14Z" fill="#263238"/>
<path d="M39.4276 31.3635C44.2076 26.5835 44.2076 18.8335 39.4276 14.0535C34.6476 9.2735 26.8976 9.2735 22.1176 14.0535C17.3376 18.8335 17.3376 26.5835 22.1176 31.3635C26.8976 36.1435 34.6476 36.1435 39.4276 31.3635Z" fill="#263238"/>
<g opacity="0.3">
<path d="M89.16 19.06L83.9 27.14H88.49L94.17 19.06H89.16Z" fill="white"/>
</g>
<g opacity="0.3">
<path d="M84.05 19.06L78.79 27.14H81.49L87.11 19.06H84.05Z" fill="white"/>
</g>
<path d="M38.87 20.88C38.7273 19.8355 38.2704 18.859 37.56 18.08C36.8906 17.2875 35.9874 16.7274 34.98 16.48C34.4462 16.3674 33.8953 16.3625 33.3595 16.4655C32.8238 16.5685 32.314 16.7774 31.86 17.08C31.3224 17.4485 30.883 17.9429 30.58 18.52C30.1565 17.7862 29.5109 17.2059 28.7363 16.8626C27.9617 16.5193 27.0981 16.4309 26.27 16.61C25.2662 16.8486 24.3633 17.3981 23.69 18.18C22.9708 18.9566 22.5036 19.9327 22.35 20.98C22.1893 22.3158 22.459 23.6681 23.12 24.84C23.8795 26.02 24.9075 27.0035 26.12 27.71C28.12 28.92 30.74 30.44 30.74 30.44C30.74 30.44 33 28.78 35 27.59C36.2348 26.8968 37.2871 25.92 38.07 24.74C38.7414 23.5715 39.0217 22.2191 38.87 20.88Z" fill="#E0E0E0"/>
<path d="M30.78 30.47C30.78 30.47 28.13 28.94 26.16 27.74C24.9277 27.0377 23.8818 26.0501 23.11 24.86C22.4427 23.6831 22.1727 22.3225 22.34 20.98C22.4905 19.9318 22.9581 18.9548 23.68 18.18C24.3601 17.3924 25.269 16.8365 26.28 16.59C26.8189 16.4795 27.3745 16.4784 27.9139 16.5866C28.4533 16.6948 28.9654 16.9102 29.42 17.22C29.8967 17.5502 30.2959 17.9802 30.59 18.48C30.8938 17.9178 31.3254 17.4348 31.85 17.07C32.3083 16.7645 32.8232 16.554 33.3642 16.451C33.9053 16.3479 34.4615 16.3544 35 16.47C36.0061 16.7272 36.9097 17.2854 37.59 18.07C38.3068 18.8526 38.7643 19.8375 38.9 20.89C39.0648 22.2316 38.7875 23.5904 38.11 24.76C37.3182 25.9468 36.2512 26.9246 35 27.61C33 28.79 30.8 30.44 30.78 30.46V30.47ZM27.09 16.55C26.8179 16.5464 26.5462 16.5732 26.28 16.63C25.2823 16.8768 24.385 17.425 23.71 18.2C22.9812 18.9689 22.5155 19.9493 22.38 21C22.2149 22.3284 22.4813 23.6747 23.14 24.84C23.8971 26.022 24.9256 27.006 26.14 27.71C28.03 28.86 30.53 30.31 30.74 30.43C30.93 30.29 33.06 28.72 34.96 27.59C36.1926 26.9013 37.2394 25.9232 38.01 24.74C38.6886 23.5854 38.9664 22.2389 38.8 20.91C38.6631 19.8687 38.2092 18.8947 37.5 18.12C36.8518 17.3393 35.9789 16.7772 35 16.51C34.4685 16.3951 33.9194 16.3881 33.3851 16.4894C32.8509 16.5908 32.3425 16.7984 31.89 17.1C31.3616 17.4718 30.9268 17.9614 30.62 18.53C30.3218 18.0245 29.9196 17.5882 29.44 17.25C28.7493 16.7764 27.9273 16.5316 27.09 16.55Z" fill="#263238"/>
<path d="M375 252.16C375 250.45 374.92 155.24 374.79 4.37999L375 4.58999H10.64L10.9 4.32999C10.9 92.72 10.9 176.72 10.9 252.11L10.67 251.87L375.05 252.11L10.67 252.35H10.43V252.11C10.43 176.72 10.43 92.72 10.43 4.32999V4.06999H10.72L375 4.16999H375.21V4.37999C375.12 155.24 375 250.45 375 252.16Z" fill="#263238"/>
<path d="M546.44 135.48L560.47 121.83L564.69 142.67L581.68 143.64L573 159.34L585.25 173.58L566.6 177.82L560.97 196.2L543.29 185.77L525.01 193.4L524.13 173.08L501.33 173.12L521.02 157.49L511.87 141.02L530.22 143.06L530.07 123.73L546.44 135.48Z" fill="white"/>
<path d="M546.44 135.48C546.44 135.48 546.07 135.24 545.36 134.74L542.18 132.5L530 123.83L530.2 123.73C530.26 129.1 530.32 135.63 530.4 143.06V143.25H530.21L511.85 141.25L512.05 140.95L521.23 157.41L521.32 157.58L521.17 157.69L501.49 173.34L501.34 172.9H524.14H524.38V173.14C524.67 179.62 524.96 186.48 525.27 193.46L524.91 193.23L537.91 187.8L543.19 185.6L543.31 185.55L543.42 185.62L561.1 196L560.72 196.14C562.647 189.867 564.527 183.743 566.36 177.77V177.63H566.5L585.15 173.4L585.02 173.78L572.78 159.54L572.68 159.42L572.76 159.29L581.45 143.59L581.62 143.89L564.62 142.89H564.48V142.76C562.84 134.547 561.45 127.593 560.31 121.9L560.51 121.96L550.05 132L547.35 134.59C546.75 135.17 546.44 135.44 546.44 135.44C546.44 135.44 546.74 135.12 547.34 134.52C547.94 133.92 548.85 133.04 550.02 131.88L560.38 121.7L560.54 121.54L560.59 121.76C561.75 127.447 563.173 134.393 564.86 142.6L564.7 142.46L581.7 143.4H582L581.84 143.68L573.18 159.4V159.15L585.44 173.37L585.7 173.67L585.31 173.76L566.67 178.02L566.85 177.85C565.02 183.85 563.14 189.95 561.22 196.22L561.13 196.53L560.85 196.37C555.07 192.97 549.177 189.493 543.17 185.94H543.4L538.12 188.14L525.12 193.57L524.78 193.71V193.34C524.48 186.34 524.18 179.51 523.91 173.02L524.16 173.27H501.36H500.66L501.21 172.84C508.14 167.35 514.77 162.09 520.92 157.23L520.86 157.51L511.72 141.03L511.53 140.69H511.92L530.27 142.76L530.08 142.93C530.08 135.5 530 128.93 529.97 123.6V123.35L530.17 123.49L542.23 132.24L545.39 134.54L546.44 135.48Z" fill="#263238"/>
<path d="M552.19 145.09L551.19 162.48C551.15 163.168 550.859 163.817 550.373 164.306C549.886 164.794 549.238 165.087 548.55 165.13C547.825 165.184 547.107 164.954 546.548 164.49C545.988 164.026 545.631 163.363 545.55 162.64L543.55 145.16C543.514 144.849 543.546 144.533 543.641 144.235C543.737 143.937 543.895 143.662 544.105 143.429C544.315 143.197 544.572 143.011 544.859 142.886C545.146 142.76 545.457 142.697 545.77 142.7H550.02C550.322 142.706 550.62 142.773 550.895 142.899C551.17 143.024 551.417 143.203 551.62 143.427C551.823 143.651 551.979 143.914 552.077 144.2C552.175 144.486 552.213 144.789 552.19 145.09Z" fill="#90CAF9"/>
<path d="M543.94 174.93C544.209 175.724 544.707 176.42 545.371 176.931C546.035 177.442 546.836 177.745 547.672 177.801C548.508 177.857 549.342 177.665 550.068 177.247C550.795 176.83 551.382 176.206 551.754 175.456C552.127 174.705 552.268 173.861 552.161 173.03C552.055 172.198 551.704 171.418 551.153 170.786C550.603 170.154 549.878 169.699 549.069 169.479C548.26 169.259 547.405 169.284 546.61 169.55C546.081 169.727 545.592 170.007 545.171 170.374C544.75 170.74 544.406 171.186 544.158 171.686C543.91 172.186 543.763 172.729 543.726 173.286C543.688 173.843 543.761 174.401 543.94 174.93Z" fill="#90CAF9"/>
<path d="M287.71 277.7C287.388 277.483 287.022 277.34 286.638 277.281C286.254 277.222 285.862 277.249 285.49 277.36C284.748 277.594 284.053 277.96 283.44 278.44C282.599 279.042 281.794 279.693 281.03 280.39C280.603 280.724 280.277 281.171 280.09 281.68C280.008 281.936 280.026 282.214 280.141 282.458C280.256 282.701 280.46 282.891 280.71 282.99C281.109 283.037 281.511 282.926 281.83 282.68C283.947 281.412 285.937 279.942 287.77 278.29" fill="#263238"/>
<path d="M308.13 272.93C307.927 272.597 307.654 272.314 307.329 272.099C307.004 271.885 306.635 271.745 306.25 271.69C305.478 271.597 304.695 271.644 303.94 271.83C302.924 272.022 301.922 272.279 300.94 272.6C300.412 272.724 299.93 272.994 299.55 273.38C299.366 273.576 299.263 273.836 299.263 274.105C299.263 274.374 299.366 274.634 299.55 274.83C299.72 274.935 299.91 275.004 300.107 275.035C300.304 275.066 300.506 275.058 300.7 275.01C303.152 274.741 305.57 274.229 307.92 273.48" fill="#263238"/>
<path d="M350.86 284.95L377.41 288.72L412.8 273.78L420.18 295.41L379.22 311.3L337.61 297.66L350.86 284.95Z" fill="#FFBF9D"/>
<path d="M403.79 282.49L400.79 276.44C400.79 276.44 441.3 259.02 440.72 259.21C440.14 259.4 406.64 284.77 406.64 284.77L403.79 282.49Z" fill="#90CAF9"/>
<path d="M350.86 285C350.86 285 342.81 271.52 340.93 270.3C339.05 269.08 322.77 264.61 321.45 265.14C320.13 265.67 301.27 270.55 303.66 272.64C306.05 274.73 319.19 271.15 319.19 271.15L321.06 271.89C321.06 271.89 309.68 274.69 307.37 276.3C305.24 277.78 306.23 280.45 308.37 280.06C310.51 279.67 320.32 276.88 320.95 277.25C321.58 277.62 310.28 280.86 309.1 281.69C307.52 282.82 307.6 285.79 309.69 285.47C310.92 285.28 321.53 281.58 321.53 281.58C321.53 281.58 313.21 285.58 312.48 286.43C311.28 287.77 312.48 289.55 314.29 288.99C315.55 288.6 321.38 285.19 323.06 284.68C323.06 284.68 324.7 284.97 326.42 288.09C328.14 291.21 343.89 304.59 343.89 304.59L350.86 285Z" fill="#FFBF9D"/>
<path d="M341.35 284.26C340.903 283.236 340.192 282.349 339.29 281.69C323.9 270.2 303 269.82 285.83 278.1C282.557 279.77 280.05 282.634 278.83 286.1C277.75 289.39 279.01 293.43 282.38 292.62L304 302.34C304.506 302.495 305.024 302.602 305.55 302.66C311.47 303.49 316.49 298.88 316.92 292.91C317.2 289.22 322.03 288.75 326.68 289.33C328.91 289.61 334.44 290.39 336.68 290.24C339.6 290.05 342.81 287.78 341.35 284.26Z" fill="#90CAF9"/>
<path d="M324.61 283.83C326.974 283.83 328.89 283.199 328.89 282.42C328.89 281.641 326.974 281.01 324.61 281.01C322.246 281.01 320.33 281.641 320.33 282.42C320.33 283.199 322.246 283.83 324.61 283.83Z" fill="#263238"/>
<path d="M324.61 280.9C326.974 280.9 328.89 280.161 328.89 279.25C328.89 278.339 326.974 277.6 324.61 277.6C322.246 277.6 320.33 278.339 320.33 279.25C320.33 280.161 322.246 280.9 324.61 280.9Z" fill="#263238"/>
<path d="M326.56 282.59L323.24 282.5V279.36L326.56 279.45V282.59Z" fill="#263238"/>
<path d="M328.83 279.51C328.83 279.56 328.52 279.95 327.83 280.33C326.874 280.819 325.823 281.092 324.75 281.13C323.674 281.19 322.6 280.988 321.62 280.54C320.87 280.17 320.52 279.78 320.56 279.74C320.6 279.7 321.03 279.94 321.76 280.2C322.725 280.524 323.743 280.664 324.76 280.61C325.77 280.565 326.765 280.359 327.71 280C328.36 279.72 328.77 279.44 328.83 279.51Z" fill="#455A64"/>
<path d="M323.21 282.3C323.07 282.3 322.95 281.99 322.95 281.59C322.95 281.19 323.07 280.89 323.21 280.89C323.35 280.89 323.47 281.2 323.47 281.59C323.47 281.98 323.36 282.3 323.21 282.3Z" fill="#455A64"/>
<path d="M326.44 282.18C326.29 282.18 326.18 281.87 326.18 281.48C326.18 281.09 326.29 280.77 326.44 280.77C326.59 280.77 326.7 281.09 326.7 281.48C326.7 281.87 326.58 282.18 326.44 282.18Z" fill="#455A64"/>
<path d="M308 288.33C308 289.11 306.09 289.75 303.72 289.75C301.35 289.75 299.44 289.11 299.44 288.33C299.44 287.55 301.35 286.92 303.72 286.92C306.09 286.92 308 287.55 308 288.33Z" fill="#263238"/>
<path d="M308 285.16C308 286.07 306.09 286.81 303.72 286.81C301.35 286.81 299.44 286.07 299.44 285.16C299.44 284.25 301.35 283.51 303.72 283.51C306.09 283.51 308 284.25 308 285.16Z" fill="#263238"/>
<path d="M305.65 288.51L302.33 288.42V285.27L305.65 285.36V288.51Z" fill="#263238"/>
<path d="M307.91 285.42C307.91 285.47 307.61 285.86 306.91 286.25C305.952 286.731 304.901 287 303.83 287.04C302.751 287.099 301.674 286.896 300.69 286.45C299.95 286.09 299.6 285.7 299.64 285.65C299.68 285.6 300.1 285.86 300.83 286.11C301.796 286.433 302.813 286.572 303.83 286.52C304.857 286.486 305.871 286.28 306.83 285.91C307.177 285.719 307.538 285.555 307.91 285.42Z" fill="#455A64"/>
<path d="M302.3 288.22C302.16 288.22 302.04 287.9 302.04 287.51C302.04 287.12 302.16 286.8 302.3 286.8C302.44 286.8 302.56 287.12 302.56 287.51C302.56 287.9 302.45 288.22 302.3 288.22Z" fill="#455A64"/>
<path d="M305.52 288.1C305.38 288.1 305.26 287.78 305.26 287.39C305.26 287 305.38 286.68 305.52 286.68C305.66 286.68 305.78 287 305.78 287.39C305.78 287.78 305.67 288.1 305.52 288.1Z" fill="#455A64"/>
<path d="M346.5 285.51C345.42 286.7 343.5 286.59 342.05 285.88C340.6 285.17 339.47 284 338.05 283.19C333.93 280.78 328.37 281.9 324.37 279.28C323.81 278.92 323.24 278.28 323.48 277.67C323.72 277.06 324.48 276.97 325.06 276.93L340.86 276" fill="#FFBF9D"/>
<path d="M340.9 276C340.334 275.89 339.754 275.863 339.18 275.92C338.08 275.92 336.48 275.98 334.51 276.06L327.6 276.37L325.6 276.47C324.78 276.39 323.962 276.634 323.32 277.15C323.153 277.357 323.051 277.61 323.028 277.875C323.005 278.141 323.061 278.407 323.19 278.64C323.402 279.024 323.704 279.35 324.07 279.59C324.72 280.022 325.418 280.378 326.15 280.65C329.15 281.72 332.03 281.72 334.51 282.3C335.684 282.529 336.817 282.934 337.87 283.5C338.87 284.05 339.67 284.74 340.5 285.3C341.126 285.821 341.859 286.199 342.647 286.406C343.435 286.614 344.258 286.646 345.06 286.5C346.21 286.18 346.54 285.5 346.5 285.5C346.04 285.806 345.528 286.026 344.99 286.15C344.245 286.218 343.494 286.131 342.785 285.894C342.075 285.656 341.423 285.273 340.87 284.77C340.09 284.2 339.28 283.47 338.25 282.84C337.143 282.208 335.946 281.749 334.7 281.48C332.12 280.84 329.19 280.8 326.47 279.79C325.807 279.548 325.173 279.232 324.58 278.85C324.04 278.48 323.74 277.94 324 277.71C324.26 277.48 325 277.36 325.65 277.32L327.65 277.19L334.55 276.68C336.55 276.53 338.1 276.38 339.2 276.26C339.775 276.246 340.347 276.159 340.9 276Z" fill="#FF9A6C"/>
<path d="M303.7 272.64C304.833 273.099 306.047 273.327 307.27 273.31C308.606 273.384 309.945 273.327 311.27 273.14C312.72 272.86 314.27 272.5 315.96 272.14L319.49 271.32H319.27C324.13 272.61 327.68 273.42 327.74 273.22C327.8 273.02 324.34 271.89 319.49 270.49H319.4H319.28L315.77 271.26L311.14 272.34C309.877 272.551 308.6 272.668 307.32 272.69C305.09 272.7 303.72 272.5 303.7 272.64Z" fill="#FF9A6C"/>
<path d="M453.74 250.36C453.663 250.42 453.579 250.471 453.49 250.51L452.72 250.91L449.72 252.42L438.83 257.86C436.286 259.02 433.864 260.43 431.6 262.07L423.7 267.61L405.56 280.26L394.56 287.89L394.61 287.53L413.2 312.47C415.48 315.56 417.31 318.04 418.59 319.79C419.2 320.62 419.67 321.28 420.02 321.79L420.38 322.31C420.46 322.43 420.5 322.49 420.49 322.49C420.48 322.49 420.44 322.49 420.34 322.33L419.95 321.84L418.45 319.92L413 312.66L394.3 287.83L394.14 287.62L394.36 287.47L405.31 279.84L423.47 267.21L431.41 261.72C433.698 260.079 436.148 258.675 438.72 257.53L449.72 252.23L452.72 250.82L453.5 250.46C453.576 250.419 453.657 250.385 453.74 250.36Z" fill="#263238"/>
<g opacity="0.3">
<path d="M293.38 277.45C293.183 277.504 293.007 277.617 292.876 277.775C292.745 277.932 292.665 278.125 292.648 278.329C292.63 278.533 292.676 278.737 292.778 278.914C292.881 279.092 293.035 279.233 293.22 279.32C295.49 280.46 298.89 282.06 300.32 282.18C302.55 282.39 313.97 279.61 314.27 278.76C314.57 277.91 306.72 273.99 304.97 274.17C303.71 274.3 297 276.33 293.38 277.45Z" fill="black"/>
</g>
<path d="M464.77 155.73C464.05 154.484 462.965 153.491 461.66 152.884C460.356 152.277 458.896 152.088 457.48 152.34C455.759 151.103 453.674 150.476 451.556 150.56C449.438 150.643 447.409 151.432 445.79 152.8C444.518 152.083 443.082 151.707 441.622 151.71C440.162 151.712 438.728 152.093 437.459 152.815C436.19 153.537 435.129 154.576 434.381 155.83C433.633 157.084 433.223 158.51 433.19 159.97C431.727 159.778 430.24 160.048 428.937 160.743C427.635 161.439 426.584 162.524 425.93 163.847C425.276 165.171 425.053 166.666 425.291 168.122C425.53 169.579 426.218 170.924 427.26 171.97C425.665 172.516 424.33 173.637 423.517 175.113C422.703 176.59 422.469 178.317 422.86 179.957C423.251 181.597 424.239 183.032 425.631 183.983C427.024 184.934 428.72 185.332 430.39 185.1L463.67 163.66C464.642 162.609 465.269 161.286 465.466 159.868C465.662 158.45 465.42 157.006 464.77 155.73Z" fill="#263238"/>
<path d="M429.42 186.1C429.846 178.869 432.981 172.065 438.2 167.042C443.419 162.02 450.338 159.148 457.58 159H459.07C475.16 159.61 483.64 173.62 482.58 189.69V250.32L484.24 256.32L465.78 276.13L441.78 265.77L446.26 256.16L444.1 240.43C444.1 240.43 428.59 238.35 428.1 222.9C427.84 215.44 428.59 200 429.42 186.1Z" fill="#FFBF9D"/>
<path d="M444.1 240.43C451.239 240.272 458.181 238.065 464.1 234.07C464.1 234.07 460.36 247.36 444.91 246.29L444.1 240.43Z" fill="#FF9A6C"/>
<path d="M434.23 199.17C434.238 199.747 434.47 200.298 434.876 200.707C435.283 201.115 435.833 201.35 436.41 201.36C436.688 201.376 436.966 201.337 437.229 201.245C437.492 201.153 437.734 201.01 437.941 200.824C438.149 200.638 438.317 200.413 438.437 200.162C438.557 199.911 438.626 199.638 438.64 199.36C438.632 198.786 438.402 198.237 437.997 197.831C437.592 197.424 437.044 197.19 436.47 197.18C436.192 197.162 435.913 197.2 435.65 197.291C435.387 197.381 435.144 197.523 434.935 197.708C434.727 197.893 434.558 198.118 434.437 198.369C434.316 198.62 434.245 198.892 434.23 199.17Z" fill="#263238"/>
<path d="M432.9 193.6C433.18 193.88 434.83 192.6 437.2 192.6C439.57 192.6 441.34 193.71 441.59 193.42C441.71 193.29 441.43 192.77 440.66 192.24C439.617 191.546 438.382 191.197 437.13 191.24C435.897 191.261 434.703 191.675 433.72 192.42C433 192.94 432.76 193.47 432.9 193.6Z" fill="#263238"/>
<path d="M455 199.84C455.005 200.415 455.235 200.965 455.641 201.372C456.046 201.78 456.595 202.012 457.17 202.02C457.448 202.036 457.726 201.997 457.989 201.905C458.252 201.813 458.494 201.67 458.701 201.484C458.909 201.298 459.077 201.073 459.197 200.822C459.317 200.571 459.386 200.298 459.4 200.02C459.397 199.443 459.169 198.891 458.763 198.481C458.357 198.072 457.807 197.838 457.23 197.83C456.951 197.812 456.671 197.851 456.407 197.943C456.143 198.035 455.9 198.179 455.692 198.366C455.485 198.553 455.316 198.78 455.197 199.033C455.079 199.286 455.011 199.561 455 199.84Z" fill="#263238"/>
<path d="M456.25 193.56C456.53 193.84 458.18 192.56 460.55 192.56C462.92 192.56 464.69 193.67 464.94 193.37C465.06 193.24 464.78 192.73 464 192.19C462.956 191.505 461.728 191.156 460.48 191.19C459.247 191.211 458.053 191.625 457.07 192.37C456.35 192.91 456.11 193.43 456.25 193.56Z" fill="#263238"/>
<path d="M448 211.35C448 211.21 446.53 210.99 444.13 210.73C443.52 210.73 442.95 210.57 442.84 210.16C442.767 209.534 442.893 208.901 443.2 208.35L444.9 203.7C447.26 197.07 448.95 191.63 448.68 191.54C448.41 191.45 446.29 196.74 443.93 203.37C443.37 204.997 442.83 206.557 442.31 208.05C441.949 208.789 441.853 209.629 442.04 210.43C442.133 210.64 442.27 210.826 442.443 210.976C442.616 211.127 442.82 211.237 443.04 211.3C443.367 211.382 443.703 211.422 444.04 211.42C445.358 211.561 446.688 211.537 448 211.35Z" fill="#263238"/>
<path d="M466 188.56C465.83 187.9 463.7 188.06 461.24 187.56C458.78 187.06 456.83 186.16 456.46 186.72C456.3 186.98 456.61 187.61 457.37 188.29C458.368 189.132 459.567 189.701 460.85 189.94C462.109 190.195 463.413 190.113 464.63 189.7C465.56 189.35 466.05 188.87 466 188.56Z" fill="#263238"/>
<path d="M441.7 188.07C441.19 187.53 439.24 188.07 436.88 188.15C434.52 188.23 432.52 187.81 432.07 188.38C431.87 188.65 432.19 189.19 433.07 189.7C434.282 190.308 435.627 190.603 436.982 190.56C438.337 190.516 439.66 190.135 440.83 189.45C441.65 188.89 441.92 188.33 441.7 188.07Z" fill="#263238"/>
<path d="M430.76 179C430.76 179 434.64 169.24 439.26 166.88C444.85 164.04 447.41 170.19 452.76 168.57C458.11 166.95 463.45 164.22 469.04 168.27C475.16 172.7 472.4 175.96 472.91 182.8C474.99 210.57 480.23 218.32 481.4 205.2C481.53 203.76 485.49 202.54 485.95 196.47C486.56 188.6 486.66 179.05 484.8 173.47C483.22 168.8 480.48 165.61 475.6 162.12C467.9 156.63 457.47 156.72 450.41 157.58C443.35 158.44 429.87 166.89 430.76 179Z" fill="#263238"/>
<path d="M480.41 204.79C480.416 204.223 480.537 203.663 480.766 203.144C480.995 202.625 481.327 202.158 481.743 201.771C482.158 201.385 482.648 201.087 483.182 200.896C483.716 200.705 484.284 200.625 484.85 200.66C487.74 200.87 490.98 202.44 490.91 208.4C490.79 218.97 480.2 216.67 480.19 216.4C480.18 216.13 480.32 209.21 480.41 204.79Z" fill="#FFBF9D"/>
<path d="M482.54 212.42C482.54 212.42 482.72 212.55 483.03 212.69C483.463 212.884 483.954 212.901 484.4 212.74C485.53 212.34 486.49 210.58 486.56 208.67C486.601 207.764 486.433 206.861 486.07 206.03C485.977 205.699 485.805 205.395 485.567 205.146C485.33 204.897 485.036 204.709 484.71 204.6C484.498 204.551 484.276 204.572 484.078 204.661C483.88 204.749 483.715 204.9 483.61 205.09C483.47 205.39 483.53 205.6 483.48 205.62C483.43 205.64 483.25 205.44 483.34 205C483.402 204.739 483.55 204.506 483.76 204.34C484.049 204.133 484.407 204.043 484.76 204.09C485.193 204.179 485.596 204.379 485.929 204.67C486.262 204.961 486.514 205.333 486.66 205.75C487.1 206.669 487.309 207.682 487.27 208.7C487.17 210.83 486.06 212.81 484.53 213.23C484.246 213.308 483.948 213.323 483.658 213.273C483.367 213.223 483.091 213.109 482.85 212.94C482.55 212.67 482.5 212.43 482.54 212.42Z" fill="#FF9A6C"/>
<path d="M479.78 184.33C478.505 185.405 476.983 186.147 475.35 186.49C473.7 186.68 471.79 185.77 471.48 184.14C471.34 183.41 471.48 182.55 471.01 181.99C470.54 181.43 469.36 181.56 468.47 181.67C465.41 182.06 461.75 178.74 460.91 175.77C460.518 176.349 459.922 176.757 459.241 176.913C458.559 177.069 457.844 176.961 457.24 176.61C456.257 176.027 455.381 175.279 454.65 174.4C453.7 173.4 452.38 172.4 450.98 172.66C450.245 172.934 449.479 173.118 448.7 173.21C447.31 173.12 446.6 171.51 446.36 170.14C446.12 168.77 445.92 167.14 444.73 166.44C443.54 165.74 442.23 166.19 440.96 166.44C439.69 166.69 438.03 166.44 437.67 165.15C437.61 164.815 437.619 164.472 437.694 164.14C437.77 163.809 437.911 163.496 438.11 163.22C438.942 161.93 440.182 160.957 441.633 160.457C443.083 159.956 444.66 159.958 446.11 160.46C446.594 158.69 447.591 157.104 448.977 155.901C450.363 154.699 452.074 153.935 453.895 153.706C455.715 153.477 457.562 153.793 459.203 154.614C460.843 155.436 462.203 156.725 463.11 158.32C464.21 157.279 465.546 156.52 467.003 156.106C468.46 155.692 469.995 155.635 471.478 155.942C472.962 156.248 474.349 156.908 475.523 157.865C476.696 158.822 477.622 160.049 478.22 161.44C479.508 161.074 480.874 161.095 482.15 161.5C483.426 161.904 484.555 162.675 485.397 163.716C486.239 164.757 486.756 166.022 486.884 167.354C487.013 168.687 486.747 170.027 486.12 171.21C488.04 172.21 489.7 174.11 489.79 176.29C489.88 178.47 487.79 180.7 485.66 180.17C486.088 181.02 486.18 182.001 485.916 182.916C485.653 183.83 485.054 184.612 484.24 185.105C483.425 185.597 482.455 185.764 481.522 185.573C480.59 185.381 479.764 184.844 479.21 184.07" fill="#263238"/>
<path d="M445.41 163.56C445.41 163.56 445.41 163.62 445.41 163.75C445.42 163.938 445.443 164.125 445.48 164.31C445.639 165.016 445.913 165.692 446.29 166.31C446.889 167.302 447.711 168.14 448.69 168.76C449.974 169.612 451.503 170.016 453.04 169.91L452.85 169.68C452.558 170.649 452.659 171.694 453.13 172.59C453.618 173.532 454.245 174.395 454.99 175.15C455.344 175.591 455.747 175.99 456.19 176.34C456.698 176.67 457.277 176.872 457.88 176.93C458.506 177.005 459.14 176.927 459.729 176.702C460.318 176.477 460.843 176.113 461.26 175.64L460.86 175.53C461.032 176.624 461.429 177.671 462.026 178.604C462.623 179.537 463.408 180.336 464.33 180.95C465.349 181.67 466.573 182.042 467.82 182.01C468.995 181.934 470.149 181.657 471.23 181.19L470.94 181.07C471.512 182.34 472.396 183.444 473.51 184.28C474.018 184.701 474.615 185.003 475.255 185.164C475.895 185.325 476.563 185.34 477.21 185.21C478.315 184.946 479.318 184.365 480.098 183.539C480.878 182.713 481.4 181.678 481.6 180.56L481.36 180.68C482.483 181.252 483.77 181.414 485 181.14C485.917 180.948 486.777 180.544 487.51 179.96C487.968 179.591 488.357 179.144 488.66 178.64C488.767 178.467 488.855 178.283 488.92 178.09C488.526 178.757 488.011 179.344 487.4 179.82C486.677 180.361 485.838 180.727 484.95 180.89C483.781 181.119 482.569 180.947 481.51 180.4L481.31 180.29V180.51C481.108 181.554 480.608 182.517 479.87 183.282C479.131 184.047 478.186 184.582 477.15 184.82C476.56 184.935 475.951 184.916 475.37 184.764C474.788 184.611 474.248 184.33 473.79 183.94C472.746 183.139 471.918 182.091 471.38 180.89L471.29 180.7L471.1 180.77C470.066 181.216 468.964 181.484 467.84 181.56C466.687 181.582 465.558 181.231 464.62 180.56C463.746 179.987 463.002 179.237 462.435 178.358C461.869 177.48 461.492 176.493 461.33 175.46L461.26 174.96L460.94 175.36C460.57 175.778 460.103 176.1 459.58 176.297C459.057 176.494 458.494 176.56 457.94 176.49C457.41 176.449 456.898 176.277 456.45 175.99C456.034 175.656 455.652 175.28 455.31 174.87C454.591 174.143 453.979 173.318 453.49 172.42C453.056 171.614 452.956 170.67 453.21 169.79L453.29 169.54H453.03C451.569 169.663 450.107 169.312 448.86 168.54C447.906 167.95 447.094 167.158 446.48 166.22C445.97 165.403 445.608 164.503 445.41 163.56Z" fill="#455A64"/>
<path d="M453.88 216.61C453.541 216.106 453.102 215.677 452.59 215.35C452.089 215.087 451.538 214.932 450.973 214.894C450.408 214.856 449.842 214.937 449.31 215.13C448.338 215.474 447.464 216.047 446.76 216.8C445.52 218.09 445.92 219.41 446.39 222.4C449.39 221.81 452.39 222.4 455.15 221.22C455.264 219.584 454.816 217.957 453.88 216.61Z" fill="#FF9A6C"/>
<path d="M446.39 222.4C447.482 222.037 448.62 221.831 449.77 221.79C450.82 221.68 452.06 221.58 453.43 221.37L453.94 221.28C454.103 221.262 454.264 221.229 454.42 221.18C454.549 221.147 454.664 221.076 454.751 220.976C454.839 220.876 454.894 220.752 454.91 220.62C454.941 220.284 454.91 219.945 454.82 219.62C454.73 219.24 454.64 218.86 454.53 218.48C454.35 217.758 454.031 217.079 453.59 216.48C453.178 215.964 452.597 215.61 451.95 215.48C451.332 215.37 450.699 215.37 450.08 215.48C449.53 215.541 448.989 215.668 448.47 215.86C447.712 216.123 447.052 216.611 446.58 217.26C446.25 217.72 446.13 218.04 446.08 218.02C446.087 217.7 446.184 217.388 446.36 217.12C446.805 216.362 447.486 215.772 448.3 215.44C448.845 215.2 449.42 215.035 450.01 214.95C450.694 214.819 451.396 214.819 452.08 214.95C452.868 215.107 453.576 215.535 454.08 216.16C454.575 216.823 454.936 217.578 455.14 218.38C455.25 218.78 455.34 219.17 455.43 219.55C455.547 219.966 455.578 220.402 455.52 220.83C455.478 221.076 455.367 221.305 455.2 221.49C455.036 221.657 454.833 221.781 454.61 221.85C454.421 221.909 454.227 221.949 454.03 221.97L453.5 222.05C452.1 222.23 450.84 222.29 449.79 222.34C447.7 222.33 446.41 222.5 446.39 222.4Z" fill="#263238"/>
<path d="M463.67 204.64C463.58 204.81 462.2 204.1 460.35 204.02C458.5 203.94 457.05 204.48 456.97 204.3C456.89 204.12 457.26 203.98 457.87 203.74C458.678 203.447 459.538 203.319 460.396 203.363C461.255 203.408 462.096 203.624 462.87 204C463.42 204.29 463.71 204.57 463.67 204.64Z" fill="#FF9A6C"/>
<path d="M439.94 204.68C439.86 204.85 438.54 204.29 436.83 204.3C435.12 204.31 433.83 204.81 433.72 204.64C433.61 204.47 433.97 204.32 434.53 204.08C435.266 203.791 436.05 203.645 436.84 203.65C437.63 203.652 438.412 203.812 439.14 204.12C439.69 204.36 440 204.61 439.94 204.68Z" fill="#FF9A6C"/>
<path d="M446.34 190.41C446.34 190.33 446.55 190.13 446.84 189.75C447.224 189.272 447.47 188.698 447.55 188.09C447.601 187.482 447.49 186.872 447.23 186.32C447.02 185.89 446.83 185.63 446.89 185.56C446.95 185.49 447.27 185.64 447.61 186.08C448.066 186.675 448.275 187.423 448.193 188.168C448.111 188.914 447.744 189.598 447.17 190.08C446.73 190.42 446.38 190.48 446.34 190.41Z" fill="#FF9A6C"/>
<path d="M451.24 190.55C451.17 190.55 450.9 190.41 450.6 189.99C450.222 189.42 449.982 188.769 449.9 188.09C449.814 187.415 449.889 186.73 450.12 186.09C450.31 185.6 450.52 185.36 450.6 185.39C450.68 185.42 450.35 186.61 450.54 188.03C450.73 189.45 451.38 190.43 451.24 190.55Z" fill="#FF9A6C"/>
<path d="M474.77 163.44C474.94 164.161 475.021 164.9 475.01 165.64C475.062 166.244 474.922 166.85 474.61 167.37C474.202 167.791 473.646 168.035 473.06 168.05C472.345 168.086 471.629 168.025 470.93 167.87C470.831 167.85 470.727 167.871 470.643 167.927C470.558 167.983 470.5 168.071 470.48 168.17C470.46 168.269 470.481 168.373 470.537 168.457C470.593 168.542 470.681 168.6 470.78 168.62C472.19 168.88 474.15 169.16 475.19 167.87C475.609 167.256 475.816 166.522 475.78 165.78C475.801 164.905 475.707 164.031 475.5 163.18C475.38 162.7 474.65 162.96 474.77 163.44Z" fill="#455A64"/>
<path d="M477.25 163.06C477.155 163.93 477.185 164.809 477.34 165.67C477.401 166.414 477.707 167.118 478.21 167.67C479.41 168.8 481.32 168.25 482.68 167.8C482.763 167.757 482.828 167.686 482.863 167.599C482.898 167.512 482.9 167.416 482.87 167.327C482.84 167.239 482.779 167.164 482.698 167.117C482.617 167.07 482.522 167.053 482.43 167.07C481.758 167.324 481.055 167.485 480.34 167.55C480.051 167.584 479.759 167.561 479.479 167.482C479.2 167.403 478.938 167.27 478.71 167.09C478.329 166.621 478.105 166.044 478.07 165.44C477.955 164.706 477.935 163.96 478.01 163.22C478.01 162.73 477.3 162.58 477.25 163.07V163.06Z" fill="#455A64"/>
<path d="M479 175C478.83 174.279 478.749 173.54 478.76 172.8C478.707 172.199 478.847 171.596 479.16 171.08C479.36 170.869 479.6 170.699 479.866 170.58C480.132 170.462 480.419 170.397 480.71 170.39C481.425 170.353 482.142 170.417 482.84 170.58C482.935 170.587 483.03 170.56 483.106 170.502C483.182 170.444 483.234 170.36 483.253 170.267C483.271 170.173 483.255 170.076 483.206 169.993C483.158 169.911 483.081 169.849 482.99 169.82C481.58 169.56 479.62 169.28 478.58 170.57C478.162 171.184 477.955 171.918 477.99 172.66C477.963 173.535 478.057 174.41 478.27 175.26C478.39 175.74 479.12 175.48 479 175Z" fill="#455A64"/>
<path d="M476.51 175.38C476.605 174.51 476.575 173.631 476.42 172.77C476.357 172.026 476.051 171.323 475.55 170.77C474.34 169.64 472.44 170.19 471.07 170.64C470.984 170.682 470.917 170.755 470.881 170.843C470.845 170.932 470.842 171.031 470.874 171.121C470.907 171.211 470.971 171.286 471.055 171.332C471.139 171.378 471.237 171.392 471.33 171.37C472.002 171.116 472.705 170.955 473.42 170.89C473.707 170.855 473.998 170.878 474.276 170.957C474.554 171.036 474.814 171.17 475.04 171.35C475.429 171.814 475.654 172.395 475.68 173C475.798 173.734 475.822 174.48 475.75 175.22C475.75 175.71 476.46 175.87 476.51 175.37V175.38Z" fill="#455A64"/>
<path d="M452.91 227.81C452.85 227.89 452.46 227.69 451.82 227.46C450.984 227.166 450.106 227.011 449.22 227C448.336 226.995 447.457 227.137 446.62 227.42C445.98 227.64 445.62 227.84 445.53 227.76C445.44 227.68 445.79 227.35 446.44 227C447.305 226.564 448.261 226.341 449.23 226.35C450.196 226.357 451.146 226.597 452 227.05C452.65 227.4 453 227.75 452.91 227.81Z" fill="#FF9A6C"/>
<path d="M299.67 387.64L280.35 413.09C280.35 413.09 248 402 244 406.35L292 445.58L323.72 407.17L299.67 387.64Z" fill="#455A64"/>
<path d="M296.9 423.14C297.245 423.658 297.387 424.285 297.298 424.902C297.21 425.518 296.897 426.08 296.42 426.48C295.916 426.846 295.29 427.005 294.672 426.923C294.054 426.841 293.491 426.525 293.1 426.04C292.734 425.492 292.584 424.827 292.68 424.175C292.776 423.523 293.111 422.929 293.62 422.51C294.68 421.86 296.55 422.2 297.02 423.35" fill="#E0E0E0"/>
<path d="M292 445.58L295.15 441.76L247.89 405.47C247.89 405.47 244.99 404.65 244 406.35L292 445.58Z" fill="#E0E0E0"/>
<path d="M279.78 412.21C279.59 412.45 280.68 413.51 281.21 415.21C281.74 416.91 281.56 418.39 281.85 418.48C282.14 418.57 282.85 416.92 282.21 414.88C281.57 412.84 279.9 412 279.78 412.21Z" fill="#263238"/>
<path d="M273 410.18C272.76 410.36 273.45 411.59 273.44 413.23C273.43 414.87 272.8 416.11 273.04 416.29C273.28 416.47 274.51 415.29 274.49 413.22C274.47 411.15 273.23 410 273 410.18Z" fill="#263238"/>
<path d="M265.26 413.86C265.43 414.09 266.71 413.18 267.16 411.41C267.61 409.64 266.93 408.23 266.67 408.34C266.41 408.45 266.53 409.7 266.14 411.15C265.75 412.6 265 413.65 265.26 413.86Z" fill="#263238"/>
<path d="M284.82 406.9C284.75 407.19 286.09 407.75 287.34 408.9C288.59 410.05 289.28 411.33 289.57 411.23C289.86 411.13 289.57 409.48 288.05 408.12C286.53 406.76 284.86 406.62 284.82 406.9Z" fill="#263238"/>
<path d="M288.81 401.84C288.73 401.93 289.54 402.84 291.23 403.84C292.221 404.391 293.276 404.821 294.37 405.12C295.027 405.299 295.695 405.433 296.37 405.52C296.764 405.582 297.166 405.582 297.56 405.52C297.849 405.476 298.116 405.339 298.32 405.13C298.524 404.921 298.654 404.65 298.69 404.36C298.705 404.1 298.659 403.84 298.557 403.601C298.454 403.362 298.298 403.149 298.1 402.98C297.796 402.732 297.46 402.526 297.1 402.37C296.483 402.074 295.841 401.836 295.18 401.66C294.072 401.367 292.925 401.246 291.78 401.3C289.78 401.42 288.72 401.99 288.78 402.1C288.84 402.21 289.96 401.97 291.78 402.05C292.842 402.097 293.894 402.279 294.91 402.59C295.504 402.777 296.083 403.011 296.64 403.29C297.26 403.58 297.69 403.93 297.64 404.29C297.64 404.41 297.59 404.45 297.37 404.52C297.078 404.558 296.782 404.558 296.49 404.52C294.795 404.336 293.139 403.891 291.58 403.2C289.87 402.38 288.91 401.71 288.81 401.84Z" fill="#263238"/>
<path d="M288.85 402.42C288.85 402.53 290.05 402.07 291.38 400.62C292.145 399.762 292.76 398.782 293.2 397.72C293.464 397.076 293.659 396.405 293.78 395.72C293.911 395.297 293.929 394.847 293.835 394.414C293.74 393.981 293.535 393.58 293.24 393.25C293.023 393.08 292.761 392.976 292.487 392.949C292.212 392.923 291.936 392.975 291.69 393.1C291.326 393.278 290.989 393.507 290.69 393.78C290.167 394.247 289.721 394.794 289.37 395.4C288.764 396.405 288.42 397.547 288.37 398.72C288.29 400.72 289.04 401.81 289.13 401.72C289.066 400.721 289.066 399.719 289.13 398.72C289.28 397.692 289.652 396.71 290.22 395.84C290.549 395.338 290.946 394.883 291.4 394.49C291.89 394.04 292.4 393.79 292.57 393.99C292.707 394.208 292.795 394.454 292.828 394.709C292.86 394.965 292.837 395.224 292.76 395.47C292.664 396.081 292.506 396.681 292.29 397.26C291.929 398.253 291.428 399.19 290.8 400.04C289.71 401.61 288.75 402.28 288.85 402.42Z" fill="#263238"/>
<path d="M268.64 384.91L247.71 410.75C247.71 410.75 214.41 398.16 210.08 402.56L258.73 444.93L293 406L268.64 384.91Z" fill="#455A64"/>
<path d="M264.59 421.75C264.936 422.299 265.066 422.956 264.955 423.595C264.845 424.235 264.501 424.81 263.99 425.21C263.453 425.573 262.798 425.717 262.159 425.613C261.519 425.509 260.944 425.164 260.55 424.65C260.188 424.065 260.055 423.366 260.177 422.689C260.299 422.011 260.667 421.403 261.21 420.98C262.33 420.34 264.26 420.75 264.72 421.98" fill="#E0E0E0"/>
<path d="M258.73 444.93L262.14 441.07L214.14 401.77C214.14 401.77 211.14 400.82 210.07 402.56L258.73 444.93Z" fill="#E0E0E0"/>
<path d="M247.14 409.82C246.94 410.06 248.03 411.2 248.54 412.99C249.05 414.78 248.79 416.31 249.09 416.41C249.39 416.51 250.24 414.82 249.59 412.67C248.94 410.52 247.28 409.55 247.14 409.82Z" fill="#263238"/>
<path d="M240.2 407.48C239.94 407.67 240.62 408.97 240.55 410.67C240.48 412.37 239.79 413.67 240.03 413.84C240.27 414.01 241.6 412.84 241.65 410.7C241.7 408.56 240.4 407.26 240.2 407.48Z" fill="#263238"/>
<path d="M232 411.07C232.17 411.31 233.53 410.41 234.06 408.57C234.59 406.73 233.92 405.26 233.65 405.37C233.38 405.48 233.46 406.77 233 408.27C232.54 409.77 231.76 410.84 232 411.07Z" fill="#263238"/>
<path d="M252.56 404.46C252.47 404.76 253.85 405.38 255.11 406.64C256.37 407.9 257.05 409.24 257.35 409.14C257.65 409.04 257.35 407.32 255.88 405.86C254.41 404.4 252.61 404.17 252.56 404.46Z" fill="#263238"/>
<path d="M256.88 399.32C256.79 399.42 257.6 400.38 259.33 401.43C260.344 402.039 261.429 402.522 262.56 402.87C263.215 403.071 263.884 403.229 264.56 403.34C264.967 403.428 265.386 403.451 265.8 403.41C266.103 403.377 266.387 403.245 266.606 403.033C266.825 402.821 266.967 402.542 267.01 402.24C267.032 401.971 266.992 401.7 266.893 401.449C266.794 401.198 266.639 400.972 266.44 400.79C266.138 400.523 265.801 400.298 265.44 400.12C264.798 399.796 264.129 399.528 263.44 399.32C262.295 398.978 261.104 398.816 259.91 398.84C257.91 398.9 256.71 399.46 256.75 399.57C256.79 399.68 257.99 399.48 259.89 399.62C260.993 399.704 262.082 399.925 263.13 400.28C263.739 400.499 264.33 400.763 264.9 401.07C265.53 401.39 265.98 401.76 265.9 402.07C265.9 402.2 265.9 402.24 265.61 402.29C265.306 402.32 264.999 402.303 264.7 402.24C262.94 401.998 261.23 401.482 259.63 400.71C258 399.92 257 399.19 256.88 399.32Z" fill="#263238"/>
<path d="M256.89 399.93C256.94 400.04 258.16 399.6 259.58 398.14C260.907 396.748 261.827 395.018 262.24 393.14C262.392 392.705 262.427 392.239 262.343 391.786C262.259 391.334 262.058 390.911 261.76 390.56C261.54 390.375 261.271 390.257 260.986 390.22C260.7 390.183 260.41 390.228 260.15 390.35C259.787 390.526 259.451 390.752 259.15 391.02C258.594 391.492 258.112 392.045 257.72 392.66C257.061 393.692 256.666 394.87 256.57 396.09C256.42 398.18 257.17 399.32 257.26 399.26C257.35 399.2 257.01 398.03 257.34 396.19C257.524 395.113 257.941 394.09 258.56 393.19C258.919 392.68 259.346 392.223 259.83 391.83C260.36 391.37 260.92 391.13 261.06 391.35C261.198 391.579 261.283 391.836 261.311 392.102C261.339 392.368 261.308 392.637 261.22 392.89C261.094 393.519 260.91 394.135 260.67 394.73C260.26 395.753 259.708 396.712 259.03 397.58C257.82 399.11 256.79 399.78 256.89 399.93Z" fill="#263238"/>
<path d="M284.62 389.29C283.62 387.54 322.46 414.43 322.46 414.43L359.1 373.75L427.55 442.75L433.24 413.51L443.63 349.64L385.25 291.53C385.25 291.53 375.54 282.05 360.82 290.38C348.75 297.21 284.62 389.29 284.62 389.29Z" fill="#263238"/>
<path d="M251.06 395.91L320.68 306.28C320.68 306.28 339.21 288.77 358.62 294.11C370.19 297.29 436.01 361.52 436.01 361.52L456.48 369.82L487.73 423.43C487.73 423.43 448.42 459.18 419.81 438.48C392.98 419.07 345.75 357.61 345.75 357.61L287.05 421.9L251.06 395.91Z" fill="#263238"/>
<path d="M390.93 411.32C390.836 411.249 390.749 411.168 390.67 411.08L389.95 410.33C389.31 409.68 388.41 408.67 387.24 407.33C384.92 404.71 381.6 400.88 377.52 396.07C369.35 386.47 358.09 373 345.52 357.76H346C344.21 359.76 342.32 361.91 340.41 364.07C326 380.35 312.73 394.9 303 405.3C298.15 410.51 294.17 414.67 291.4 417.53C290.03 418.93 288.95 420.02 288.18 420.79L287.33 421.63C287.143 421.817 287.043 421.907 287.03 421.9C287.104 421.787 287.192 421.683 287.29 421.59L288.09 420.71L291.23 417.37L302.7 405C312.33 394.52 325.5 379.93 339.93 363.7L345.52 357.39L345.76 357.13L345.98 357.4C358.55 372.65 369.75 386.16 377.83 395.84L387.41 407.21L390.04 410.21L390.72 410.99C390.804 411.09 390.875 411.201 390.93 411.32Z" fill="#455A64"/>
<path d="M455.45 412.4C454.921 412.262 454.411 412.061 453.93 411.8C452.583 411.158 451.315 410.363 450.15 409.43C446.212 406.369 443.451 402.044 442.33 397.184C441.21 392.324 441.8 387.226 444 382.75C444.639 381.401 445.431 380.129 446.36 378.96C446.679 378.519 447.048 378.116 447.46 377.76C446.289 379.39 445.265 381.12 444.4 382.93C442.356 387.34 441.836 392.304 442.922 397.042C444.008 401.779 446.639 406.021 450.4 409.1C451.99 410.337 453.679 411.441 455.45 412.4Z" fill="#455A64"/>
<path d="M398 325.23C398.11 325.11 406.46 333.3 416.63 343.52C426.8 353.74 434.95 362.12 434.83 362.24C434.71 362.36 426.36 354.17 416.19 343.95C406.02 333.73 397.85 325.35 398 325.23Z" fill="#455A64"/>
<path d="M517 282.15C505.22 250.15 483.37 237.88 483.37 237.88L447.12 253.44L436.67 258.44C435.412 259.042 434.205 259.744 433.06 260.54L394.5 287.4L420.58 322.18L439.28 309.57C439.28 309.57 442.88 328.64 442.13 335.5C440.92 346.58 434.13 362.6 434.13 362.6C434.13 362.6 461.21 391.12 465.35 405.96C469.49 420.8 487.79 427.71 496.42 427.36C505.05 427.01 498.49 421.15 498.49 421.15C498.49 421.15 514.76 400.69 519.25 373.42C523.74 346.15 525.53 305.25 517 282.15Z" fill="#90CAF9"/>
<path d="M477.46 409.1C477.338 408.915 477.237 408.718 477.16 408.51L476.41 406.78C475.78 405.27 474.83 403.11 473.6 400.46C472.37 397.81 470.82 394.7 468.99 391.31C467.16 387.92 464.99 384.26 462.59 380.52C460.19 376.78 457.69 373.33 455.36 370.26C453.03 367.19 450.81 364.5 448.89 362.31C446.97 360.12 445.4 358.31 444.28 357.15L443 355.76C442.71 355.44 442.57 355.27 442.59 355.25C442.77 355.376 442.938 355.52 443.09 355.68L444.44 356.99C445.61 358.13 447.25 359.84 449.21 361.99C451.17 364.14 453.42 366.83 455.8 369.88C458.18 372.93 460.65 376.41 463.09 380.15C465.53 383.89 467.65 387.6 469.48 391.01C471.31 394.42 472.81 397.57 473.98 400.25C475.15 402.93 476.06 405.13 476.62 406.66L477.27 408.44C477.365 408.65 477.429 408.872 477.46 409.1Z" fill="#263238"/>
<g opacity="0.3">
<path d="M486.06 399.3C484.66 395.78 481.45 393.36 478.49 391C466.59 381.51 456.49 370 446.39 358.61L472.39 396.35C473.21 398.91 474.07 402.96 475.55 405.2C477.03 407.44 479.71 409.2 482.33 408.58C486.05 407.76 487.46 402.82 486.06 399.3Z" fill="black"/>
</g>
<path d="M453.71 301C455.61 299.487 457.331 297.762 458.84 295.86C460.439 293.771 461.704 291.447 462.59 288.97C463.709 285.952 464.202 282.738 464.041 279.523C463.879 276.309 463.066 273.161 461.65 270.27C460.523 267.895 459.036 265.709 457.24 263.79C455.547 262.049 453.661 260.506 451.62 259.19C451.781 259.241 451.936 259.312 452.08 259.4C452.37 259.57 452.82 259.78 453.34 260.13C454.855 261.096 456.251 262.238 457.5 263.53C459.369 265.448 460.918 267.652 462.09 270.06C463.555 273.001 464.396 276.214 464.559 279.496C464.723 282.778 464.206 286.058 463.04 289.13C462.124 291.657 460.807 294.021 459.14 296.13C458.026 297.54 456.75 298.816 455.34 299.93C454.85 300.34 454.42 300.59 454.15 300.79C454.01 300.874 453.863 300.944 453.71 301Z" fill="#263238"/>
<path d="M319.8 296.84L313.2 314.53C309.419 314.716 305.63 314.515 301.89 313.93C295.18 312.76 287.63 305.67 283.21 302.44C281.972 301.617 281.015 300.436 280.466 299.055C279.918 297.674 279.804 296.158 280.14 294.71L275.53 291.48C270.67 287.62 275.53 285.37 275.53 285.37L296.6 292L310.6 294L319.76 296.81" fill="#FFBF9D"/>
<path d="M279 294.23C278.89 294.4 281.31 296.05 284.39 297.89C287.47 299.73 290.06 301.1 290.16 300.89C290.26 300.68 287.86 299.07 284.77 297.22C281.68 295.37 279.13 294.05 279 294.23Z" fill="#FF9A6C"/>
<path d="M319.9 296.57C320.07 297.23 376.69 300.04 376.69 300.04L395.94 289.32L414.4 313.93C414.4 313.93 389.71 327 385.13 328C380.55 329 307 314 307 314L319.9 296.57Z" fill="#FFBF9D"/>
<path d="M314.07 289.91C313.103 289.081 312.013 288.406 310.84 287.91L303.35 284.35C302.92 284.091 302.42 283.976 301.92 284.02C300.98 284.22 300.69 285.41 300.66 286.37C300.526 290.171 301.323 293.947 302.98 297.37L317.91 295.51C316.43 293.84 315.75 291.48 314.07 289.91Z" fill="#FFBF9D"/>
</g>
<defs>
<clipPath id="clip0_1_188">
<rect width="586" height="446" fill="white"/>
</clipPath>
</defs>
</svg>
