<svg width="472" height="434" viewBox="0 0 472 434" fill="none" xmlns="http://www.w3.org/2000/svg">
<g clip-path="url(#clip0_1_374)">
<path d="M236 433.72C366.339 433.72 472 372.728 472 297.49C472 222.252 366.339 161.26 236 161.26C105.661 161.26 0 222.252 0 297.49C0 372.728 105.661 433.72 236 433.72Z" fill="#F5F5F5"/>
<path d="M27.12 270.5L284.56 419.13C286.11 419.914 287.823 420.322 289.56 420.322C291.297 420.322 293.01 419.914 294.56 419.13L434.7 338.22C437.46 336.62 437.46 334.04 434.7 332.44L177.26 183.81C175.71 183.026 173.997 182.618 172.26 182.618C170.523 182.618 168.81 183.026 167.26 183.81L27.12 264.72C24.35 266.32 24.35 268.9 27.12 270.5Z" fill="#E0E0E0"/>
<path d="M46.4601 254.43L56.8201 249.76C56.8201 249.76 61.3401 229.03 61.3901 212.63C61.4501 189.63 49.4901 160.63 31.2501 165.3C13.0101 169.97 36.3101 195.8 40.0601 215.74C43.8101 235.68 46.4601 254.43 46.4601 254.43Z" fill="#90CAF9"/>
<path opacity="0.15" d="M46.4601 254.43L56.8201 249.76C56.8201 249.76 61.3401 229.03 61.3901 212.63C61.4501 189.63 49.4901 160.63 31.2501 165.3C13.0101 169.97 36.3101 195.8 40.0601 215.74C43.8101 235.68 46.4601 254.43 46.4601 254.43Z" fill="black"/>
<path d="M51.85 252.57C51.7723 252.56 51.6972 252.535 51.6293 252.496C51.5614 252.457 51.502 252.404 51.4545 252.342C51.407 252.28 51.3724 252.208 51.3528 252.133C51.3331 252.057 51.3288 251.978 51.34 251.9C58.19 201.36 35.52 173.3 35.34 173.02C35.2893 172.96 35.2511 172.89 35.2276 172.815C35.2041 172.74 35.1958 172.661 35.2033 172.583C35.2107 172.505 35.2337 172.429 35.271 172.36C35.3082 172.29 35.3589 172.229 35.42 172.18C35.5424 172.08 35.6992 172.032 35.8565 172.047C36.0137 172.062 36.1588 172.139 36.26 172.26C36.49 172.54 59.49 201.01 52.57 252.06C52.5594 252.142 52.5319 252.221 52.4892 252.292C52.4464 252.363 52.3895 252.425 52.3218 252.473C52.2542 252.521 52.1773 252.554 52.0961 252.571C52.0149 252.588 51.9311 252.587 51.85 252.57Z" fill="white"/>
<path d="M40 257.33L47.32 254C47.32 254 49.96 239.73 44.67 221.53C40.07 205.69 26.1 191.53 18.17 193.4C10.24 195.27 9.87003 200.74 13.04 206.82C16.21 212.9 37.56 228.79 40 257.33Z" fill="#90CAF9"/>
<path opacity="0.2" d="M40 257.33L47.32 254C47.32 254 49.96 239.73 44.67 221.53C40.07 205.69 26.1 191.53 18.17 193.4C10.24 195.27 9.87003 200.74 13.04 206.82C16.21 212.9 37.56 228.79 40 257.33Z" fill="white"/>
<path d="M43.78 256.17C43.6243 256.152 43.4817 256.074 43.3826 255.953C43.2836 255.832 43.236 255.676 43.25 255.52C46.63 223.46 18.71 198.75 18.43 198.52C18.312 198.417 18.2399 198.27 18.2296 198.114C18.2193 197.957 18.2716 197.803 18.375 197.685C18.4785 197.567 18.6246 197.495 18.7812 197.485C18.9378 197.474 19.092 197.527 19.21 197.63C19.5 197.88 47.88 223 44.44 255.63C44.4326 255.709 44.4095 255.786 44.3722 255.856C44.3349 255.926 44.2841 255.987 44.2227 256.038C44.1613 256.088 44.0906 256.125 44.0146 256.148C43.9386 256.171 43.8589 256.178 43.78 256.17Z" fill="white"/>
<path d="M385.15 78.75C385.159 78.2053 385.084 77.6624 384.93 77.14L390.78 70.44L383.28 66.23C382.57 65.74 381.56 65.68 380.19 66.48L367.19 74.03L365.44 75.03C365.747 73.522 365.954 71.9953 366.06 70.46C366.11 69.82 366.12 69.21 366.12 68.6L366.36 68.72L370.75 63.59L363.25 59.37C360.73 57.83 356.47 60.87 356.47 62.1C356.47 63.58 357.11 71.33 356.47 73.55C355.83 75.77 349.13 91.08 349.13 91.08V92.08V122.98L373.58 108.84C376.79 106.98 379.02 103.02 379.02 100.34C379.056 99.1403 378.835 97.9467 378.37 96.84C380.45 95.64 382.52 91.3 382.52 89.46C382.52 86.68 381.57 85.96 381.57 85.96C383.668 84.1236 384.955 81.5317 385.15 78.75Z" fill="#90CAF9"/>
<path opacity="0.1" d="M385.15 78.75C385.159 78.2053 385.084 77.6624 384.93 77.14L390.78 70.44L383.28 66.23C382.57 65.74 381.56 65.68 380.19 66.48L367.19 74.03L365.44 75.03C365.747 73.522 365.954 71.9953 366.06 70.46C366.11 69.82 366.12 69.21 366.12 68.6L366.36 68.72L370.75 63.59L363.25 59.37C360.73 57.83 356.47 60.87 356.47 62.1C356.47 63.58 357.11 71.33 356.47 73.55C355.83 75.77 349.13 91.08 349.13 91.08V92.08V122.98L373.58 108.84C376.79 106.98 379.02 103.02 379.02 100.34C379.056 99.1403 378.835 97.9467 378.37 96.84C380.45 95.64 382.52 91.3 382.52 89.46C382.52 86.68 381.57 85.96 381.57 85.96C383.668 84.1236 384.955 81.5317 385.15 78.75Z" fill="black"/>
<path d="M356.86 127.37L349.12 122.9L349.1 90.98L356.83 95.45L356.86 127.37Z" fill="#E0E0E0"/>
<path d="M356.86 127.37L349.12 122.9L349.1 90.98L356.83 95.45L356.86 127.37Z" fill="#90CAF9"/>
<path opacity="0.3" d="M356.86 127.37L349.12 122.9L349.1 90.98L356.83 95.45L356.86 127.37Z" fill="black"/>
<path d="M390.53 94.45C390.53 98.57 388.18 100.02 386.1 101.22C386.553 102.337 386.767 103.536 386.73 104.74C386.73 107.4 384.51 111.38 381.31 113.22L356.86 127.36V96.8V95.45C356.86 95.45 363.58 80.14 364.21 77.91C364.84 75.68 364.21 67.91 364.21 66.48C364.21 65.05 370.28 60.94 372.21 65.18C374.14 69.42 374.3 73.74 373.21 79.38L387.99 70.83C391.11 69.03 392.39 71.61 392.39 73.63C392.39 76.5 391.05 79.33 389.27 80.41C389.27 80.41 392.67 80.58 392.67 84.54C392.641 85.792 392.331 87.0215 391.763 88.1378C391.195 89.2541 390.384 90.2288 389.39 90.99C389.39 90.99 390.53 91.69 390.53 94.45Z" fill="#90CAF9"/>
<path d="M342.66 139.87L353.34 133.71L353.31 96.56L342.66 102.72V139.87Z" fill="#37474F"/>
<path d="M342.66 139.87L334.92 135.41V98.26L342.66 102.72V139.87Z" fill="#263238"/>
<path d="M345.58 92.1L353.31 96.56L342.66 102.72L334.92 98.26L345.58 92.1Z" fill="#455A64"/>
<path d="M364.17 77.91C363.54 80.14 356.82 95.45 356.82 95.45L349.1 91.1C349.1 91.1 355.8 75.78 356.44 73.57C357.08 71.36 356.44 63.57 356.44 62.12L364.18 66.48C364.17 68 364.82 75.7 364.17 77.91Z" fill="#90CAF9"/>
<path opacity="0.2" d="M364.17 77.91C363.54 80.14 356.82 95.45 356.82 95.45L349.1 91.1C349.1 91.1 355.8 75.78 356.44 73.57C357.08 71.36 356.44 63.57 356.44 62.12L364.18 66.48C364.17 68 364.82 75.7 364.17 77.91Z" fill="black"/>
<path d="M454.91 110.35L447.55 105.76C444.83 104.02 440.69 104.2 435.99 106.76C429.49 110.23 423.75 118.99 421.27 126.42L416 123.14C413.33 121.21 409.58 120.8 405.35 123.06C404.83 123.34 404.35 123.65 403.79 123.97L402.98 124.52C402.75 124.68 402.51 124.83 402.28 125C402.05 125.17 401.56 125.55 401.21 125.83L400.81 126.14C400.4 126.48 399.99 126.84 399.59 127.21L399.41 127.38C398.96 127.79 398.53 128.22 398.1 128.66C396.781 130.021 395.577 131.49 394.5 133.05C391.5 137.35 389.6 142.15 389.5 146.41C389.24 154.34 393.97 159.56 399.88 162.99L405.69 166.6C409.136 168.808 412.89 170.493 416.83 171.6L426.5 174.51L436.67 161C446.4 148.1 458.08 130.22 458.47 118.26C458.6 114.45 457.24 111.74 454.91 110.35Z" fill="#90CAF9"/>
<path d="M405.57 166.58L399.84 163C393.94 159.57 389.2 154.35 389.46 146.42C389.6 142.17 391.53 137.35 394.51 133.06L402.06 137.75C399.06 142.04 397.15 146.86 397.01 151.11C396.78 158.23 400.54 163.16 405.57 166.58Z" fill="#90CAF9"/>
<g opacity="0.3">
<path d="M405.57 166.58L399.84 163C393.94 159.57 389.2 154.35 389.46 146.42C389.6 142.17 391.53 137.35 394.51 133.06L402.06 137.75C399.06 142.04 397.15 146.86 397.01 151.11C396.78 158.23 400.54 163.16 405.57 166.58Z" fill="black"/>
</g>
<path d="M454.88 110.3C452.15 108.72 448.1 108.97 443.54 111.41C435.7 115.59 428.94 127.47 427.72 135.41C426.98 128.5 420.78 123.54 412.94 127.74C408.588 130.186 404.864 133.609 402.06 137.74L394.51 133.05L394.89 132.51C395 132.36 395.1 132.22 395.22 132.07L396.06 130.97C396.873 129.966 397.741 129.008 398.66 128.1C398.88 127.86 399.12 127.64 399.35 127.42L399.85 126.96C401.536 125.435 403.396 124.112 405.39 123.02C407.189 122.002 409.223 121.475 411.29 121.49C412.999 121.536 414.655 122.097 416.04 123.1L421.27 126.32C423.74 118.9 429.49 110.15 436 106.68C440.7 104.16 444.83 103.98 447.55 105.68L454.88 110.3Z" fill="#90CAF9"/>
<path opacity="0.1" d="M454.88 110.3C452.15 108.72 448.1 108.97 443.54 111.41C435.7 115.59 428.94 127.47 427.72 135.41C426.98 128.5 420.78 123.54 412.94 127.74C408.588 130.186 404.864 133.609 402.06 137.74L394.51 133.05L394.89 132.51C395 132.36 395.1 132.22 395.22 132.07L396.06 130.97C396.873 129.966 397.741 129.008 398.66 128.1C398.88 127.86 399.12 127.64 399.35 127.42L399.85 126.96C401.536 125.435 403.396 124.112 405.39 123.02C407.189 122.002 409.223 121.475 411.29 121.49C412.999 121.536 414.655 122.097 416.04 123.1L421.27 126.32C423.74 118.9 429.49 110.15 436 106.68C440.7 104.16 444.83 103.98 447.55 105.68L454.88 110.3Z" fill="black"/>
<path d="M335.45 33.31L328.05 28.71L325.21 34.43L329.21 38.8C329.21 38.8 329.45 39.66 331.4 38.15C332.967 36.7312 334.33 35.1024 335.45 33.31Z" fill="#90CAF9"/>
<path opacity="0.3" d="M335.45 33.31L328.05 28.71L325.21 34.43L329.21 38.8C329.21 38.8 329.45 39.66 331.4 38.15C332.967 36.7312 334.33 35.1024 335.45 33.31Z" fill="black"/>
<path d="M329.86 43.42C329.86 52.42 327.27 63.42 322.47 73.54C316.99 85.12 308.65 95.69 298.07 101.35C292.01 104.59 286.46 105.27 281.86 103.83L274.46 99.23C279.26 97.4 284.13 93.44 288.33 87.99L283.79 85.16C282.225 84.084 281.147 82.435 280.79 80.57C281.888 80.242 282.928 79.7425 283.87 79.09L280.87 77.21C278.6 75.8 277.32 72.6 277.53 68.42C279.174 68.6782 280.858 68.3865 282.32 67.59C281.854 67.4241 281.414 67.1953 281.01 66.91C277.51 64.42 276.92 57.65 279.62 50.65L287 55.24C291.08 56.34 296 55.94 301.2 53.5C299.93 45.57 305.28 34.42 312.2 30.72C315.28 29.08 318.01 29.29 319.87 30.98C322.442 28.9281 324.762 26.5784 326.78 23.98L334.18 28.58C333.232 32.3057 331.53 35.7976 329.18 38.84C331.455 37.2561 333.539 35.4138 335.39 33.35C333.895 36.8866 332.042 40.2609 329.86 43.42Z" fill="#90CAF9"/>
<path d="M329.86 43.42C329.86 52.42 327.27 63.42 322.47 73.54C316.99 85.12 308.65 95.69 298.07 101.35C292.01 104.59 286.46 105.27 281.86 103.83C287.51 101.67 293.25 96.58 297.86 89.56C293.18 91.94 289.36 90.02 288.18 85.17C289.981 84.5974 291.634 83.6345 293.02 82.35C287.92 83.74 284.56 79.57 284.89 73.02C286.538 73.2782 288.225 72.9865 289.69 72.19C289.316 72.0553 288.957 71.881 288.62 71.67C284.91 69.33 284.22 62.4 286.99 55.25C287.78 58.98 294.7 61.86 300.68 61.77C306.46 61.68 308.45 58.32 308.56 58.11C307.29 50.18 312.65 39.03 319.56 35.33C322.63 33.69 325.36 33.9 327.23 35.58C329.805 33.5313 332.125 31.1812 334.14 28.58C333.192 32.3057 331.49 35.7976 329.14 38.84C331.415 37.2561 333.499 35.4138 335.35 33.35C333.868 36.885 332.028 40.2592 329.86 43.42Z" fill="#90CAF9"/>
<path opacity="0.1" d="M334.19 28.54C332.174 31.1371 329.858 33.4867 327.29 35.54C326.811 35.1015 326.25 34.7616 325.64 34.54L319.88 31C322.452 28.9481 324.772 26.5984 326.79 24L334.19 28.54Z" fill="black"/>
<path opacity="0.3" d="M293.06 82.35C291.674 83.6345 290.021 84.5974 288.22 85.17L280.83 80.57C281.928 80.242 282.968 79.7425 283.91 79.09L288.1 81.69L288.23 81.78L288.42 81.9C289.123 82.2857 289.896 82.5245 290.694 82.6018C291.491 82.6792 292.296 82.5935 293.06 82.35Z" fill="black"/>
<path opacity="0.1" d="M308.61 58.1C308.39 58.49 306.35 61.64 300.75 61.73C294.75 61.82 287.85 58.94 287.06 55.21C288.327 55.5485 289.629 55.743 290.94 55.79C294.515 55.8428 298.052 55.0477 301.26 53.47L308.61 58.1Z" fill="black"/>
<path opacity="0.2" d="M287 55.25L279.61 50.66C276.91 57.66 277.5 64.43 281 66.92L281.5 67.23L282.18 67.66L288.64 71.66C285 69.34 284.26 62.41 287 55.25Z" fill="black"/>
<path opacity="0.3" d="M289.73 72.19C288.265 72.9865 286.578 73.2782 284.93 73.02L277.54 68.42C279.136 68.6712 280.77 68.4012 282.2 67.65L288.66 71.65C288.998 71.8641 289.357 72.045 289.73 72.19Z" fill="black"/>
<path opacity="0.3" d="M297.9 89.56C293.25 96.56 287.51 101.67 281.9 103.83L274.5 99.23C279.3 97.39 284.17 93.44 288.37 87.99L291.25 89.78C293 90.88 295.3 90.88 297.9 89.56Z" fill="black"/>
<path opacity="0.2" d="M325.69 34.59C324.01 33.9 321.9 34.1 319.61 35.32C312.7 39.02 307.34 50.17 308.61 58.1L301.22 53.5C299.95 45.57 305.3 34.42 312.22 30.72C315.3 29.08 318.03 29.29 319.89 30.98L325.69 34.59Z" fill="black"/>
<path opacity="0.2" d="M288.1 81.69L283.91 79.09L280.91 77.21C278.64 75.8 277.36 72.6 277.57 68.42L284.96 73.02C284.73 77.08 285.94 80.22 288.1 81.69Z" fill="black"/>
<path opacity="0.2" d="M291 89.64L288.33 88L283.79 85.18C282.222 84.1032 281.143 82.4495 280.79 80.58L288.18 85.18C288.533 86.9656 289.538 88.5556 291 89.64Z" fill="black"/>
<path d="M428.43 219.5L429.53 217.72L423.94 214.05C419.15 210.65 412.21 210.8 404.5 215.28C390.12 223.64 378.5 243.91 378.55 260.54C378.55 268.42 381.21 274.07 385.5 276.95L391.02 280.59L391.94 279.08C395.71 279.34 400.05 278.22 404.67 275.53C419.06 267.17 430.67 246.91 430.67 230.27C430.742 226.557 429.977 222.876 428.43 219.5Z" fill="#90CAF9"/>
<path opacity="0.2" d="M428.43 219.5L429.53 217.72L423.94 214.05C419.15 210.65 412.21 210.8 404.5 215.28C390.12 223.64 378.5 243.91 378.55 260.54C378.55 268.42 381.21 274.07 385.5 276.95L391.02 280.59L391.94 279.08C395.71 279.34 400.05 278.22 404.67 275.53C419.06 267.17 430.67 246.91 430.67 230.27C430.742 226.557 429.977 222.876 428.43 219.5Z" fill="black"/>
<path d="M436.32 234C436.37 250.63 424.75 270.9 410.32 279.26C395.89 287.62 384.24 280.91 384.2 264.26C384.16 247.61 395.77 227.36 410.15 219C424.53 210.64 436.27 217.38 436.32 234Z" fill="#90CAF9"/>
<path d="M432 236.54C432 250.4 422.36 267.29 410.38 274.26C398.4 281.23 388.64 275.63 388.6 261.77C388.56 247.91 398.24 231.02 410.23 224.05C422.22 217.08 431.94 222.67 432 236.54Z" fill="white"/>
<path d="M427.62 239.05C427.62 250.14 419.9 263.65 410.32 269.23C400.74 274.81 392.95 270.34 392.92 259.23C392.89 248.12 400.63 234.63 410.22 229.05C419.81 223.47 427.6 228 427.62 239.05Z" fill="#90CAF9"/>
<path d="M423.3 241.58C423.3 249.9 417.51 260.03 410.3 264.22C403.09 268.41 397.3 265.04 397.24 256.73C397.18 248.42 403.02 238.27 410.24 234.09C417.46 229.91 423.27 233.27 423.3 241.58Z" fill="white"/>
<path d="M410.25 239.11C405.45 241.9 401.58 248.66 401.6 254.2C401.62 259.74 405.51 261.99 410.31 259.2C415.11 256.41 418.98 249.65 418.96 244.11C418.94 238.57 415.05 236.32 410.25 239.11Z" fill="#90CAF9"/>
<path d="M410.26 244.13C408.999 244.962 407.95 246.079 407.2 247.39C406.45 248.702 406.018 250.171 405.94 251.68C405.94 254.45 407.89 255.57 410.29 254.18C411.554 253.35 412.604 252.234 413.357 250.922C414.109 249.61 414.542 248.14 414.62 246.63C414.61 243.86 412.66 242.74 410.26 244.13Z" fill="white"/>
<path d="M453.73 271.55L447.93 269.14L444.33 268.97V269.62L449.83 272.8L453.73 272.2V271.55Z" fill="#90CAF9"/>
<path d="M444.33 268.97L447.93 269.14L453.73 271.55L449.83 272.15L444.33 268.97Z" fill="#90CAF9"/>
<path opacity="0.2" d="M449.83 272.8V272.15L453.73 271.55V272.2L449.83 272.8Z" fill="black"/>
<path opacity="0.1" d="M449.83 272.15L444.33 268.97V269.62L449.83 272.8V272.15Z" fill="black"/>
<path d="M419.62 251.59L410.71 249.15V250.39L414.63 255.71L416.78 253.65L419.62 252.83V251.59Z" fill="#37474F"/>
<path d="M410.71 249.15L414.63 254.47L416.78 252.42L419.62 251.59L410.71 249.15Z" fill="#455A64"/>
<path d="M414.63 254.47V255.71L416.78 253.65V252.42L414.63 254.47Z" fill="#263238"/>
<path d="M416.78 252.42L419.62 251.59V252.83L416.78 253.65V252.42Z" fill="#263238"/>
<path d="M417.16 252.41C417.097 252.371 417.024 252.35 416.95 252.35C416.876 252.35 416.803 252.371 416.74 252.41C416.571 252.52 416.429 252.667 416.325 252.841C416.221 253.014 416.157 253.209 416.14 253.41C416.131 253.485 416.143 253.562 416.175 253.63C416.207 253.699 416.257 253.758 416.32 253.8L452.6 274.8L453.42 273.32L417.16 252.41Z" fill="#455A64"/>
<path d="M416.27 253C416.191 253.159 416.146 253.333 416.14 253.51C416.131 253.585 416.143 253.662 416.175 253.73C416.207 253.799 416.257 253.858 416.32 253.9L452.6 274.9L452.97 274.23L416.27 253Z" fill="#37474F"/>
<path d="M453 273.41C452.832 273.521 452.691 273.668 452.589 273.842C452.487 274.015 452.426 274.209 452.41 274.41C452.41 274.79 452.67 274.95 453 274.76C453.169 274.65 453.31 274.503 453.413 274.33C453.515 274.156 453.576 273.961 453.59 273.76C453.6 273.38 453.34 273.22 453 273.41Z" fill="#263238"/>
<path d="M449.44 273.02V272.37L443.95 269.19V269.85L444.24 271.92L448.4 275.28L449.44 273.03V273.02Z" fill="#90CAF9"/>
<path opacity="0.2" d="M443.95 269.19L444.25 271.27L444.24 271.92L443.95 269.85V269.19Z" fill="black"/>
<path opacity="0.2" d="M449.44 272.37L448.4 274.62V275.27L449.44 273.02V272.37Z" fill="black"/>
<path opacity="0.1" d="M444.25 271.27L448.4 274.62V275.27L444.24 271.92L444.25 271.27Z" fill="black"/>
<path d="M453.49 225.45L447.69 227.86L444.1 228.03V227.38L449.59 224.2L453.49 224.8V225.45Z" fill="#90CAF9"/>
<path d="M444.1 228.03L447.69 227.86L453.49 225.45L449.59 224.85L444.1 228.03Z" fill="#90CAF9"/>
<path opacity="0.2" d="M449.59 224.2V224.85L453.49 225.45V224.8L449.59 224.2Z" fill="black"/>
<path opacity="0.1" d="M449.59 224.85L444.1 228.03V227.38L449.59 224.2V224.85Z" fill="black"/>
<path d="M419.38 245.41L410.48 247.85V246.61L414.39 241.3L416.54 243.35L419.38 244.17V245.41Z" fill="#37474F"/>
<path d="M410.48 247.85L414.39 242.53L416.54 244.59L419.38 245.41L410.48 247.85Z" fill="#455A64"/>
<path d="M414.39 242.53V241.3L416.54 243.35V244.59L414.39 242.53Z" fill="#263238"/>
<path d="M416.54 244.59L419.38 245.41V244.17L416.54 243.35V244.59Z" fill="#263238"/>
<path d="M416.92 244.59C416.858 244.631 416.785 244.653 416.71 244.653C416.635 244.653 416.562 244.631 416.5 244.59C416.331 244.48 416.189 244.333 416.085 244.159C415.981 243.986 415.917 243.791 415.9 243.59C415.892 243.515 415.905 243.439 415.936 243.37C415.968 243.302 416.018 243.243 416.08 243.2L452.36 222.2L453.18 223.67L416.92 244.59Z" fill="#455A64"/>
<path d="M416 244C415.912 243.844 415.864 243.669 415.86 243.49C415.852 243.415 415.865 243.339 415.896 243.27C415.928 243.202 415.978 243.143 416.04 243.1L452.32 222.1L452.69 222.76L416 244Z" fill="#37474F"/>
<path d="M452.77 223.59C452.601 223.48 452.46 223.332 452.358 223.159C452.256 222.986 452.195 222.791 452.18 222.59C452.18 222.21 452.44 222.05 452.77 222.24C452.939 222.35 453.08 222.498 453.182 222.671C453.284 222.844 453.345 223.039 453.36 223.24C453.36 223.62 453.1 223.78 452.77 223.59Z" fill="#263238"/>
<path d="M449.2 223.98V224.63L443.71 227.81V227.15L444 225.08L448.16 221.72L449.2 223.98Z" fill="#90CAF9"/>
<path opacity="0.2" d="M443.71 227.81L444.01 225.73L444 225.08L443.71 227.15V227.81Z" fill="black"/>
<path opacity="0.2" d="M449.2 224.63L448.16 222.38V221.73L449.2 223.98V224.63Z" fill="black"/>
<path opacity="0.1" d="M444.01 225.73L448.16 222.38V221.73L444 225.08L444.01 225.73Z" fill="black"/>
<path d="M349.73 243.23L345.42 232.18L348.89 222.18V216L338.27 222.13V228.26L342.84 239.11C342.912 239.23 343.021 239.325 343.15 239.38L349.73 243.23Z" fill="#90CAF9"/>
<path opacity="0.2" d="M349.73 243.23L345.42 232.18L348.89 222.18V216L338.27 222.13V228.26L342.84 239.11C342.912 239.23 343.021 239.325 343.15 239.38L349.73 243.23Z" fill="black"/>
<path d="M375.36 196.3C375.303 195.196 374.985 194.121 374.432 193.163C373.879 192.205 373.108 191.392 372.18 190.79L371 190C370.014 189.502 368.925 189.242 367.82 189.242C366.715 189.242 365.626 189.502 364.64 190L321.37 215C320.442 215.602 319.671 216.415 319.118 217.373C318.565 218.331 318.247 219.406 318.19 220.51V235.13C318.247 236.234 318.565 237.309 319.118 238.267C319.671 239.225 320.442 240.038 321.37 240.64L322.59 241.39C323.575 241.892 324.665 242.154 325.77 242.154C326.875 242.154 327.965 241.892 328.95 241.39L344.95 232.14L349.49 243C349.555 243.113 349.65 243.204 349.766 243.264C349.881 243.324 350.011 243.35 350.14 243.339C350.27 243.327 350.393 243.279 350.496 243.199C350.598 243.12 350.676 243.012 350.72 242.89L355.54 226L372.18 216.39C373.108 215.788 373.879 214.975 374.432 214.017C374.985 213.059 375.303 211.984 375.36 210.88V196.3Z" fill="#90CAF9"/>
<path opacity="0.2" d="M318.15 235.15C318.207 236.254 318.525 237.329 319.078 238.287C319.631 239.245 320.402 240.058 321.33 240.66L322.55 241.41C323.447 241.862 324.429 242.12 325.432 242.164C326.435 242.209 327.437 242.041 328.37 241.67C326.87 242.23 325.73 241.39 325.73 239.57V225C325.765 223.891 326.085 222.809 326.66 221.86L319.08 217.44C318.507 218.386 318.187 219.464 318.15 220.57V235.15Z" fill="black"/>
<path opacity="0.5" d="M375.26 195.4C374.89 194.05 373.65 193.62 372.18 194.46L328.91 219.46C327.965 220.035 327.191 220.854 326.67 221.83L319.09 217.42C319.62 216.448 320.391 215.628 321.33 215.04L364.59 190.04C365.578 189.542 366.669 189.282 367.775 189.282C368.881 189.282 369.972 189.542 370.96 190.04L372.18 190.79C372.976 191.313 373.659 191.99 374.189 192.782C374.718 193.574 375.082 194.464 375.26 195.4Z" fill="white"/>
<path d="M331.64 234.69C331.261 234.839 330.839 234.839 330.46 234.69C330.388 234.637 330.331 234.568 330.292 234.488C330.254 234.407 330.236 234.319 330.24 234.23C330.254 233.848 330.339 233.471 330.49 233.12C330.586 232.797 330.782 232.513 331.05 232.31C331.185 232.249 331.332 232.221 331.48 232.23H331.91C332.318 232.21 332.716 232.094 333.07 231.89C333.419 231.689 333.728 231.424 333.98 231.11C334.237 230.809 334.375 230.425 334.37 230.03C334.384 229.793 334.313 229.559 334.17 229.37C334.034 229.239 333.858 229.158 333.67 229.14C333.387 229.118 333.103 229.118 332.82 229.14C332.165 229.208 331.508 229.045 330.96 228.68C330.74 228.429 330.575 228.135 330.477 227.816C330.378 227.497 330.349 227.161 330.39 226.83C330.412 225.77 330.762 224.743 331.39 223.89C332.058 222.925 332.937 222.125 333.96 221.55C334.343 221.323 334.753 221.145 335.18 221.02C335.499 220.9 335.84 220.853 336.18 220.88C336.39 220.88 336.49 221.04 336.49 221.29C336.473 221.631 336.405 221.968 336.29 222.29C336.224 222.595 336.055 222.867 335.81 223.06C335.654 223.132 335.489 223.182 335.32 223.21C334.935 223.274 334.563 223.402 334.22 223.59C333.848 223.78 333.531 224.062 333.3 224.41C333.145 224.649 333.055 224.925 333.04 225.21C333.04 225.63 333.15 225.88 333.37 225.98C333.693 226.08 334.032 226.121 334.37 226.1H334.76C335.36 226.046 335.959 226.217 336.44 226.58C336.637 226.823 336.783 227.103 336.871 227.404C336.958 227.704 336.985 228.019 336.95 228.33C336.944 229.016 336.809 229.695 336.55 230.33C336.256 231.061 335.84 231.737 335.32 232.33C334.733 232.995 334.04 233.56 333.27 234C332.758 234.299 332.211 234.531 331.64 234.69Z" fill="white"/>
<path d="M338.13 230.54V219.74C338.13 219.38 338.46 219.01 339.13 218.64L339.84 218.23C340.48 217.86 340.84 217.85 340.84 218.23V222.4L343.73 220.73V216.56C343.73 216.2 344.06 215.84 344.73 215.46L345.42 215.06C346.07 214.68 346.42 214.68 346.42 215.06V225.87C346.42 226.23 346.09 226.59 345.42 226.97L344.73 227.37C344.08 227.75 343.73 227.75 343.73 227.37V222.97L340.84 224.64V229C340.84 229.36 340.52 229.73 339.84 230.1L339.13 230.51C338.46 230.89 338.13 230.9 338.13 230.54Z" fill="white"/>
<path d="M347.33 225.4C347.335 225.289 347.352 225.178 347.38 225.07L349.98 212.83C350.06 212.47 350.4 212.12 350.98 211.77L352.08 211.13C352.7 210.78 353.08 210.73 353.08 211L355.68 220.23C355.68 220.38 355.68 220.47 355.68 220.52C355.68 220.77 355.43 221.03 354.95 221.31L354.06 221.83C353.52 222.14 353.22 222.19 353.16 221.99L352.72 220.18L350.16 221.66L349.7 223.98C349.7 224.25 349.39 224.52 348.91 224.8L348.03 225.3C347.6 225.62 347.33 225.65 347.33 225.4ZM352.55 218.29L351.79 215.15C351.71 214.79 351.64 214.4 351.58 213.98L351.5 214.03C351.44 214.51 351.38 214.98 351.3 215.43L350.55 219.43L352.55 218.29Z" fill="white"/>
<path d="M356.73 219.8V209.17C356.723 208.959 356.779 208.75 356.89 208.57C357.025 208.378 357.203 208.22 357.41 208.11L360.22 206.48C360.943 205.957 361.833 205.719 362.72 205.81C363.35 205.95 363.67 206.63 363.67 207.81C363.626 209.224 363.051 210.57 362.06 211.58V211.65C362.187 211.649 362.313 211.675 362.43 211.725C362.547 211.774 362.652 211.848 362.74 211.94C362.947 212.151 363.101 212.408 363.19 212.69L364.19 215.35L364.24 215.53C364.24 215.83 363.89 216.18 363.19 216.58L362.6 216.93C362.01 217.27 361.67 217.31 361.6 217.06L360.71 214.37C360.679 214.293 360.631 214.224 360.571 214.167C360.51 214.11 360.439 214.067 360.36 214.04C360.136 214.044 359.92 214.117 359.74 214.25L359.34 214.48V218.29C359.34 218.65 359 219.03 358.34 219.42L357.76 219.75C357.07 220.15 356.73 220.16 356.73 219.8ZM360.27 211.48C360.551 211.301 360.774 211.044 360.91 210.74C361.092 210.356 361.181 209.935 361.17 209.51C361.17 209.04 361.08 208.75 360.91 208.63C360.802 208.572 360.679 208.546 360.556 208.557C360.433 208.567 360.317 208.614 360.22 208.69L359.33 209.21V212L360.27 211.48Z" fill="white"/>
<path d="M365.59 215C365.49 215 365.44 214.8 365.44 214.57V204.15C365.433 203.937 365.485 203.726 365.59 203.54C365.709 203.36 365.871 203.213 366.06 203.11L371.06 200.24C371.23 200.14 371.35 200.13 371.43 200.24C371.531 200.415 371.574 200.619 371.55 200.82V201.34C371.559 201.582 371.518 201.824 371.43 202.05C371.355 202.226 371.225 202.373 371.06 202.47L368.06 204.18V206.63L370.69 205.11C370.86 205.01 370.99 205.01 371.06 205.11C371.161 205.282 371.203 205.482 371.18 205.68V206.2C371.19 206.442 371.149 206.684 371.06 206.91C370.988 207.088 370.858 207.236 370.69 207.33L368.06 208.85V211.58L371.06 209.86C371.23 209.76 371.35 209.76 371.42 209.86C371.511 210.039 371.549 210.24 371.53 210.44V210.96C371.536 211.201 371.499 211.442 371.42 211.67C371.349 211.843 371.222 211.987 371.06 212.08L366.06 214.96C365.989 215 365.91 215.024 365.829 215.031C365.748 215.038 365.667 215.027 365.59 215Z" fill="white"/>
<path d="M305 213.5L300.69 202.45L304.16 192.45V186.32L293.55 192.45V198.57L298.11 209.42C298.182 209.543 298.29 209.641 298.42 209.7L305 213.5Z" fill="#90CAF9"/>
<path opacity="0.2" d="M305 213.5L300.69 202.45L304.16 192.45V186.32L293.55 192.45V198.57L298.11 209.42C298.182 209.543 298.29 209.641 298.42 209.7L305 213.5Z" fill="black"/>
<path d="M333.92 164.62C333.863 163.516 333.545 162.441 332.992 161.483C332.439 160.525 331.668 159.712 330.74 159.11L329.52 158.36C328.534 157.862 327.445 157.602 326.34 157.602C325.235 157.602 324.146 157.862 323.16 158.36L273.23 187.19C272.302 187.792 271.531 188.605 270.978 189.563C270.425 190.521 270.107 191.596 270.05 192.7V207.31C270.111 208.415 270.431 209.49 270.983 210.448C271.535 211.407 272.305 212.223 273.23 212.83L274.45 213.57C275.435 214.072 276.525 214.334 277.63 214.334C278.735 214.334 279.825 214.072 280.81 213.57L300.16 202.42L304.72 213.26C304.786 213.372 304.882 213.464 304.998 213.523C305.114 213.582 305.244 213.607 305.373 213.594C305.503 213.582 305.626 213.532 305.728 213.452C305.83 213.371 305.907 213.263 305.95 213.14L310.76 196.3L330.76 184.75C331.688 184.148 332.459 183.335 333.012 182.377C333.565 181.419 333.883 180.344 333.94 179.24L333.92 164.62Z" fill="#90CAF9"/>
<path opacity="0.2" d="M270.05 207.31C270.111 208.415 270.431 209.49 270.983 210.448C271.535 211.407 272.305 212.223 273.23 212.83L274.45 213.57C275.347 214.022 276.329 214.28 277.332 214.324C278.335 214.369 279.337 214.201 280.27 213.83C278.77 214.4 277.63 213.55 277.63 211.74V197.12C277.67 196.012 277.99 194.931 278.56 193.98L271 189.56C270.43 190.511 270.11 191.592 270.07 192.7L270.05 207.31Z" fill="black"/>
<path opacity="0.5" d="M333.82 163.72C333.45 162.37 332.21 161.94 330.74 162.78L280.81 191.61C279.867 192.192 279.094 193.013 278.57 193.99L271 189.57C271.533 188.597 272.308 187.777 273.25 187.19L323.16 158.36C324.148 157.862 325.239 157.602 326.345 157.602C327.451 157.602 328.542 157.862 329.53 158.36L330.75 159.11C331.546 159.632 332.228 160.309 332.756 161.101C333.284 161.894 333.645 162.784 333.82 163.72Z" fill="white"/>
<path d="M282.81 205.93V196.36C282.803 196.167 282.851 195.976 282.95 195.81C283.057 195.649 283.201 195.515 283.37 195.42L287.55 193.01C287.7 192.92 287.81 192.92 287.88 193.01C287.971 193.167 288.01 193.349 287.99 193.53V194C287.996 194.218 287.958 194.436 287.88 194.64C287.813 194.796 287.697 194.925 287.55 195.01L285.18 196.38V198.6L287.41 197.31C287.56 197.22 287.67 197.22 287.75 197.31C287.836 197.465 287.871 197.644 287.85 197.82V198.29C287.86 198.508 287.826 198.726 287.75 198.93C287.679 199.089 287.56 199.222 287.41 199.31L285.18 200.6V204.6C285.18 204.92 284.88 205.25 284.3 205.6L283.69 205.95C283.1 206.24 282.81 206.25 282.81 205.93Z" fill="white"/>
<path d="M289 197.52C289 193.9 290.32 191.32 293 189.78C294.29 189.04 295.28 188.91 295.95 189.4C296.62 189.89 296.95 191.07 296.95 192.93C297.004 194.555 296.66 196.168 295.95 197.63C295.271 198.89 294.248 199.93 293 200.63C290.27 202.19 289 201.15 289 197.52ZM293.87 197.85C294.122 197.44 294.292 196.985 294.37 196.51C294.494 195.787 294.551 195.054 294.54 194.32C294.56 193.649 294.503 192.978 294.37 192.32C294.26 191.89 294.09 191.63 293.87 191.56C293.718 191.529 293.56 191.531 293.409 191.566C293.257 191.6 293.114 191.666 292.99 191.76C292.635 191.962 292.331 192.243 292.1 192.58C291.839 192.99 291.665 193.45 291.59 193.93C291.457 194.649 291.397 195.379 291.41 196.11C291.387 196.782 291.447 197.453 291.59 198.11C291.7 198.55 291.87 198.8 292.1 198.87C292.255 198.897 292.413 198.892 292.566 198.856C292.719 198.819 292.863 198.753 292.99 198.66C293.325 198.457 293.609 198.18 293.82 197.85H293.87Z" fill="white"/>
<path d="M298.47 197.19C298.38 197.19 298.33 197.02 298.33 196.81V187.24C298.33 186.92 298.63 186.58 299.22 186.24L299.82 185.88C300.41 185.54 300.7 185.54 300.7 185.88V194.07L302.97 192.76C303.13 192.67 303.25 192.66 303.32 192.76C303.406 192.919 303.441 193.101 303.42 193.28V193.75C303.429 193.968 303.395 194.185 303.32 194.39C303.249 194.552 303.125 194.686 302.97 194.77L298.9 197.12C298.7 197.21 298.56 197.24 298.47 197.19Z" fill="white"/>
<path d="M304.67 193.62C304.58 193.57 304.53 193.45 304.53 193.23V183.66C304.53 183.34 304.83 183.01 305.41 182.66L306.02 182.31C306.61 181.97 306.9 181.96 306.9 182.31V190.5L309.17 189.2C309.33 189.1 309.44 189.09 309.52 189.2C309.606 189.355 309.641 189.534 309.62 189.71V190.18C309.63 190.398 309.596 190.616 309.52 190.82C309.443 190.981 309.321 191.116 309.17 191.21L305.1 193.55C304.9 193.63 304.76 193.66 304.67 193.62Z" fill="white"/>
<path d="M310.14 185.29C310.14 181.663 311.473 179.083 314.14 177.55C315.44 176.8 316.42 176.67 317.09 177.17C317.76 177.67 318.09 178.84 318.09 180.7C318.149 182.325 317.805 183.94 317.09 185.4C316.414 186.662 315.39 187.703 314.14 188.4C311.48 189.953 310.147 188.917 310.14 185.29ZM315.02 185.61C315.273 185.201 315.443 184.745 315.52 184.27C315.64 183.55 315.694 182.82 315.68 182.09C315.704 181.419 315.65 180.748 315.52 180.09C315.41 179.65 315.24 179.4 315.02 179.32C314.865 179.294 314.707 179.299 314.554 179.335C314.401 179.371 314.257 179.438 314.13 179.53C313.779 179.729 313.478 180.006 313.25 180.34C312.991 180.756 312.815 181.218 312.73 181.7C312.597 182.415 312.537 183.142 312.55 183.87C312.527 184.542 312.587 185.213 312.73 185.87C312.85 186.31 313.02 186.57 313.25 186.64C313.403 186.666 313.56 186.661 313.712 186.625C313.863 186.589 314.005 186.523 314.13 186.43C314.48 186.228 314.778 185.947 315 185.61H315.02Z" fill="white"/>
<path d="M320.7 184.46C320.678 184.468 320.655 184.47 320.632 184.468C320.609 184.465 320.587 184.457 320.568 184.444C320.548 184.432 320.532 184.415 320.521 184.395C320.509 184.375 320.502 184.353 320.5 184.33L318.5 175.73C318.495 175.687 318.495 175.643 318.5 175.6C318.504 175.567 318.504 175.533 318.5 175.5C318.5 175.24 318.8 174.93 319.4 174.59L319.84 174.33C320.44 173.98 320.77 173.95 320.84 174.24L321.55 179.44L321.69 180.44L321.83 181.55L322.1 179.55C322.135 179.392 322.158 179.231 322.17 179.07L323.1 172.77C323.12 172.635 323.187 172.511 323.29 172.42C323.449 172.27 323.627 172.142 323.82 172.04L324.58 171.6C324.74 171.496 324.916 171.419 325.1 171.37C325.21 171.37 325.27 171.37 325.29 171.51L326.2 176.74L326.54 178.88L326.75 177.13L326.84 176.38L327.57 170.38C327.57 170.04 327.93 169.7 328.57 169.38L328.92 169.17C329.52 168.83 329.82 168.79 329.82 169.05C329.826 169.13 329.826 169.21 329.82 169.29L327.82 180.21C327.82 180.44 327.54 180.69 327.11 180.94L326.11 181.52C325.71 181.75 325.48 181.78 325.43 181.59L324.43 176.83L324.26 175.3L324 177L322.95 183C322.95 183.23 322.68 183.47 322.27 183.71L321.27 184.29C321.092 184.382 320.899 184.44 320.7 184.46Z" fill="white"/>
<path d="M215.33 137.21L257.33 112.96C257.48 112.844 257.665 112.781 257.855 112.781C258.045 112.781 258.23 112.844 258.38 112.96C258.63 113.16 261 114.41 261.26 114.6C261.417 114.741 261.539 114.916 261.615 115.112C261.692 115.309 261.721 115.52 261.7 115.73V153.53C261.692 154.073 261.557 154.606 261.305 155.088C261.053 155.569 260.692 155.984 260.25 156.3L252.88 160.56L214.33 138.31C214.559 137.86 214.904 137.481 215.33 137.21Z" fill="#90CAF9"/>
<path opacity="0.5" d="M215.33 137.21L257.33 112.96C257.48 112.844 257.665 112.781 257.855 112.781C258.045 112.781 258.23 112.844 258.38 112.96C258.63 113.16 261 114.41 261.26 114.6C261.417 114.741 261.539 114.916 261.615 115.112C261.692 115.309 261.721 115.52 261.7 115.73V153.53C261.692 154.073 261.557 154.606 261.305 155.088C261.053 155.569 260.692 155.984 260.25 156.3L252.88 160.56L214.33 138.31C214.559 137.86 214.904 137.481 215.33 137.21Z" fill="white"/>
<path d="M217.28 180.61C216.99 180.42 214.6 179.1 214.34 178.92C214.177 178.781 214.05 178.605 213.97 178.406C213.89 178.208 213.859 177.993 213.88 177.78V140C213.894 139.414 214.052 138.841 214.34 138.33L252.89 160.58L218.26 180.58C218.117 180.679 217.948 180.735 217.774 180.74C217.601 180.745 217.429 180.7 217.28 180.61Z" fill="#90CAF9"/>
<path opacity="0.2" d="M217.28 180.61C216.99 180.42 214.6 179.1 214.34 178.92C214.177 178.781 214.05 178.605 213.97 178.406C213.89 178.208 213.859 177.993 213.88 177.78V140C213.894 139.414 214.052 138.841 214.34 138.33L252.89 160.58L218.26 180.58C218.117 180.679 217.948 180.735 217.774 180.74C217.601 180.745 217.429 180.7 217.28 180.61Z" fill="black"/>
<path d="M218.26 180.55L260.26 156.3C260.702 155.984 261.063 155.569 261.315 155.088C261.567 154.606 261.702 154.073 261.71 153.53V115.73C261.71 114.67 261.06 114.18 260.26 114.64L218.26 138.89C217.818 139.206 217.457 139.621 217.205 140.102C216.953 140.584 216.818 141.117 216.81 141.66V179.46C216.81 180.52 217.46 181 218.26 180.55Z" fill="#90CAF9"/>
<path opacity="0.2" d="M216.81 179.46V178.71L234.18 149.93L217 140.43L217.13 140.12L238.52 149C238.97 149.18 239.52 148.85 240.01 148.14L261.34 114.62C261.388 114.666 261.432 114.716 261.47 114.77L244.35 144.03L261.71 152.76V153.5C261.7 154.095 261.553 154.681 261.28 155.21L243.47 145.54L240.94 149.85C239.94 151.56 238.58 152.35 237.58 151.79L235.06 150.39L217.28 180.58C217.12 180.443 216.994 180.27 216.912 180.076C216.83 179.881 216.795 179.67 216.81 179.46Z" fill="black"/>
<path d="M225.76 143.34L267.76 119.09C267.913 118.976 268.099 118.915 268.29 118.915C268.481 118.915 268.667 118.976 268.82 119.09C269.06 119.3 271.44 120.55 271.7 120.73C271.857 120.873 271.979 121.05 272.055 121.248C272.132 121.446 272.161 121.659 272.14 121.87V159.67C272.13 160.213 271.993 160.745 271.742 161.226C271.49 161.707 271.13 162.122 270.69 162.44L263.31 166.69L224.77 144.44C224.999 143.993 225.34 143.614 225.76 143.34Z" fill="#90CAF9"/>
<path opacity="0.5" d="M225.76 143.34L267.76 119.09C267.913 118.976 268.099 118.915 268.29 118.915C268.481 118.915 268.667 118.976 268.82 119.09C269.06 119.3 271.44 120.55 271.7 120.73C271.857 120.873 271.979 121.05 272.055 121.248C272.132 121.446 272.161 121.659 272.14 121.87V159.67C272.13 160.213 271.993 160.745 271.742 161.226C271.49 161.707 271.13 162.122 270.69 162.44L263.31 166.69L224.77 144.44C224.999 143.993 225.34 143.614 225.76 143.34Z" fill="white"/>
<path d="M227.7 186.74C227.42 186.56 225.03 185.23 224.77 185.06C224.606 184.919 224.479 184.742 224.399 184.541C224.319 184.341 224.289 184.125 224.31 183.91V146.11C224.327 145.524 224.485 144.952 224.77 144.44L263.31 166.69L228.69 186.69C228.547 186.792 228.378 186.851 228.202 186.86C228.027 186.869 227.853 186.827 227.7 186.74Z" fill="#90CAF9"/>
<path opacity="0.2" d="M227.7 186.74C227.42 186.56 225.03 185.23 224.77 185.06C224.606 184.919 224.479 184.742 224.399 184.541C224.319 184.341 224.289 184.125 224.31 183.91V146.11C224.327 145.524 224.485 144.952 224.77 144.44L263.31 166.69L228.69 186.69C228.547 186.792 228.378 186.851 228.202 186.86C228.027 186.869 227.853 186.827 227.7 186.74Z" fill="black"/>
<path d="M228.69 186.69L270.69 162.44C271.13 162.122 271.49 161.707 271.742 161.226C271.993 160.745 272.13 160.213 272.14 159.67V121.87C272.14 120.8 271.49 120.31 270.69 120.77L228.69 145.02C228.25 145.338 227.89 145.753 227.639 146.234C227.387 146.715 227.25 147.247 227.24 147.79V185.59C227.24 186.66 227.89 187.15 228.69 186.69Z" fill="#90CAF9"/>
<path opacity="0.2" d="M227.24 185.59V184.85L244.6 156.07L227.46 146.57C227.497 146.464 227.541 146.361 227.59 146.26L248.94 155.16C249.4 155.35 249.94 155.01 250.43 154.3L271.76 120.79C271.811 120.829 271.855 120.876 271.89 120.93L254.78 150.2L272.14 158.92V159.67C272.132 160.264 271.981 160.847 271.7 161.37L253.89 151.7L251.37 156C250.37 157.71 249.01 158.5 248.01 158L245.48 156.6L227.7 186.74C227.539 186.597 227.414 186.419 227.334 186.22C227.254 186.02 227.222 185.804 227.24 185.59Z" fill="black"/>
<path d="M236.18 149.48L278.18 125.23C278.333 125.115 278.519 125.052 278.71 125.052C278.901 125.052 279.087 125.115 279.24 125.23C279.48 125.43 281.85 126.68 282.11 126.87C282.269 127.009 282.392 127.184 282.469 127.381C282.545 127.578 282.573 127.79 282.55 128V165.8C282.544 166.343 282.41 166.878 282.158 167.359C281.906 167.841 281.543 168.256 281.1 168.57L273.73 172.83L235.18 150.58C235.409 150.13 235.754 149.751 236.18 149.48Z" fill="#90CAF9"/>
<path opacity="0.5" d="M236.18 149.48L278.18 125.23C278.333 125.115 278.519 125.052 278.71 125.052C278.901 125.052 279.087 125.115 279.24 125.23C279.48 125.43 281.85 126.68 282.11 126.87C282.269 127.009 282.392 127.184 282.469 127.381C282.545 127.578 282.573 127.79 282.55 128V165.8C282.544 166.343 282.41 166.878 282.158 167.359C281.906 167.841 281.543 168.256 281.1 168.57L273.73 172.83L235.18 150.58C235.409 150.13 235.754 149.751 236.18 149.48Z" fill="white"/>
<path d="M238.13 192.88C237.84 192.69 235.45 191.37 235.19 191.19C235.027 191.051 234.9 190.875 234.82 190.676C234.74 190.478 234.709 190.263 234.73 190.05V152.25C234.744 151.664 234.902 151.091 235.19 150.58L273.74 172.83L239.11 192.83C238.969 192.932 238.801 192.991 238.627 193C238.453 193.009 238.281 192.967 238.13 192.88Z" fill="#90CAF9"/>
<path opacity="0.2" d="M238.13 192.88C237.84 192.69 235.45 191.37 235.19 191.19C235.027 191.051 234.9 190.875 234.82 190.676C234.74 190.478 234.709 190.263 234.73 190.05V152.25C234.744 151.664 234.902 151.091 235.19 150.58L273.74 172.83L239.11 192.83C238.969 192.932 238.801 192.991 238.627 193C238.453 193.009 238.281 192.967 238.13 192.88Z" fill="black"/>
<path d="M239.11 192.82L281.11 168.57C281.553 168.256 281.916 167.841 282.168 167.359C282.42 166.878 282.554 166.343 282.56 165.8V128C282.56 126.94 281.92 126.45 281.11 126.91L239.11 151.16C238.668 151.476 238.307 151.891 238.055 152.372C237.804 152.854 237.668 153.387 237.66 153.93V191.73C237.66 192.79 238.31 193.28 239.11 192.82Z" fill="#90CAF9"/>
<path opacity="0.2" d="M237.66 191.73V191L255 162.2L237.85 152.7L237.98 152.39L259.34 161.3C259.79 161.48 260.34 161.15 260.83 160.44L282.16 126.92C282.206 126.964 282.249 127.011 282.29 127.06L265.2 156.33L282.56 165.06V165.8C282.549 166.395 282.402 166.98 282.13 167.51L264.32 157.84L261.8 162.15C260.8 163.86 259.43 164.65 258.43 164.09L255.91 162.69L238.13 192.88C237.965 192.74 237.837 192.562 237.755 192.362C237.673 192.162 237.641 191.945 237.66 191.73Z" fill="black"/>
<path d="M419.31 336.84L299.63 405.93C297.738 407.023 295.6 407.618 293.416 407.66C291.232 407.702 289.072 407.189 287.14 406.17L46.19 267C42.39 264.81 39.31 259.91 39.31 256C39.31 252.09 42.39 247.25 46.18 245.05L165.43 176.3C167.561 175.225 169.914 174.665 172.3 174.665C174.686 174.665 177.039 175.225 179.17 176.3L419.31 315C423.11 317.19 426.19 322.09 426.19 325.95C426.19 329.81 423.11 334.65 419.31 336.84Z" fill="#90CAF9"/>
<path opacity="0.5" d="M165.43 176.3L46.18 245.14C42.39 247.34 39.31 252.24 39.31 256.09C39.31 259.94 42.39 264.85 46.19 267.09L287.19 406.22C289.048 407.171 291.102 407.678 293.19 407.7V242.09L179.19 176.3C177.057 175.222 174.7 174.66 172.31 174.66C169.92 174.66 167.563 175.222 165.43 176.3Z" fill="black"/>
<path opacity="0.4" d="M299.63 405.93L419.31 336.84C423.11 334.65 426.19 329.75 426.19 325.9C426.19 322.05 423.11 317.14 419.31 314.95L293.12 242.09V407.65C295.405 407.673 297.654 407.079 299.63 405.93Z" fill="black"/>
<path d="M296.78 393.62C294.902 394.572 292.826 395.067 290.72 395.067C288.614 395.067 286.538 394.572 284.66 393.62L46.16 255.92C41.03 252.92 41.03 248.12 46.16 245.16L165.42 176.3C167.551 175.225 169.904 174.665 172.29 174.665C174.676 174.665 177.029 175.225 179.16 176.3L419.3 315C423.08 317.18 423.08 320.75 419.3 322.93L296.78 393.62Z" fill="#90CAF9"/>
<path opacity="0.3" d="M296.78 393.62C294.902 394.572 292.826 395.067 290.72 395.067C288.614 395.067 286.538 394.572 284.66 393.62L46.16 255.92C41.03 252.92 41.03 248.12 46.16 245.16L165.42 176.3C167.551 175.225 169.904 174.665 172.29 174.665C174.676 174.665 177.029 175.225 179.16 176.3L419.3 315C423.08 317.18 423.08 320.75 419.3 322.93L296.78 393.62Z" fill="black"/>
<path d="M285.2 379.76C283.176 380.785 280.939 381.32 278.67 381.32C276.401 381.32 274.164 380.785 272.14 379.76L66.91 261.27C63.3 259.19 63.3 255.81 66.91 253.73L179.1 189C181.125 187.979 183.362 187.448 185.63 187.448C187.898 187.448 190.135 187.979 192.16 189L397.39 307.45C400.98 309.52 400.98 312.92 397.39 314.99L285.2 379.76Z" fill="#37474F"/>
<path d="M185.23 187.43C183.089 187.444 180.984 187.983 179.1 189L66.91 253.73C63.3 255.81 63.3 259.19 66.91 261.27L89.15 274.11L185.23 212.75V187.43Z" fill="#263238"/>
<path d="M192.24 193.86C190.215 192.839 187.978 192.308 185.71 192.308C183.442 192.308 181.205 192.839 179.18 193.86L67 258.63C66.3518 258.984 65.7698 259.447 65.28 260C65.7585 260.501 66.3076 260.928 66.91 261.27L272.14 379.76C274.164 380.785 276.401 381.32 278.67 381.32C280.939 381.32 283.176 380.785 285.2 379.76L397.39 315C398.024 314.646 398.595 314.19 399.08 313.65C398.615 313.138 398.071 312.702 397.47 312.36L192.24 193.86Z" fill="#455A64"/>
<path d="M107.92 223.43L127.8 212C128.99 211.32 129.05 210.24 127.93 209.6C127.279 209.285 126.563 209.128 125.84 209.142C125.117 209.155 124.408 209.34 123.77 209.68L103.89 221.16C102.7 221.84 102.64 222.92 103.76 223.56C104.415 223.868 105.133 224.016 105.856 223.994C106.579 223.971 107.286 223.778 107.92 223.43Z" fill="#37474F"/>
<path d="M142.06 203.75C142.304 203.668 142.515 203.511 142.665 203.302C142.815 203.093 142.895 202.842 142.895 202.585C142.895 202.328 142.815 202.077 142.665 201.868C142.515 201.659 142.304 201.502 142.06 201.42C141.439 201.109 140.754 200.948 140.06 200.948C139.366 200.948 138.681 201.109 138.06 201.42C137.816 201.502 137.605 201.659 137.455 201.868C137.305 202.077 137.225 202.328 137.225 202.585C137.225 202.842 137.305 203.093 137.455 203.302C137.605 203.511 137.816 203.668 138.06 203.75C138.681 204.061 139.366 204.222 140.06 204.222C140.754 204.222 141.439 204.061 142.06 203.75Z" fill="#37474F"/>
<path d="M150.12 199.09C150.364 199.008 150.575 198.851 150.725 198.642C150.875 198.433 150.955 198.182 150.955 197.925C150.955 197.668 150.875 197.417 150.725 197.208C150.575 196.999 150.364 196.842 150.12 196.76C149.499 196.449 148.814 196.288 148.12 196.288C147.426 196.288 146.741 196.449 146.12 196.76C145.876 196.842 145.665 196.999 145.515 197.208C145.365 197.417 145.285 197.668 145.285 197.925C145.285 198.182 145.365 198.433 145.515 198.642C145.665 198.851 145.876 199.008 146.12 199.09C146.741 199.401 147.426 199.562 148.12 199.562C148.814 199.562 149.499 199.401 150.12 199.09Z" fill="#37474F"/>
<path d="M85.64 236.32C85.8836 236.238 86.0951 236.081 86.245 235.872C86.3949 235.663 86.4754 235.412 86.4754 235.155C86.4754 234.898 86.3949 234.647 86.245 234.438C86.0951 234.229 85.8836 234.072 85.64 233.99C85.0191 233.679 84.3343 233.518 83.64 233.518C82.9457 233.518 82.2609 233.679 81.64 233.99C81.3964 234.072 81.1849 234.229 81.035 234.438C80.8852 234.647 80.8046 234.898 80.8046 235.155C80.8046 235.412 80.8852 235.663 81.035 235.872C81.1849 236.081 81.3964 236.238 81.64 236.32C82.2609 236.631 82.9457 236.792 83.64 236.792C84.3343 236.792 85.0191 236.631 85.64 236.32Z" fill="#37474F"/>
<path d="M93.7 231.66C93.9436 231.578 94.1551 231.421 94.305 231.212C94.4549 231.003 94.5355 230.752 94.5355 230.495C94.5355 230.238 94.4549 229.987 94.305 229.778C94.1551 229.569 93.9436 229.412 93.7 229.33C93.0791 229.019 92.3943 228.858 91.7 228.858C91.0057 228.858 90.3209 229.019 89.7 229.33C89.4564 229.412 89.2449 229.569 89.095 229.778C88.9452 229.987 88.8646 230.238 88.8646 230.495C88.8646 230.752 88.9452 231.003 89.095 231.212C89.2449 231.421 89.4564 231.578 89.7 231.66C90.3209 231.971 91.0057 232.132 91.7 232.132C92.3943 232.132 93.0791 231.971 93.7 231.66Z" fill="#37474F"/>
<path d="M121.77 302.8C122.383 303.182 122.898 303.704 123.271 304.323C123.645 304.941 123.867 305.639 123.92 306.36C123.943 306.604 123.901 306.849 123.797 307.07C123.693 307.292 123.532 307.482 123.33 307.62L121.82 308.49C121.569 308.599 121.294 308.641 121.022 308.611C120.751 308.581 120.491 308.481 120.27 308.32L92.33 292.18C91.7167 291.798 91.2023 291.276 90.8287 290.657C90.4551 290.039 90.2328 289.341 90.18 288.62C90.1578 288.386 90.1957 288.15 90.2902 287.935C90.3847 287.72 90.5327 287.532 90.72 287.39C90.99 287.22 92.01 286.64 92.27 286.49C92.5225 286.381 92.799 286.339 93.0724 286.369C93.3459 286.399 93.6069 286.499 93.83 286.66L121.77 302.8Z" fill="#90CAF9"/>
<path opacity="0.4" d="M121.77 302.8C122.383 303.182 122.898 303.704 123.271 304.323C123.645 304.941 123.867 305.639 123.92 306.36C123.943 306.604 123.901 306.849 123.797 307.07C123.693 307.292 123.532 307.482 123.33 307.62L121.82 308.49C121.569 308.599 121.294 308.641 121.022 308.611C120.751 308.581 120.491 308.481 120.27 308.32L92.33 292.18C91.7167 291.798 91.2023 291.276 90.8287 290.657C90.4551 290.039 90.2328 289.341 90.18 288.62C90.1578 288.386 90.1957 288.15 90.2902 287.935C90.3847 287.72 90.5327 287.532 90.72 287.39C90.99 287.22 92.01 286.64 92.27 286.49C92.5225 286.381 92.799 286.339 93.0724 286.369C93.3459 286.399 93.6069 286.499 93.83 286.66L121.77 302.8Z" fill="black"/>
<path d="M120.27 303.66L92.33 287.53C91.14 286.84 90.18 287.33 90.18 288.62C90.2328 289.341 90.4551 290.039 90.8287 290.657C91.2023 291.276 91.7167 291.798 92.33 292.18L120.27 308.32C121.46 309 122.42 308.51 122.42 307.23C122.368 306.508 122.146 305.808 121.772 305.188C121.399 304.567 120.884 304.044 120.27 303.66Z" fill="#90CAF9"/>
<path opacity="0.3" d="M120.27 303.66L92.33 287.53C91.14 286.84 90.18 287.33 90.18 288.62C90.2328 289.341 90.4551 290.039 90.8287 290.657C91.2023 291.276 91.7167 291.798 92.33 292.18L120.27 308.32C121.46 309 122.42 308.51 122.42 307.23C122.368 306.508 122.146 305.808 121.772 305.188C121.399 304.567 120.884 304.044 120.27 303.66Z" fill="black"/>
<path d="M84.37 281.2C84.9811 281.586 85.4931 282.11 85.8648 282.73C86.2365 283.35 86.4575 284.049 86.51 284.77C86.5368 285.013 86.4958 285.258 86.3917 285.478C86.2875 285.699 86.1243 285.887 85.92 286.02C85.66 286.16 84.69 286.75 84.42 286.9C84.1678 287.005 83.8929 287.043 83.6216 287.012C83.3502 286.98 83.0915 286.88 82.87 286.72L69.7 279.11C69.0867 278.728 68.5723 278.206 68.1987 277.587C67.8251 276.969 67.6028 276.271 67.55 275.55C67.5278 275.316 67.5657 275.08 67.6602 274.865C67.7547 274.65 67.9027 274.462 68.09 274.32L69.64 273.42C69.8912 273.31 70.167 273.269 70.4393 273.301C70.7116 273.332 70.9706 273.436 71.19 273.6L84.37 281.2Z" fill="#90CAF9"/>
<path opacity="0.4" d="M84.37 281.2C84.9811 281.586 85.4931 282.11 85.8648 282.73C86.2365 283.35 86.4575 284.049 86.51 284.77C86.5368 285.013 86.4958 285.258 86.3917 285.478C86.2875 285.699 86.1243 285.887 85.92 286.02C85.66 286.16 84.69 286.75 84.42 286.9C84.1678 287.005 83.8929 287.043 83.6216 287.012C83.3502 286.98 83.0915 286.88 82.87 286.72L69.7 279.11C69.0867 278.728 68.5723 278.206 68.1987 277.587C67.8251 276.969 67.6028 276.271 67.55 275.55C67.5278 275.316 67.5657 275.08 67.6602 274.865C67.7547 274.65 67.9027 274.462 68.09 274.32L69.64 273.42C69.8912 273.31 70.167 273.269 70.4393 273.301C70.7116 273.332 70.9706 273.436 71.19 273.6L84.37 281.2Z" fill="black"/>
<path d="M82.87 282.07L69.7 274.46C68.51 273.78 67.55 274.26 67.55 275.55C67.6028 276.271 67.825 276.969 68.1987 277.587C68.5723 278.206 69.0867 278.728 69.7 279.11L82.87 286.72C84.06 287.41 85.02 286.92 85.02 285.63C84.9672 284.909 84.7449 284.211 84.3713 283.593C83.9977 282.974 83.4833 282.452 82.87 282.07Z" fill="#90CAF9"/>
<path opacity="0.3" d="M82.87 282.07L69.7 274.46C68.51 273.78 67.55 274.26 67.55 275.55C67.6028 276.271 67.825 276.969 68.1987 277.587C68.5723 278.206 69.0867 278.728 69.7 279.11L82.87 286.72C84.06 287.41 85.02 286.92 85.02 285.63C84.9672 284.909 84.7449 284.211 84.3713 283.593C83.9977 282.974 83.4833 282.452 82.87 282.07Z" fill="black"/>
<path d="M232.17 326.78V327.59C232.206 328.291 232.406 328.973 232.753 329.583C233.1 330.192 233.586 330.712 234.17 331.1L277.68 356.22C278.309 356.54 279.004 356.708 279.71 356.708C280.416 356.708 281.111 356.54 281.74 356.22L353.79 314.62C354.376 314.233 354.862 313.714 355.209 313.104C355.557 312.494 355.756 311.811 355.79 311.11V310.3C355.754 309.599 355.554 308.917 355.207 308.307C354.86 307.698 354.374 307.178 353.79 306.79L310.28 281.67C309.651 281.35 308.956 281.182 308.25 281.182C307.544 281.182 306.849 281.35 306.22 281.67L234.17 323.27C233.584 323.657 233.098 324.176 232.751 324.786C232.403 325.396 232.204 326.079 232.17 326.78Z" fill="#90CAF9"/>
<path d="M232.17 326.78V327.59C232.206 328.291 232.406 328.973 232.753 329.583C233.1 330.192 233.586 330.712 234.17 331.1L277.68 356.22C278.309 356.54 279.004 356.708 279.71 356.708C280.416 356.708 281.111 356.54 281.74 356.22L353.79 314.62C354.376 314.233 354.862 313.714 355.209 313.104C355.557 312.494 355.756 311.811 355.79 311.11V310.3C355.754 309.599 355.554 308.917 355.207 308.307C354.86 307.698 354.374 307.178 353.79 306.79L310.28 281.67C309.651 281.35 308.956 281.182 308.25 281.182C307.544 281.182 306.849 281.35 306.22 281.67L234.17 323.27C233.584 323.657 233.098 324.176 232.751 324.786C232.403 325.396 232.204 326.079 232.17 326.78Z" fill="#90CAF9"/>
<path opacity="0.3" d="M353.82 306.79L310.31 281.67C309.681 281.35 308.986 281.182 308.28 281.182C307.574 281.182 306.879 281.35 306.25 281.67L279.74 297V356.74C280.438 356.75 281.126 356.581 281.74 356.25L353.79 314.65C354.376 314.263 354.862 313.744 355.209 313.134C355.557 312.524 355.756 311.841 355.79 311.14V310.33C355.762 309.627 355.569 308.94 355.227 308.325C354.885 307.71 354.403 307.184 353.82 306.79Z" fill="white"/>
<path opacity="0.15" d="M353.82 306.79L310.31 281.67C309.681 281.35 308.986 281.182 308.28 281.182C307.574 281.182 306.879 281.35 306.25 281.67L279.74 297V356.74C280.438 356.75 281.126 356.581 281.74 356.25L353.79 314.65C354.376 314.263 354.862 313.744 355.209 313.134C355.557 312.524 355.756 311.841 355.79 311.14V310.33C355.762 309.627 355.569 308.94 355.227 308.325C354.885 307.71 354.403 307.184 353.82 306.79Z" fill="black"/>
<path opacity="0.3" d="M279.74 297L234.2 323.3C233.614 323.687 233.128 324.206 232.781 324.816C232.433 325.426 232.234 326.109 232.2 326.81V327.62C232.236 328.321 232.436 329.003 232.783 329.613C233.13 330.222 233.616 330.742 234.2 331.13L277.71 356.25C278.324 356.582 279.012 356.751 279.71 356.74L279.74 297Z" fill="white"/>
<path opacity="0.2" d="M279.74 297L234.2 323.3C233.614 323.687 233.128 324.206 232.781 324.816C232.433 325.426 232.234 326.109 232.2 326.81V327.62C232.236 328.321 232.436 329.003 232.783 329.613C233.13 330.222 233.616 330.742 234.2 331.13L277.71 356.25C278.324 356.582 279.012 356.751 279.71 356.74L279.74 297Z" fill="black"/>
<path d="M270.74 346.71L234.2 325.61C233.953 325.53 233.737 325.373 233.585 325.163C233.432 324.953 233.349 324.7 233.349 324.44C233.349 324.18 233.432 323.927 233.585 323.717C233.737 323.507 233.953 323.35 234.2 323.27L306.25 281.67C306.879 281.35 307.574 281.182 308.28 281.182C308.986 281.182 309.681 281.35 310.31 281.67L353.82 306.79C354.067 306.87 354.283 307.027 354.435 307.237C354.588 307.447 354.671 307.7 354.671 307.96C354.671 308.22 354.588 308.473 354.435 308.683C354.283 308.893 354.067 309.05 353.82 309.13L341.87 316L337.68 318.42L281.77 350.7C281.141 351.02 280.446 351.188 279.74 351.188C279.034 351.188 278.339 351.02 277.71 350.7L274.17 348.65L270.74 346.71Z" fill="#90CAF9"/>
<path opacity="0.3" d="M270.74 346.71L234.2 325.61C233.953 325.53 233.737 325.373 233.585 325.163C233.432 324.953 233.349 324.7 233.349 324.44C233.349 324.18 233.432 323.927 233.585 323.717C233.737 323.507 233.953 323.35 234.2 323.27L306.25 281.67C306.879 281.35 307.574 281.182 308.28 281.182C308.986 281.182 309.681 281.35 310.31 281.67L353.82 306.79C354.067 306.87 354.283 307.027 354.435 307.237C354.588 307.447 354.671 307.7 354.671 307.96C354.671 308.22 354.588 308.473 354.435 308.683C354.283 308.893 354.067 309.05 353.82 309.13L341.87 316L337.68 318.42L281.77 350.7C281.141 351.02 280.446 351.188 279.74 351.188C279.034 351.188 278.339 351.02 277.71 350.7L274.17 348.65L270.74 346.71Z" fill="white"/>
<path opacity="0.15" d="M303.92 311.66L353.82 306.79L304.36 309.59L310.31 281.67C309.63 281.316 308.866 281.153 308.1 281.2L298.77 319L233.38 324.39C233.374 324.659 233.449 324.924 233.596 325.151C233.742 325.377 233.952 325.554 234.2 325.66L287 322.54L279.73 351.22L289 322.43L298 321.9C299.113 321.845 300.173 321.407 301 320.66C301.774 319.972 302.307 319.054 302.52 318.04L303.92 311.66Z" fill="black"/>
<path opacity="0.3" d="M249 323.05L298.79 318.95L300.57 311.81L301.57 307.81L308.15 281.17C307.502 281.179 306.864 281.34 306.29 281.64L270.29 302.44L234.29 323.24C234.077 323.339 233.891 323.488 233.748 323.674C233.605 323.86 233.51 324.079 233.47 324.31L243.47 323.49L249 323.05Z" fill="white"/>
<path d="M300 275.71C304.55 273.08 311.93 273.08 316.48 275.71C321.03 278.34 321.03 282.6 316.48 285.22C311.93 287.84 304.55 287.85 300 285.22C295.45 282.59 295.49 278.34 300 275.71Z" fill="#F28F8F"/>
<path d="M302.52 282C302.397 281.996 302.278 281.954 302.18 281.88C302.143 281.856 302.114 281.821 302.098 281.78C302.081 281.738 302.079 281.693 302.09 281.65L302.77 278.65C302.77 278.58 302.77 278.49 302.85 278.38C302.895 278.261 302.985 278.164 303.1 278.11L304.76 277.11C304.873 277.047 305.001 277.016 305.13 277.02C305.259 277.015 305.387 277.046 305.5 277.11L314.33 282.21C314.373 282.226 314.41 282.255 314.437 282.292C314.464 282.329 314.479 282.374 314.48 282.42C314.476 282.465 314.461 282.509 314.434 282.546C314.408 282.583 314.372 282.612 314.33 282.63L312.54 283.63C312.427 283.693 312.299 283.724 312.17 283.72C312.041 283.725 311.913 283.694 311.8 283.63L305.8 280.19L305.4 281.84C305.4 281.92 305.32 281.99 305.21 282.04C305.087 282.091 304.953 282.111 304.82 282.1L302.52 282Z" fill="#FAFAFA"/>
<path d="M190.64 310.33L222.87 291.73L244.87 297.18C245.343 297.296 245.84 297.263 246.294 297.086C246.748 296.909 247.136 296.597 247.406 296.191C247.676 295.786 247.815 295.307 247.803 294.82C247.791 294.333 247.629 293.862 247.34 293.47L239.08 282.35L271.3 263.74C273.68 262.36 273.68 260.11 271.3 258.74L206.85 221.5C205.507 220.825 204.024 220.473 202.52 220.473C201.016 220.473 199.533 220.825 198.19 221.5L117.52 268.12C115.14 269.49 115.14 271.74 117.52 273.12L182 310.33C183.339 311.008 184.819 311.361 186.32 311.361C187.821 311.361 189.301 311.008 190.64 310.33Z" fill="#FAFAFA"/>
<path d="M150.85 261.27C152.749 260.156 154.782 259.289 156.9 258.69C158.783 258.156 160.717 257.821 162.67 257.69C164.393 257.576 166.123 257.68 167.82 258C169.262 258.271 170.666 258.718 172 259.33C173.333 259.997 174.707 260.727 176.12 261.52C177.533 262.313 178.793 263.103 179.9 263.89C180.828 264.526 181.612 265.351 182.2 266.31C182.75 267.207 182.946 268.276 182.75 269.31C182.47 270.543 181.866 271.679 181 272.6C179.696 273.999 178.168 275.172 176.48 276.07C174.593 277.18 172.578 278.056 170.48 278.68C168.609 279.224 166.684 279.56 164.74 279.68C163.017 279.791 161.286 279.683 159.59 279.36C158.144 279.095 156.737 278.651 155.4 278.04C154.067 277.373 152.697 276.643 151.29 275.85C149.883 275.057 148.62 274.263 147.5 273.47C146.572 272.841 145.791 272.019 145.21 271.06C144.662 270.163 144.466 269.094 144.66 268.06C144.938 266.823 145.527 265.677 146.37 264.73C147.655 263.33 149.17 262.159 150.85 261.27ZM171.3 268.05C170.9 267.739 170.475 267.462 170.03 267.22L168.11 266.11L166.18 265C165.723 264.72 165.245 264.475 164.75 264.27C163.653 263.771 162.465 263.506 161.26 263.49C159.738 263.523 158.256 263.98 156.98 264.81C155.39 265.73 154.62 266.55 154.68 267.28C154.749 267.692 154.906 268.084 155.141 268.429C155.375 268.774 155.682 269.065 156.04 269.28C156.433 269.587 156.844 269.871 157.27 270.13C157.85 270.5 158.48 270.88 159.15 271.26C159.82 271.64 160.47 272.01 161.15 272.35C161.63 272.614 162.124 272.851 162.63 273.06C163.727 273.559 164.915 273.824 166.12 273.84C167.641 273.804 169.123 273.347 170.4 272.52C171.99 271.6 172.76 270.78 172.69 270.04C172.62 269.626 172.459 269.233 172.218 268.889C171.978 268.545 171.664 268.258 171.3 268.05ZM185.53 243.23C185.478 242.797 185.543 242.359 185.72 241.96C186.072 241.43 186.563 241.008 187.14 240.74L192.07 237.89C192.628 237.556 193.253 237.347 193.9 237.28C194.441 237.217 194.988 237.318 195.47 237.57C195.572 237.639 195.663 237.724 195.74 237.82C195.828 237.935 195.889 238.069 195.92 238.21L201.59 288.38C201.635 288.81 201.566 289.245 201.39 289.64C201.049 290.178 200.559 290.606 199.98 290.87L195.05 293.72C194.492 294.053 193.867 294.258 193.22 294.32C192.68 294.391 192.132 294.294 191.65 294.04C191.541 293.972 191.446 293.884 191.37 293.78C191.286 293.662 191.225 293.53 191.19 293.39L185.53 243.23ZM211.44 255.15C213.341 254.038 215.373 253.167 217.49 252.56C219.372 252.021 221.306 251.686 223.26 251.56C224.983 251.446 226.713 251.55 228.41 251.87C229.852 252.141 231.256 252.588 232.59 253.2C233.923 253.867 235.297 254.593 236.71 255.38C238.123 256.167 239.383 256.96 240.49 257.76C241.417 258.393 242.201 259.214 242.79 260.17C243.338 261.068 243.534 262.136 243.34 263.17C243.061 264.409 242.457 265.552 241.59 266.48C240.283 267.876 238.756 269.048 237.07 269.95C235.186 271.062 233.17 271.936 231.07 272.55C229.204 273.1 227.282 273.436 225.34 273.55C223.617 273.664 221.887 273.56 220.19 273.24C218.745 272.967 217.338 272.52 216 271.91C214.66 271.26 213.29 270.54 211.89 269.73C210.49 268.92 209.23 268.13 208.1 267.35C207.175 266.713 206.395 265.888 205.81 264.93C205.258 264.034 205.062 262.964 205.26 261.93C205.538 260.693 206.127 259.547 206.97 258.6C208.25 257.201 209.762 256.034 211.44 255.15ZM231.89 261.92C231.489 261.613 231.064 261.339 230.62 261.1L228.7 260L226.77 258.89C226.311 258.611 225.833 258.364 225.34 258.15C224.24 257.66 223.054 257.395 221.85 257.37C220.327 257.414 218.844 257.87 217.56 258.69C215.98 259.61 215.21 260.44 215.27 261.17C215.339 261.582 215.496 261.974 215.731 262.319C215.965 262.664 216.272 262.955 216.63 263.17C217.02 263.48 217.427 263.767 217.85 264.03C218.44 264.4 219.07 264.78 219.74 265.16C220.41 265.54 221.06 265.91 221.74 266.25C222.42 266.59 222.88 266.82 223.22 266.96C224.319 267.451 225.506 267.716 226.71 267.74C228.231 267.695 229.711 267.235 230.99 266.41C232.58 265.5 233.34 264.67 233.28 263.94C233.211 263.522 233.051 263.124 232.811 262.775C232.57 262.426 232.256 262.134 231.89 261.92Z" fill="#90CAF9"/>
<path d="M69.75 65.58L82.87 58V118.36C82.87 120.63 85.5 122.9 85.5 122.9L72.38 130.48C72.38 130.48 69.75 128.2 69.75 125.93V65.58Z" fill="#37474F"/>
<path d="M53.8 65.45L59.33 72.45V98.68C59.3197 106.023 57.2402 113.215 53.33 119.43L72.33 130.43C70.8957 129.312 69.9525 127.681 69.7 125.88V74.66L53.8 65.45Z" fill="#455A64"/>
<path d="M53.33 119.48V122.51L72.38 133.51V130.48L53.33 119.48Z" fill="#90CAF9"/>
<path d="M72.38 133.51L85.5 125.93V122.9L72.38 130.48V133.51Z" fill="#90CAF9"/>
<path opacity="0.1" d="M72.38 133.51L85.5 125.93V122.9L72.38 130.48V133.51Z" fill="black"/>
<path d="M69.15 33.71C66.92 32.37 63.82 32.54 60.39 34.52L60.26 34.59C53.48 38.52 48 48 48 55.87V56C48 60 49.48 62.86 51.84 64.08L61.77 69.92L78.33 39.13L69.15 33.71Z" fill="#90CAF9"/>
<path opacity="0.8" d="M69.15 33.71C66.92 32.37 63.82 32.54 60.39 34.52L60.26 34.59C53.48 38.52 48 48 48 55.87V56C48 60 49.48 62.86 51.84 64.08L61.77 69.92L78.33 39.13L69.15 33.71Z" fill="#FAFAFA"/>
<path opacity="0.2" d="M51.82 64.1L61.75 69.94L67.25 59.73L49.12 49.26C48.4076 51.3923 48.0298 53.622 48 55.87V56C48 60.07 49.46 62.88 51.82 64.1Z" fill="#90CAF9"/>
<path d="M90.59 41.26C88.07 39.82 84.67 39.87 80.91 41.71C80.51 41.9 80.11 42.11 79.71 42.35C79.31 42.59 78.76 42.92 78.3 43.24C77.5159 43.7816 76.7645 44.3693 76.05 45C74.6789 46.1802 73.414 47.4785 72.27 48.88C69.0836 52.7663 66.7222 57.261 65.33 62.09C64.6803 64.3671 64.3439 66.7221 64.33 69.09C64.33 73.88 65.97 77.28 68.64 78.94L59.15 73.47C57.3896 72.3351 55.9501 70.7672 54.9696 68.9164C53.989 67.0655 53.5002 64.9939 53.55 62.9C53.5698 60.6484 53.8858 58.4091 54.49 56.24C55.8529 51.2937 58.2375 46.688 61.49 42.72C62.6314 41.3161 63.8965 40.0176 65.27 38.84C65.9886 38.1811 66.7467 37.5666 67.54 37C68.01 36.68 68.48 36.38 68.95 36.11C69.42 35.84 69.76 35.67 70.17 35.48C71.8545 34.6855 73.6989 34.2886 75.561 34.3198C77.4231 34.351 79.2532 34.8095 80.91 35.66L81.18 35.81L81.52 36.01L90.59 41.26Z" fill="#90CAF9"/>
<path opacity="0.1" d="M59.13 73.41C57.3696 72.2751 55.9301 70.7072 54.9496 68.8564C53.969 67.0055 53.4802 64.9339 53.53 62.84C53.5498 60.5884 53.8658 58.3491 54.47 56.18L65.31 62.08C64.6603 64.3571 64.3239 66.7121 64.31 69.08C64.31 73.87 65.95 77.27 68.62 78.93L59.13 73.41Z" fill="black"/>
<path d="M95.11 51.24C95.11 61.07 88.22 73.01 79.71 77.92C75.44 80.4 71.56 80.61 68.77 78.92L68.62 78.83C65.95 77.17 64.31 73.77 64.31 68.98C64.31 59.16 71.2 47.21 79.71 42.3C83.95 39.85 87.8 39.61 90.59 41.21C93.38 42.81 95.11 46.32 95.11 51.24Z" fill="#90CAF9"/>
<path opacity="0.2" d="M95.11 51.24C95.11 61.07 88.22 73.01 79.71 77.92C75.44 80.4 71.56 80.61 68.77 78.92L68.62 78.83C65.95 77.17 64.31 73.77 64.31 68.98C64.31 59.16 71.2 47.21 79.71 42.3C83.95 39.85 87.8 39.61 90.59 41.21C93.38 42.81 95.11 46.32 95.11 51.24Z" fill="black"/>
<path d="M142.34 48.7C142.34 48.7 126.8 56.7 113.53 79.7C111.142 83.8257 109.037 88.1089 107.23 92.52C100.57 108.87 101.12 120.14 101.12 120.14C96.49 108.79 90.73 97.05 81.12 88.06C77.3614 84.5595 73.4192 81.2615 69.31 78.18C66.77 76.7 65.31 73.5 65.31 69.08C65.3426 65.9782 65.9145 62.9058 67 60C67.7117 58.0457 68.5952 56.1583 69.64 54.36C72.1514 49.8035 75.7866 45.9652 80.2 43.21C84.03 41 87.55 40.68 90.09 42.14C94.8129 44.1582 99.6397 45.924 104.55 47.43C117.15 51.25 130.2 50.36 142.34 48.7Z" fill="#90CAF9"/>
<path opacity="0.8" d="M142.34 48.7C142.34 48.7 126.8 56.7 113.53 79.7C111.142 83.8257 109.037 88.1089 107.23 92.52C100.57 108.87 101.12 120.14 101.12 120.14C96.49 108.79 90.73 97.05 81.12 88.06C77.3614 84.5595 73.4192 81.2615 69.31 78.18C66.77 76.7 65.31 73.5 65.31 69.08C65.3426 65.9782 65.9145 62.9058 67 60C67.7117 58.0457 68.5952 56.1583 69.64 54.36C72.1514 49.8035 75.7866 45.9652 80.2 43.21C84.03 41 87.55 40.68 90.09 42.14C94.8129 44.1582 99.6397 45.924 104.55 47.43C117.15 51.25 130.2 50.36 142.34 48.7Z" fill="#FAFAFA"/>
<path opacity="0.2" d="M107.23 92.48C100.57 108.83 101.12 120.1 101.12 120.1C96.49 108.75 90.73 97.01 81.12 88.02C77.3614 84.5195 73.4192 81.2215 69.31 78.14C66.77 76.66 65.31 73.46 65.31 69.04C65.3472 65.9517 65.919 62.8932 67 60C78.81 65.88 97.86 76.75 107.23 92.48Z" fill="#90CAF9"/>
<path d="M171.62 70.87C171.62 81.12 168.46 92.33 163.21 102.69C156.48 116 146.33 127.8 135 134.36C114.75 146.05 98.34 136.57 98.34 113.2C98.3961 107.592 99.2136 102.018 100.77 96.63C104.847 82.4087 112.477 69.459 122.94 59C124.373 57.5933 125.843 56.26 127.35 55C127.98 54.48 128.62 54 129.26 53.49C130.17 52.8 131.08 52.14 132.01 51.49C132.94 50.84 134 50.28 135 49.71C155.2 38 171.62 47.5 171.62 70.87Z" fill="#90CAF9"/>
<path opacity="0.1" d="M163.21 102.69C156.48 116 146.33 127.8 135 134.36C114.75 146.05 98.34 136.57 98.34 113.2C98.3961 107.592 99.2136 102.018 100.77 96.63C102.14 99.63 107.06 103.97 109.27 100.94C107.91 105.724 107.194 110.667 107.14 115.64C107.14 122.36 108.64 127.78 111.47 131.32C112.639 132.802 114.141 133.987 115.854 134.78C117.568 135.572 119.444 135.949 121.33 135.88C125.33 135.88 130.01 134.41 134.82 131.63C144.49 126.05 153.38 116.02 159.69 104.63C159.65 104.66 160.91 105.72 163.21 102.69Z" fill="black"/>
<path d="M169.11 72.18C169.11 82.5 165.49 94.18 159.65 104.66C153.34 116.02 144.45 126.05 134.78 131.66C129.97 134.44 125.31 135.91 121.29 135.91C119.404 135.979 117.528 135.602 115.814 134.81C114.101 134.017 112.599 132.832 111.43 131.35C108.6 127.81 107.1 122.35 107.1 115.67C107.154 110.697 107.87 105.754 109.23 100.97C109.74 99.07 110.35 97.17 111.04 95.27C112.266 91.9097 113.709 88.6328 115.36 85.46L116.36 83.46C116.95 82.38 117.56 81.31 118.2 80.26C120.351 76.693 122.768 73.2934 125.43 70.09L125.52 69.99C127.235 67.9316 129.061 65.9687 130.99 64.11C132.363 62.7767 133.757 61.5567 135.17 60.45C135.77 59.97 136.37 59.51 136.97 59.07C137.7 58.54 138.44 58.07 139.18 57.54C139.92 57.01 140.64 56.62 141.37 56.19C146.19 53.4 150.86 51.94 154.87 51.94C163.81 52 169.11 59.52 169.11 72.18Z" fill="#90CAF9"/>
<path opacity="0.3" d="M169.11 72.18C169.11 82.5 165.49 94.18 159.65 104.66C153.34 116.02 144.45 126.05 134.78 131.66C129.97 134.44 125.31 135.91 121.29 135.91C119.404 135.979 117.528 135.602 115.814 134.81C114.101 134.017 112.599 132.832 111.43 131.35C108.6 127.81 107.1 122.35 107.1 115.67C107.154 110.697 107.87 105.754 109.23 100.97C109.74 99.07 110.35 97.17 111.04 95.27C112.266 91.9097 113.709 88.6328 115.36 85.46L116.36 83.46C116.95 82.38 117.56 81.31 118.2 80.26C120.351 76.693 122.768 73.2934 125.43 70.09L125.52 69.99C127.235 67.9316 129.061 65.9687 130.99 64.11C132.363 62.7767 133.757 61.5567 135.17 60.45C135.77 59.97 136.37 59.51 136.97 59.07C137.7 58.54 138.44 58.07 139.18 57.54C139.92 57.01 140.64 56.62 141.37 56.19C146.19 53.4 150.86 51.94 154.87 51.94C163.81 52 169.11 59.52 169.11 72.18Z" fill="black"/>
<path d="M138 77.92L125.14 101.92C121.52 100.56 115.41 98.39 110.43 97.12C110.63 96.48 110.85 95.86 111.09 95.22C112.313 91.8587 113.756 88.5816 115.41 85.41C115.75 84.75 116.1 84.1 116.41 83.41C117 82.33 117.61 81.26 118.25 80.22C120.398 76.6514 122.815 73.2516 125.48 70.05C125.515 70.018 125.546 69.9809 125.57 69.94C125.96 69.48 126.35 69.02 126.74 68.58C130.213 72.0169 133.98 75.1423 138 77.92Z" fill="#90CAF9"/>
<g opacity="0.6">
<path d="M138 77.92L125.14 101.92C121.52 100.56 115.41 98.39 110.43 97.12C110.63 96.48 110.85 95.86 111.09 95.22C112.313 91.8587 113.756 88.5816 115.41 85.41C115.75 84.75 116.1 84.1 116.41 83.41C117 82.33 117.61 81.26 118.25 80.22C120.398 76.6514 122.815 73.2516 125.48 70.05C125.515 70.018 125.546 69.9809 125.57 69.94C125.96 69.48 126.35 69.02 126.74 68.58C130.213 72.0169 133.98 75.1423 138 77.92Z" fill="#FAFAFA"/>
</g>
<path d="M126.17 101.87C123.26 101.87 121.53 99.52 121.53 95.59V95.47C121.53 89.29 125.88 81.74 131.24 78.65L131.34 78.59C132.563 77.8292 133.961 77.3954 135.4 77.33C138.3 77.33 140.04 79.68 140.04 83.62V83.74C140.04 89.92 135.68 97.46 130.33 100.55L130.23 100.61C129.009 101.375 127.61 101.81 126.17 101.87Z" fill="#90CAF9"/>
<g opacity="0.8">
<path d="M126.17 101.87C123.26 101.87 121.53 99.52 121.53 95.59V95.47C121.53 89.29 125.88 81.74 131.24 78.65L131.34 78.59C132.563 77.8292 133.961 77.3954 135.4 77.33C138.3 77.33 140.04 79.68 140.04 83.62V83.74C140.04 89.92 135.68 97.46 130.33 100.55L130.23 100.61C129.009 101.375 127.61 101.81 126.17 101.87Z" fill="#FAFAFA"/>
</g>
<path d="M140 34.24C139.234 34.24 138.498 33.9355 137.956 33.3935C137.414 32.8516 137.11 32.1165 137.11 31.35V3.34999C137.11 2.58352 137.414 1.84843 137.956 1.30645C138.498 0.764474 139.234 0.459991 140 0.459991C140.766 0.459991 141.502 0.764474 142.044 1.30645C142.585 1.84843 142.89 2.58352 142.89 3.34999V31.35C142.89 32.1165 142.585 32.8516 142.044 33.3935C141.502 33.9355 140.766 34.24 140 34.24Z" fill="#E0E0E0"/>
<path d="M114.59 41.06C114.083 41.061 113.586 40.9284 113.147 40.6756C112.708 40.4228 112.343 40.0587 112.09 39.62L98.09 15.4C97.7055 14.737 97.6 13.9483 97.797 13.2075C97.9939 12.4668 98.477 11.8346 99.14 11.45C99.8031 11.0654 100.592 10.96 101.332 11.1569C102.073 11.3538 102.705 11.837 103.09 12.5L117.09 36.72C117.345 37.16 117.48 37.6595 117.48 38.1682C117.48 38.6768 117.347 39.1766 117.092 39.6169C116.837 40.0572 116.471 40.4225 116.03 40.6759C115.589 40.9293 115.089 41.0618 114.58 41.06H114.59Z" fill="#E0E0E0"/>
<path d="M88.12 175.84C87.6134 175.837 87.1164 175.701 86.6785 175.446C86.2406 175.192 85.8772 174.827 85.6243 174.388C85.3714 173.949 85.2379 173.451 85.2372 172.944C85.2364 172.438 85.3684 171.94 85.62 171.5L99.62 147.28C99.8009 146.935 100.05 146.63 100.351 146.384C100.653 146.137 101.001 145.955 101.376 145.846C101.75 145.738 102.142 145.706 102.529 145.753C102.915 145.801 103.288 145.925 103.626 146.12C103.963 146.315 104.257 146.576 104.491 146.888C104.725 147.199 104.893 147.555 104.986 147.933C105.079 148.311 105.094 148.705 105.031 149.089C104.969 149.473 104.829 149.841 104.62 150.17L90.62 174.39C90.3664 174.829 90.0022 175.194 89.5635 175.449C89.1248 175.703 88.6271 175.838 88.12 175.84Z" fill="#E0E0E0"/>
<path d="M140 179.58C139.234 179.58 138.498 179.276 137.956 178.734C137.414 178.192 137.11 177.456 137.11 176.69V148.69C137.11 147.924 137.414 147.188 137.956 146.646C138.498 146.104 139.234 145.8 140 145.8C140.766 145.8 141.502 146.104 142.044 146.646C142.585 147.188 142.89 147.924 142.89 148.69V176.69C142.89 177.456 142.585 178.192 142.044 178.734C141.502 179.276 140.766 179.58 140 179.58Z" fill="#E0E0E0"/>
<path d="M179.48 153.44C178.977 153.437 178.484 153.302 178.049 153.049C177.614 152.797 177.252 152.435 177 152L163 127.78C162.654 127.119 162.576 126.35 162.783 125.634C162.991 124.917 163.467 124.309 164.113 123.936C164.759 123.562 165.524 123.453 166.249 123.631C166.973 123.809 167.601 124.26 168 124.89L182 149.11C182.252 149.55 182.384 150.048 182.383 150.554C182.382 151.061 182.249 151.559 181.996 151.998C181.743 152.437 181.379 152.802 180.941 153.056C180.504 153.311 180.007 153.447 179.5 153.45L179.48 153.44Z" fill="#E0E0E0"/>
<path d="M208.33 124.57C207.825 124.571 207.329 124.44 206.89 124.19L182.67 110.19C182.342 110 182.054 109.746 181.824 109.445C181.593 109.143 181.424 108.799 181.327 108.432C181.229 108.066 181.205 107.683 181.255 107.307C181.306 106.931 181.43 106.568 181.62 106.24C181.81 105.912 182.064 105.624 182.365 105.394C182.667 105.163 183.011 104.994 183.378 104.897C183.744 104.799 184.127 104.775 184.503 104.825C184.879 104.876 185.242 105 185.57 105.19L209.78 119.19C210.33 119.509 210.759 120 211.002 120.588C211.244 121.176 211.286 121.827 211.121 122.441C210.956 123.055 210.593 123.597 210.088 123.984C209.584 124.37 208.966 124.58 208.33 124.58V124.57Z" fill="#E0E0E0"/>
<path d="M218.9 85.14H190.9C190.134 85.14 189.398 84.8355 188.856 84.2935C188.314 83.7515 188.01 83.0165 188.01 82.25C188.01 81.4835 188.314 80.7484 188.856 80.2064C189.398 79.6645 190.134 79.36 190.9 79.36H218.9C219.666 79.36 220.402 79.6645 220.944 80.2064C221.486 80.7484 221.79 81.4835 221.79 82.25C221.79 83.0165 221.486 83.7515 220.944 84.2935C220.402 84.8355 219.666 85.14 218.9 85.14Z" fill="#E0E0E0"/>
<path d="M184.12 59.69C183.481 59.6939 182.859 59.4859 182.351 59.0987C181.842 58.7114 181.477 58.1666 181.311 57.5495C181.146 56.9324 181.189 56.2778 181.435 55.6881C181.681 55.0983 182.115 54.6067 182.67 54.29L206.89 40.29C207.219 40.0814 207.587 39.9414 207.971 39.8785C208.355 39.8157 208.749 39.8311 209.127 39.924C209.505 40.0169 209.861 40.1853 210.172 40.419C210.484 40.6528 210.745 40.9472 210.94 41.2844C211.135 41.6216 211.259 41.9948 211.307 42.3814C211.354 42.7681 211.322 43.1603 211.214 43.5344C211.105 43.9085 210.923 44.2569 210.676 44.5586C210.43 44.8603 210.125 45.1091 209.78 45.29L185.57 59.29C185.131 59.5508 184.63 59.6889 184.12 59.69Z" fill="#E0E0E0"/>
<path d="M165.49 41.06C164.983 41.0583 164.485 40.9232 164.047 40.6684C163.609 40.4136 163.245 40.0479 162.993 39.6082C162.741 39.1685 162.609 38.6701 162.61 38.1632C162.611 37.6562 162.746 37.1585 163 36.72L177 12.5C177.385 11.837 178.017 11.3538 178.758 11.1569C179.498 10.96 180.287 11.0654 180.95 11.45C181.613 11.8346 182.096 12.4668 182.293 13.2075C182.49 13.9483 182.385 14.737 182 15.4L168 39.62C167.746 40.0602 167.38 40.4252 166.939 40.6781C166.498 40.931 165.998 41.0628 165.49 41.06Z" fill="#E0E0E0"/>
</g>
<defs>
<clipPath id="clip0_1_374">
<rect width="472" height="434" fill="white"/>
</clipPath>
</defs>
</svg>
