<svg width="440" height="399" viewBox="0 0 440 399" fill="none" xmlns="http://www.w3.org/2000/svg">
<g clip-path="url(#clip0_1_586)">
<path d="M426.06 368.49C426.06 371.87 332.54 374.62 217.18 374.62C101.82 374.62 8.31 371.87 8.31 368.49C8.31 365.11 101.82 362.35 217.18 362.35C332.54 362.35 426.06 365.1 426.06 368.49Z" fill="#F5F5F5"/>
<path d="M171.17 323.19H163.53V330.83H171.17V323.19Z" fill="#263238"/>
<path opacity="0.5" d="M65.51 42H89.14V274.54H63.72C61.7786 274.54 59.9167 273.769 58.544 272.396C57.1712 271.023 56.4 269.161 56.4 267.22V51.12C56.3987 49.9228 56.6333 48.7371 57.0906 47.6307C57.5478 46.5243 58.2186 45.5188 59.0647 44.6718C59.9108 43.8248 60.9155 43.1529 62.0214 42.6944C63.1274 42.236 64.3128 42 65.51 42Z" fill="white"/>
<path opacity="0.5" d="M186.62 270.53L176.22 323.82H191.31L203.35 270.97L186.62 270.53Z" fill="white"/>
<path opacity="0.5" d="M171.17 323.19H163.53V330.83H171.17V323.19Z" fill="white"/>
<path d="M281.38 330.83H184.46L198.23 250.07H262.73L281.38 330.83Z" fill="#263238"/>
<path opacity="0.7" d="M281.38 330.83H184.46L198.23 250.07H262.73L281.38 330.83Z" fill="white"/>
<path opacity="0.1" d="M268.35 274.54H194.02L191.31 290.45L270.51 283.91L268.35 274.54Z" fill="black"/>
<path d="M294.66 323.19H169.03V330.83H294.66V323.19Z" fill="#263238"/>
<g opacity="0.7">
<path d="M294.66 323.19H169.03V330.83H294.66V323.19Z" fill="white"/>
</g>
<path d="M72.23 42H386.47C388.612 42.029 390.656 42.9045 392.155 44.4352C393.654 45.966 394.486 48.0276 394.47 50.17V266.37C394.486 268.512 393.654 270.574 392.155 272.105C390.656 273.636 388.612 274.511 386.47 274.54H72.23C70.0878 274.511 68.0441 273.636 66.5452 272.105C65.0463 270.574 64.214 268.512 64.23 266.37V50.18C64.2113 48.0359 65.0424 45.9717 66.5416 44.4388C68.0408 42.9058 70.086 42.029 72.23 42Z" fill="#263238"/>
<g opacity="0.7">
<path d="M72.23 42H386.47C388.612 42.029 390.656 42.9045 392.155 44.4352C393.654 45.966 394.486 48.0276 394.47 50.17V266.37C394.486 268.512 393.654 270.574 392.155 272.105C390.656 273.636 388.612 274.511 386.47 274.54H72.23C70.0878 274.511 68.0441 273.636 66.5452 272.105C65.0463 270.574 64.214 268.512 64.23 266.37V50.18C64.2113 48.0359 65.0424 45.9717 66.5416 44.4388C68.0408 42.9058 70.086 42.029 72.23 42Z" fill="white"/>
</g>
<path d="M385.73 50.01H71.55V258.47H385.73V50.01Z" fill="#90CAF9"/>
<path opacity="0.9" d="M385.73 50.01H71.55V258.47H385.73V50.01Z" fill="white"/>
<path d="M385.73 50.01H71.55V66.74H385.73V50.01Z" fill="#90CAF9"/>
<path opacity="0.5" d="M381.55 58.38C381.552 59.0845 381.345 59.7738 380.955 60.3605C380.565 60.9473 380.01 61.4052 379.359 61.6761C378.709 61.9471 377.993 62.019 377.302 61.8828C376.61 61.7466 375.975 61.4083 375.476 60.9108C374.977 60.4134 374.637 59.7791 374.499 59.0882C374.361 58.3974 374.431 57.6811 374.7 57.03C374.969 56.3789 375.425 55.8223 376.011 55.4307C376.597 55.039 377.285 54.83 377.99 54.83C378.932 54.83 379.836 55.2037 380.504 55.8692C381.171 56.5346 381.547 57.4376 381.55 58.38Z" fill="white"/>
<path opacity="0.5" d="M371.44 58.38C371.442 59.085 371.235 59.7746 370.844 60.3616C370.454 60.9486 369.898 61.4064 369.247 61.6771C368.596 61.9478 367.879 62.0191 367.188 61.8821C366.496 61.745 365.861 61.4058 365.363 60.9073C364.864 60.4088 364.525 59.7736 364.388 59.0821C364.251 58.3906 364.322 57.6739 364.593 57.023C364.864 56.3721 365.321 55.8162 365.908 55.4258C366.495 55.0354 367.185 54.828 367.89 54.83C368.831 54.8326 369.732 55.2075 370.397 55.8727C371.062 56.5379 371.437 57.4393 371.44 58.38Z" fill="white"/>
<path opacity="0.5" d="M361.34 58.38C361.342 59.0845 361.135 59.7738 360.745 60.3605C360.355 60.9473 359.8 61.4052 359.149 61.6761C358.499 61.9471 357.783 62.019 357.092 61.8828C356.4 61.7466 355.765 61.4083 355.266 60.9108C354.767 60.4134 354.427 59.7791 354.289 59.0882C354.151 58.3974 354.221 57.6811 354.49 57.03C354.759 56.3789 355.215 55.8223 355.801 55.4307C356.387 55.039 357.075 54.83 357.78 54.83C358.722 54.83 359.626 55.2037 360.294 55.8692C360.961 56.5346 361.337 57.4376 361.34 58.38Z" fill="white"/>
<path d="M129.8 188.82C128.798 190.359 128.092 192.072 127.72 193.87L124.9 194.13V199.59L127.72 199.86C128.099 201.641 128.804 203.336 129.8 204.86L128 207.04L131.86 210.9L134.04 209.1C135.563 210.097 137.259 210.803 139.04 211.18L139.31 214H144.77L145.03 211.18C146.828 210.808 148.541 210.102 150.08 209.1L152.25 210.9L156.11 207.04L154.31 204.86C155.314 203.339 156.024 201.643 156.4 199.86L159.21 199.59V194.13L156.4 193.87C156.028 192.07 155.319 190.356 154.31 188.82L156.11 186.65L152.25 182.79L150.08 184.59C148.544 183.581 146.83 182.872 145.03 182.5L144.77 179.69H139.31L139.04 182.5C137.257 182.876 135.561 183.586 134.04 184.59L131.86 182.79L128 186.65L129.8 188.82ZM147.1 191.82C148.099 192.811 148.781 194.076 149.059 195.454C149.338 196.833 149.201 198.264 148.665 199.565C148.129 200.865 147.219 201.978 146.051 202.76C144.882 203.543 143.507 203.961 142.1 203.961C140.693 203.961 139.318 203.543 138.149 202.76C136.981 201.978 136.071 200.865 135.535 199.565C134.999 198.264 134.862 196.833 135.141 195.454C135.419 194.076 136.101 192.811 137.1 191.82C138.432 190.504 140.231 189.767 142.104 189.771C143.977 189.775 145.773 190.518 147.1 191.84V191.82Z" fill="#90CAF9"/>
<path opacity="0.4" d="M129.8 188.82C128.798 190.359 128.092 192.072 127.72 193.87L124.9 194.13V199.59L127.72 199.86C128.099 201.641 128.804 203.336 129.8 204.86L128 207.04L131.86 210.9L134.04 209.1C135.563 210.097 137.259 210.803 139.04 211.18L139.31 214H144.77L145.03 211.18C146.828 210.808 148.541 210.102 150.08 209.1L152.25 210.9L156.11 207.04L154.31 204.86C155.314 203.339 156.024 201.643 156.4 199.86L159.21 199.59V194.13L156.4 193.87C156.028 192.07 155.319 190.356 154.31 188.82L156.11 186.65L152.25 182.79L150.08 184.59C148.544 183.581 146.83 182.872 145.03 182.5L144.77 179.69H139.31L139.04 182.5C137.257 182.876 135.561 183.586 134.04 184.59L131.86 182.79L128 186.65L129.8 188.82ZM147.1 191.82C148.099 192.811 148.781 194.076 149.059 195.454C149.338 196.833 149.201 198.264 148.665 199.565C148.129 200.865 147.219 201.978 146.051 202.76C144.882 203.543 143.507 203.961 142.1 203.961C140.693 203.961 139.318 203.543 138.149 202.76C136.981 201.978 136.071 200.865 135.535 199.565C134.999 198.264 134.862 196.833 135.141 195.454C135.419 194.076 136.101 192.811 137.1 191.82C138.432 190.504 140.231 189.767 142.104 189.771C143.977 189.775 145.773 190.518 147.1 191.84V191.82Z" fill="white"/>
<path d="M290.92 122C289.988 123.425 289.333 125.013 288.99 126.68L286.38 126.92V132L288.99 132.24C289.333 133.907 289.988 135.495 290.92 136.92L289.25 138.92L292.83 142.5L294.83 140.83C296.255 141.762 297.843 142.417 299.51 142.76L299.75 145.37H304.81L305.05 142.76C306.717 142.417 308.305 141.762 309.73 140.83L311.73 142.5L315.31 138.92L313.64 136.92C314.572 135.495 315.227 133.907 315.57 132.24L318.18 132V127L315.57 126.76C315.227 125.093 314.572 123.505 313.64 122.08L315.31 120.08L311.73 116.5L309.73 118.17C308.305 117.238 306.717 116.583 305.05 116.24L304.81 113.63H299.75L299.51 116.24C297.843 116.583 296.255 117.238 294.83 118.17L292.83 116.5L289.25 120L290.92 122ZM306.92 124.8C307.841 125.72 308.468 126.892 308.723 128.169C308.978 129.446 308.848 130.769 308.35 131.972C307.852 133.175 307.009 134.203 305.926 134.926C304.844 135.649 303.572 136.036 302.27 136.036C300.968 136.036 299.696 135.649 298.614 134.926C297.531 134.203 296.688 133.175 296.19 131.972C295.692 130.769 295.562 129.446 295.817 128.169C296.072 126.892 296.699 125.72 297.62 124.8C298.233 124.188 298.96 123.702 299.761 123.372C300.562 123.042 301.42 122.874 302.286 122.876C303.152 122.879 304.01 123.053 304.808 123.388C305.607 123.724 306.331 124.214 306.94 124.83L306.92 124.8Z" fill="#90CAF9"/>
<path opacity="0.4" d="M290.92 122C289.988 123.425 289.333 125.013 288.99 126.68L286.38 126.92V132L288.99 132.24C289.333 133.907 289.988 135.495 290.92 136.92L289.25 138.92L292.83 142.5L294.83 140.83C296.255 141.762 297.843 142.417 299.51 142.76L299.75 145.37H304.81L305.05 142.76C306.717 142.417 308.305 141.762 309.73 140.83L311.73 142.5L315.31 138.92L313.64 136.92C314.572 135.495 315.227 133.907 315.57 132.24L318.18 132V127L315.57 126.76C315.227 125.093 314.572 123.505 313.64 122.08L315.31 120.08L311.73 116.5L309.73 118.17C308.305 117.238 306.717 116.583 305.05 116.24L304.81 113.63H299.75L299.51 116.24C297.843 116.583 296.255 117.238 294.83 118.17L292.83 116.5L289.25 120L290.92 122ZM306.92 124.8C307.841 125.72 308.468 126.892 308.723 128.169C308.978 129.446 308.848 130.769 308.35 131.972C307.852 133.175 307.009 134.203 305.926 134.926C304.844 135.649 303.572 136.036 302.27 136.036C300.968 136.036 299.696 135.649 298.614 134.926C297.531 134.203 296.688 133.175 296.19 131.972C295.692 130.769 295.562 129.446 295.817 128.169C296.072 126.892 296.699 125.72 297.62 124.8C298.233 124.188 298.96 123.702 299.761 123.372C300.562 123.042 301.42 122.874 302.286 122.876C303.152 122.879 304.01 123.053 304.808 123.388C305.607 123.724 306.331 124.214 306.94 124.83L306.92 124.8Z" fill="white"/>
<path d="M284.66 94.05C284.066 94.9652 283.645 95.9822 283.42 97.05L281.73 97.2V100.47L283.42 100.63C283.642 101.699 284.063 102.716 284.66 103.63L283.58 104.93L285.89 107.24L287.2 106.16C288.111 106.764 289.129 107.189 290.2 107.41L290.36 109.1H293.62L293.78 107.41C294.851 107.189 295.869 106.764 296.78 106.16L298.08 107.24L300.39 104.93L299.32 103.63C299.917 102.716 300.338 101.699 300.56 100.63L302.25 100.47V97.2L300.56 97.04C300.334 95.9724 299.914 94.9555 299.32 94.04L300.39 92.74L298.08 90.43L296.78 91.51C295.867 90.9098 294.849 90.4859 293.78 90.26L293.62 88.58H290.36L290.2 90.26C289.131 90.4859 288.113 90.9098 287.2 91.51L285.89 90.43L283.58 92.74L284.66 94.05ZM295 95.86C295.596 96.4538 296.002 97.211 296.167 98.0359C296.332 98.8607 296.249 99.716 295.928 100.493C295.607 101.271 295.062 101.935 294.363 102.403C293.663 102.871 292.841 103.12 292 103.12C291.159 103.12 290.337 102.871 289.637 102.403C288.938 101.935 288.393 101.271 288.072 100.493C287.751 99.716 287.668 98.8607 287.833 98.0359C287.998 97.211 288.404 96.4538 289 95.86C289.797 95.0661 290.875 94.6204 292 94.6204C293.125 94.6204 294.203 95.0661 295 95.86Z" fill="#90CAF9"/>
<path opacity="0.7" d="M284.66 94.05C284.066 94.9652 283.645 95.9822 283.42 97.05L281.73 97.2V100.47L283.42 100.63C283.642 101.699 284.063 102.716 284.66 103.63L283.58 104.93L285.89 107.24L287.2 106.16C288.111 106.764 289.129 107.189 290.2 107.41L290.36 109.1H293.62L293.78 107.41C294.851 107.189 295.869 106.764 296.78 106.16L298.08 107.24L300.39 104.93L299.32 103.63C299.917 102.716 300.338 101.699 300.56 100.63L302.25 100.47V97.2L300.56 97.04C300.334 95.9724 299.914 94.9555 299.32 94.04L300.39 92.74L298.08 90.43L296.78 91.51C295.867 90.9098 294.849 90.4859 293.78 90.26L293.62 88.58H290.36L290.2 90.26C289.131 90.4859 288.113 90.9098 287.2 91.51L285.89 90.43L283.58 92.74L284.66 94.05ZM295 95.86C295.596 96.4538 296.002 97.211 296.167 98.0359C296.332 98.8607 296.249 99.716 295.928 100.493C295.607 101.271 295.062 101.935 294.363 102.403C293.663 102.871 292.841 103.12 292 103.12C291.159 103.12 290.337 102.871 289.637 102.403C288.938 101.935 288.393 101.271 288.072 100.493C287.751 99.716 287.668 98.8607 287.833 98.0359C287.998 97.211 288.404 96.4538 289 95.86C289.797 95.0661 290.875 94.6204 292 94.6204C293.125 94.6204 294.203 95.0661 295 95.86Z" fill="white"/>
<path d="M148 221.57C147.406 222.486 146.986 223.502 146.76 224.57L145.07 224.73V228L146.76 228.16C146.984 229.228 147.405 230.245 148 231.16L146.93 232.46L149.24 234.77L150.54 233.69C151.451 234.294 152.469 234.719 153.54 234.94L153.7 236.63H157L157.16 234.94C158.231 234.719 159.249 234.294 160.16 233.69L161.47 234.77L163.78 232.46L162.7 231.16C163.299 230.247 163.72 229.229 163.94 228.16L165.63 228V224.73L163.94 224.57C163.719 223.501 163.298 222.483 162.7 221.57L163.78 220.27L161.47 218L160.16 219C159.247 218.4 158.229 217.976 157.16 217.75L157 216.07H153.74L153.58 217.75C152.511 217.976 151.493 218.4 150.58 219L149.28 217.92L146.97 220.23L148 221.57ZM158.36 223.38C158.956 223.974 159.362 224.731 159.527 225.556C159.692 226.381 159.609 227.236 159.288 228.013C158.967 228.791 158.422 229.455 157.723 229.923C157.023 230.391 156.201 230.64 155.36 230.64C154.519 230.64 153.697 230.391 152.997 229.923C152.298 229.455 151.753 228.791 151.432 228.013C151.111 227.236 151.028 226.381 151.193 225.556C151.358 224.731 151.764 223.974 152.36 223.38C153.157 222.586 154.235 222.14 155.36 222.14C156.485 222.14 157.563 222.586 158.36 223.38Z" fill="#90CAF9"/>
<path opacity="0.7" d="M148 221.57C147.406 222.486 146.986 223.502 146.76 224.57L145.07 224.73V228L146.76 228.16C146.984 229.228 147.405 230.245 148 231.16L146.93 232.46L149.24 234.77L150.54 233.69C151.451 234.294 152.469 234.719 153.54 234.94L153.7 236.63H157L157.16 234.94C158.231 234.719 159.249 234.294 160.16 233.69L161.47 234.77L163.78 232.46L162.7 231.16C163.299 230.247 163.72 229.229 163.94 228.16L165.63 228V224.73L163.94 224.57C163.719 223.501 163.298 222.483 162.7 221.57L163.78 220.27L161.47 218L160.16 219C159.247 218.4 158.229 217.976 157.16 217.75L157 216.07H153.74L153.58 217.75C152.511 217.976 151.493 218.4 150.58 219L149.28 217.92L146.97 220.23L148 221.57ZM158.36 223.38C158.956 223.974 159.362 224.731 159.527 225.556C159.692 226.381 159.609 227.236 159.288 228.013C158.967 228.791 158.422 229.455 157.723 229.923C157.023 230.391 156.201 230.64 155.36 230.64C154.519 230.64 153.697 230.391 152.997 229.923C152.298 229.455 151.753 228.791 151.432 228.013C151.111 227.236 151.028 226.381 151.193 225.556C151.358 224.731 151.764 223.974 152.36 223.38C153.157 222.586 154.235 222.14 155.36 222.14C156.485 222.14 157.563 222.586 158.36 223.38Z" fill="white"/>
<path d="M170.5 127.29C166.154 133.925 163.101 141.322 161.5 149.09L149.32 150.24V173.82L161.5 175C163.103 182.771 166.156 190.17 170.5 196.81L162.72 206.2L179.4 222.88L188.79 215.1C195.43 219.444 202.829 222.497 210.6 224.1L211.75 236.28H235.33L236.48 224.1C244.248 222.499 251.645 219.446 258.28 215.1L267.68 222.88L284.36 206.2L276.58 196.81C280.925 190.171 283.979 182.771 285.58 175L297.75 173.85V150.24L285.58 149.09C283.977 141.322 280.924 133.926 276.58 127.29L284.36 117.89L267.68 101.22L258.28 108.99C251.644 104.646 244.248 101.593 236.48 99.99L235.33 87.81H211.75L210.6 100C202.829 101.603 195.43 104.656 188.79 109L179.4 101.22L162.72 117.9L170.5 127.29ZM250.62 135C255.977 140.356 259.625 147.18 261.104 154.61C262.582 162.04 261.824 169.741 258.925 176.74C256.027 183.739 251.118 189.72 244.819 193.929C238.52 198.138 231.115 200.384 223.54 200.384C215.965 200.384 208.56 198.138 202.261 193.929C195.962 189.72 191.053 183.739 188.155 176.74C185.256 169.741 184.498 162.04 185.976 154.61C187.455 147.18 191.103 140.356 196.46 135C203.644 127.821 213.384 123.789 223.54 123.789C233.696 123.789 243.436 127.821 250.62 135Z" fill="#90CAF9"/>
<path d="M212.26 165.4H203.76L202.13 169.33H197.79L206 151H210.18L218.37 169.32H213.92L212.26 165.4ZM210.93 162.18L208.02 155.18L205.12 162.18H210.93Z" fill="#90CAF9"/>
<path d="M232.4 151.82C233.229 152.217 233.966 152.783 234.562 153.483C235.158 154.182 235.601 154.999 235.861 155.881C236.121 156.762 236.193 157.689 236.073 158.6C235.952 159.511 235.641 160.387 235.16 161.17C234.487 162.194 233.527 162.998 232.4 163.48C231.06 164.035 229.62 164.304 228.17 164.27H224.48V169.33H220.24V151H228.17C229.622 150.97 231.064 151.249 232.4 151.82ZM230.84 160C231.157 159.695 231.409 159.329 231.581 158.925C231.753 158.52 231.841 158.085 231.841 157.645C231.841 157.205 231.753 156.77 231.581 156.365C231.409 155.961 231.157 155.595 230.84 155.29C230 154.683 228.974 154.39 227.94 154.46H224.48V160.82H227.94C228.973 160.893 229.998 160.603 230.84 160Z" fill="#90CAF9"/>
<path d="M239.14 151H243.38V169.32H239.14V151Z" fill="#90CAF9"/>
<path d="M188.79 166.88C188.666 166.881 188.545 166.835 188.453 166.752C188.361 166.668 188.302 166.554 188.29 166.43C187.723 161.398 188.19 156.304 189.664 151.459C191.138 146.615 193.587 142.123 196.86 138.26C196.903 138.21 196.955 138.169 197.013 138.139C197.072 138.11 197.136 138.092 197.201 138.086C197.267 138.081 197.332 138.089 197.395 138.11C197.457 138.13 197.515 138.162 197.565 138.205C197.615 138.248 197.656 138.3 197.686 138.358C197.715 138.417 197.733 138.481 197.739 138.546C197.744 138.612 197.736 138.677 197.715 138.74C197.695 138.802 197.663 138.86 197.62 138.91C194.434 142.67 192.051 147.043 190.618 151.758C189.186 156.474 188.734 161.433 189.29 166.33C189.301 166.462 189.261 166.594 189.177 166.696C189.093 166.799 188.972 166.865 188.84 166.88H188.79Z" fill="#90CAF9"/>
<path d="M190.48 174.78C190.371 174.782 190.265 174.747 190.178 174.682C190.092 174.617 190.029 174.525 190 174.42C189.588 173.026 189.254 171.611 189 170.18C188.988 170.114 188.989 170.047 189.004 169.982C189.018 169.917 189.045 169.855 189.083 169.8C189.121 169.745 189.169 169.699 189.226 169.663C189.282 169.626 189.344 169.602 189.41 169.59C189.476 169.578 189.543 169.579 189.608 169.594C189.673 169.608 189.735 169.635 189.79 169.673C189.845 169.711 189.891 169.759 189.928 169.816C189.964 169.872 189.988 169.934 190 170C190.259 171.397 190.592 172.779 191 174.14C191.037 174.267 191.022 174.404 190.958 174.52C190.895 174.637 190.787 174.723 190.66 174.76C190.603 174.782 190.541 174.789 190.48 174.78Z" fill="#90CAF9"/>
<path d="M142.08 160.36H99.33C99.1974 160.36 99.0702 160.307 98.9764 160.214C98.8827 160.12 98.83 159.993 98.83 159.86V109.8C98.83 109.667 98.8827 109.54 98.9764 109.446C99.0702 109.353 99.1974 109.3 99.33 109.3C99.4626 109.3 99.5898 109.353 99.6835 109.446C99.7773 109.54 99.83 109.667 99.83 109.8V159.36H142.08C142.213 159.36 142.34 159.413 142.434 159.506C142.527 159.6 142.58 159.727 142.58 159.86C142.577 159.992 142.524 160.118 142.431 160.211C142.338 160.304 142.212 160.357 142.08 160.36Z" fill="#90CAF9"/>
<path d="M99.33 112.36C100.744 112.36 101.89 111.214 101.89 109.8C101.89 108.386 100.744 107.24 99.33 107.24C97.9161 107.24 96.77 108.386 96.77 109.8C96.77 111.214 97.9161 112.36 99.33 112.36Z" fill="#90CAF9"/>
<path d="M360.2 201.98C361.614 201.98 362.76 200.834 362.76 199.42C362.76 198.006 361.614 196.86 360.2 196.86C358.786 196.86 357.64 198.006 357.64 199.42C357.64 200.834 358.786 201.98 360.2 201.98Z" fill="#90CAF9"/>
<path d="M360.7 219.4H297.08V191.99H288.2V190.99H298.08V218.4H359.7V199.05H360.7V219.4Z" fill="#90CAF9"/>
<path d="M439.88 226.39H330.99V330.83H439.88V226.39Z" fill="#90CAF9"/>
<path opacity="0.4" d="M439.88 226.39H330.99V330.83H439.88V226.39Z" fill="white"/>
<path opacity="0.4" d="M439.87 226.39H365.65V330.83H439.87V226.39Z" fill="white"/>
<path d="M436.16 231.73H369.36V244.66H436.16V231.73Z" fill="#90CAF9"/>
<path d="M436.16 247.9H369.36V260.83H436.16V247.9Z" fill="#90CAF9"/>
<path d="M436.16 264.06H369.36V276.99H436.16V264.06Z" fill="#90CAF9"/>
<path d="M436.16 280.23H369.36V293.16H436.16V280.23Z" fill="#90CAF9"/>
<path d="M436.16 296.4H369.36V309.33H436.16V296.4Z" fill="#90CAF9"/>
<path d="M436.16 312.57H369.36V325.5H436.16V312.57Z" fill="#90CAF9"/>
<path d="M361.77 231.73H334.88V244.66H361.77V231.73Z" fill="#90CAF9"/>
<path d="M361.77 247.9H334.88V260.83H361.77V247.9Z" fill="#90CAF9"/>
<path d="M361.77 264.06H334.88V276.99H361.77V264.06Z" fill="#90CAF9"/>
<path d="M361.77 280.23H334.88V293.16H361.77V280.23Z" fill="#90CAF9"/>
<path d="M361.77 296.4H334.88V309.33H361.77V296.4Z" fill="#90CAF9"/>
<path d="M361.77 312.57H334.88V325.5H361.77V312.57Z" fill="#90CAF9"/>
<path opacity="0.3" d="M432.89 233.41H431.33V242.98H432.89V233.41Z" fill="white"/>
<path opacity="0.3" d="M429.89 233.41H428.33V242.98H429.89V233.41Z" fill="white"/>
<path opacity="0.3" d="M426.89 233.41H425.33V242.98H426.89V233.41Z" fill="white"/>
<path opacity="0.3" d="M423.89 233.41H422.33V242.98H423.89V233.41Z" fill="white"/>
<path opacity="0.3" d="M420.89 233.41H419.33V242.98H420.89V233.41Z" fill="white"/>
<path opacity="0.3" d="M432.89 249.58H431.33V259.14H432.89V249.58Z" fill="white"/>
<path opacity="0.3" d="M429.89 249.58H428.33V259.14H429.89V249.58Z" fill="white"/>
<path opacity="0.3" d="M426.89 249.58H425.33V259.14H426.89V249.58Z" fill="white"/>
<path opacity="0.3" d="M423.89 249.58H422.33V259.14H423.89V249.58Z" fill="white"/>
<path opacity="0.3" d="M420.89 249.58H419.33V259.14H420.89V249.58Z" fill="white"/>
<path opacity="0.3" d="M432.89 265.75H431.33V275.31H432.89V265.75Z" fill="white"/>
<path opacity="0.3" d="M429.89 265.75H428.33V275.31H429.89V265.75Z" fill="white"/>
<path opacity="0.3" d="M426.89 265.75H425.33V275.31H426.89V265.75Z" fill="white"/>
<path opacity="0.3" d="M423.89 265.75H422.33V275.31H423.89V265.75Z" fill="white"/>
<path opacity="0.3" d="M420.89 265.75H419.33V275.31H420.89V265.75Z" fill="white"/>
<path opacity="0.3" d="M432.89 281.92H431.33V291.49H432.89V281.92Z" fill="white"/>
<path opacity="0.3" d="M429.89 281.92H428.33V291.49H429.89V281.92Z" fill="white"/>
<path opacity="0.3" d="M426.89 281.92H425.33V291.49H426.89V281.92Z" fill="white"/>
<path opacity="0.3" d="M423.89 281.92H422.33V291.49H423.89V281.92Z" fill="white"/>
<path opacity="0.3" d="M420.89 281.92H419.33V291.49H420.89V281.92Z" fill="white"/>
<path opacity="0.3" d="M432.89 298.09H431.33V307.65H432.89V298.09Z" fill="white"/>
<path opacity="0.3" d="M429.89 298.09H428.33V307.65H429.89V298.09Z" fill="white"/>
<path opacity="0.3" d="M426.89 298.09H425.33V307.65H426.89V298.09Z" fill="white"/>
<path opacity="0.3" d="M423.89 298.09H422.33V307.65H423.89V298.09Z" fill="white"/>
<path opacity="0.3" d="M420.89 298.09H419.33V307.65H420.89V298.09Z" fill="white"/>
<path opacity="0.3" d="M432.89 314.25H431.33V323.82H432.89V314.25Z" fill="white"/>
<path opacity="0.3" d="M429.89 314.25H428.33V323.82H429.89V314.25Z" fill="white"/>
<path opacity="0.3" d="M426.89 314.25H425.33V323.82H426.89V314.25Z" fill="white"/>
<path opacity="0.3" d="M423.89 314.25H422.33V323.82H423.89V314.25Z" fill="white"/>
<path opacity="0.3" d="M420.89 314.25H419.33V323.82H420.89V314.25Z" fill="white"/>
<path opacity="0.2" d="M377.13 238.19C377.13 238.504 377.037 238.812 376.862 239.073C376.687 239.335 376.439 239.539 376.148 239.659C375.858 239.779 375.538 239.811 375.23 239.749C374.921 239.688 374.638 239.537 374.416 239.314C374.193 239.092 374.042 238.809 373.981 238.5C373.919 238.192 373.951 237.872 374.071 237.582C374.191 237.291 374.395 237.043 374.657 236.868C374.918 236.693 375.226 236.6 375.54 236.6C375.962 236.6 376.366 236.768 376.664 237.066C376.962 237.364 377.13 237.768 377.13 238.19Z" fill="white"/>
<path opacity="0.2" d="M387.13 238.19C387.13 238.504 387.037 238.812 386.862 239.073C386.687 239.335 386.439 239.539 386.148 239.659C385.858 239.779 385.538 239.811 385.23 239.749C384.921 239.688 384.638 239.537 384.416 239.314C384.193 239.092 384.042 238.809 383.981 238.5C383.919 238.192 383.951 237.872 384.071 237.582C384.191 237.291 384.395 237.043 384.657 236.868C384.918 236.693 385.226 236.6 385.54 236.6C385.962 236.6 386.366 236.768 386.664 237.066C386.962 237.364 387.13 237.768 387.13 238.19Z" fill="white"/>
<path opacity="0.4" d="M397.13 238.19C397.13 238.504 397.037 238.812 396.862 239.073C396.687 239.335 396.439 239.539 396.148 239.659C395.858 239.779 395.538 239.811 395.23 239.749C394.921 239.688 394.638 239.537 394.416 239.314C394.193 239.092 394.042 238.809 393.981 238.5C393.919 238.192 393.951 237.872 394.071 237.582C394.191 237.291 394.395 237.043 394.657 236.868C394.918 236.693 395.226 236.6 395.54 236.6C395.962 236.6 396.366 236.768 396.664 237.066C396.962 237.364 397.13 237.768 397.13 238.19Z" fill="white"/>
<path opacity="0.4" d="M377.13 254.36C377.13 254.674 377.037 254.982 376.862 255.243C376.687 255.505 376.439 255.709 376.148 255.829C375.858 255.949 375.538 255.981 375.23 255.919C374.921 255.858 374.638 255.707 374.416 255.484C374.193 255.262 374.042 254.979 373.981 254.67C373.919 254.362 373.951 254.042 374.071 253.752C374.191 253.461 374.395 253.213 374.657 253.038C374.918 252.863 375.226 252.77 375.54 252.77C375.962 252.77 376.366 252.938 376.664 253.236C376.962 253.534 377.13 253.938 377.13 254.36Z" fill="white"/>
<path opacity="0.2" d="M387.13 254.36C387.13 254.674 387.037 254.982 386.862 255.243C386.687 255.505 386.439 255.709 386.148 255.829C385.858 255.949 385.538 255.981 385.23 255.919C384.921 255.858 384.638 255.707 384.416 255.484C384.193 255.262 384.042 254.979 383.981 254.67C383.919 254.362 383.951 254.042 384.071 253.752C384.191 253.461 384.395 253.213 384.657 253.038C384.918 252.863 385.226 252.77 385.54 252.77C385.962 252.77 386.366 252.938 386.664 253.236C386.962 253.534 387.13 253.938 387.13 254.36Z" fill="white"/>
<path opacity="0.4" d="M397.13 254.36C397.13 254.674 397.037 254.982 396.862 255.243C396.687 255.505 396.439 255.709 396.148 255.829C395.858 255.949 395.538 255.981 395.23 255.919C394.921 255.858 394.638 255.707 394.416 255.484C394.193 255.262 394.042 254.979 393.981 254.67C393.919 254.362 393.951 254.042 394.071 253.752C394.191 253.461 394.395 253.213 394.657 253.038C394.918 252.863 395.226 252.77 395.54 252.77C395.962 252.77 396.366 252.938 396.664 253.236C396.962 253.534 397.13 253.938 397.13 254.36Z" fill="white"/>
<path opacity="0.2" d="M377.13 270.53C377.13 270.844 377.037 271.152 376.862 271.413C376.687 271.675 376.439 271.879 376.148 271.999C375.858 272.119 375.538 272.151 375.23 272.089C374.921 272.028 374.638 271.877 374.416 271.654C374.193 271.432 374.042 271.149 373.981 270.84C373.919 270.532 373.951 270.212 374.071 269.922C374.191 269.631 374.395 269.383 374.657 269.208C374.918 269.033 375.226 268.94 375.54 268.94C375.962 268.94 376.366 269.108 376.664 269.406C376.962 269.704 377.13 270.108 377.13 270.53Z" fill="white"/>
<path opacity="0.4" d="M387.13 270.53C387.13 270.844 387.037 271.152 386.862 271.413C386.687 271.675 386.439 271.879 386.148 271.999C385.858 272.119 385.538 272.151 385.23 272.089C384.921 272.028 384.638 271.877 384.416 271.654C384.193 271.432 384.042 271.149 383.981 270.84C383.919 270.532 383.951 270.212 384.071 269.922C384.191 269.631 384.395 269.383 384.657 269.208C384.918 269.033 385.226 268.94 385.54 268.94C385.962 268.94 386.366 269.108 386.664 269.406C386.962 269.704 387.13 270.108 387.13 270.53Z" fill="white"/>
<path opacity="0.2" d="M397.13 270.53C397.13 270.844 397.037 271.152 396.862 271.413C396.687 271.675 396.439 271.879 396.148 271.999C395.858 272.119 395.538 272.151 395.23 272.089C394.921 272.028 394.638 271.877 394.416 271.654C394.193 271.432 394.042 271.149 393.981 270.84C393.919 270.532 393.951 270.212 394.071 269.922C394.191 269.631 394.395 269.383 394.657 269.208C394.918 269.033 395.226 268.94 395.54 268.94C395.962 268.94 396.366 269.108 396.664 269.406C396.962 269.704 397.13 270.108 397.13 270.53Z" fill="white"/>
<path opacity="0.4" d="M377.13 286.7C377.13 287.014 377.037 287.322 376.862 287.583C376.687 287.845 376.439 288.049 376.148 288.169C375.858 288.289 375.538 288.321 375.23 288.259C374.921 288.198 374.638 288.047 374.416 287.824C374.193 287.602 374.042 287.319 373.981 287.01C373.919 286.702 373.951 286.382 374.071 286.092C374.191 285.801 374.395 285.553 374.657 285.378C374.918 285.203 375.226 285.11 375.54 285.11C375.962 285.11 376.366 285.278 376.664 285.576C376.962 285.874 377.13 286.278 377.13 286.7Z" fill="white"/>
<path opacity="0.2" d="M387.13 286.7C387.13 287.014 387.037 287.322 386.862 287.583C386.687 287.845 386.439 288.049 386.148 288.169C385.858 288.289 385.538 288.321 385.23 288.259C384.921 288.198 384.638 288.047 384.416 287.824C384.193 287.602 384.042 287.319 383.981 287.01C383.919 286.702 383.951 286.382 384.071 286.092C384.191 285.801 384.395 285.553 384.657 285.378C384.918 285.203 385.226 285.11 385.54 285.11C385.962 285.11 386.366 285.278 386.664 285.576C386.962 285.874 387.13 286.278 387.13 286.7Z" fill="white"/>
<path opacity="0.2" d="M397.13 286.7C397.13 287.014 397.037 287.322 396.862 287.583C396.687 287.845 396.439 288.049 396.148 288.169C395.858 288.289 395.538 288.321 395.23 288.259C394.921 288.198 394.638 288.047 394.416 287.824C394.193 287.602 394.042 287.319 393.981 287.01C393.919 286.702 393.951 286.382 394.071 286.092C394.191 285.801 394.395 285.553 394.657 285.378C394.918 285.203 395.226 285.11 395.54 285.11C395.962 285.11 396.366 285.278 396.664 285.576C396.962 285.874 397.13 286.278 397.13 286.7Z" fill="white"/>
<path opacity="0.2" d="M377.13 302.87C377.13 303.184 377.037 303.492 376.862 303.753C376.687 304.015 376.439 304.219 376.148 304.339C375.858 304.459 375.538 304.491 375.23 304.429C374.921 304.368 374.638 304.217 374.416 303.994C374.193 303.772 374.042 303.489 373.981 303.18C373.919 302.872 373.951 302.552 374.071 302.262C374.191 301.971 374.395 301.723 374.657 301.548C374.918 301.373 375.226 301.28 375.54 301.28C375.962 301.28 376.366 301.448 376.664 301.746C376.962 302.044 377.13 302.448 377.13 302.87Z" fill="white"/>
<path opacity="0.4" d="M387.13 302.87C387.13 303.184 387.037 303.492 386.862 303.753C386.687 304.015 386.439 304.219 386.148 304.339C385.858 304.459 385.538 304.491 385.23 304.429C384.921 304.368 384.638 304.217 384.416 303.994C384.193 303.772 384.042 303.489 383.981 303.18C383.919 302.872 383.951 302.552 384.071 302.262C384.191 301.971 384.395 301.723 384.657 301.548C384.918 301.373 385.226 301.28 385.54 301.28C385.962 301.28 386.366 301.448 386.664 301.746C386.962 302.044 387.13 302.448 387.13 302.87Z" fill="white"/>
<path opacity="0.4" d="M397.13 302.87C397.13 303.184 397.037 303.492 396.862 303.753C396.687 304.015 396.439 304.219 396.148 304.339C395.858 304.459 395.538 304.491 395.23 304.429C394.921 304.368 394.638 304.217 394.416 303.994C394.193 303.772 394.042 303.489 393.981 303.18C393.919 302.872 393.951 302.552 394.071 302.262C394.191 301.971 394.395 301.723 394.657 301.548C394.918 301.373 395.226 301.28 395.54 301.28C395.962 301.28 396.366 301.448 396.664 301.746C396.962 302.044 397.13 302.448 397.13 302.87Z" fill="white"/>
<path opacity="0.4" d="M377.13 319C377.13 319.314 377.037 319.622 376.862 319.883C376.687 320.145 376.439 320.349 376.148 320.469C375.858 320.589 375.538 320.621 375.23 320.559C374.921 320.498 374.638 320.347 374.416 320.124C374.193 319.902 374.042 319.619 373.981 319.31C373.919 319.002 373.951 318.682 374.071 318.392C374.191 318.101 374.395 317.853 374.657 317.678C374.918 317.503 375.226 317.41 375.54 317.41C375.962 317.41 376.366 317.578 376.664 317.876C376.962 318.174 377.13 318.578 377.13 319Z" fill="white"/>
<path opacity="0.2" d="M387.13 319C387.13 319.314 387.037 319.622 386.862 319.883C386.687 320.145 386.439 320.349 386.148 320.469C385.858 320.589 385.538 320.621 385.23 320.559C384.921 320.498 384.638 320.347 384.416 320.124C384.193 319.902 384.042 319.619 383.981 319.31C383.919 319.002 383.951 318.682 384.071 318.392C384.191 318.101 384.395 317.853 384.657 317.678C384.918 317.503 385.226 317.41 385.54 317.41C385.962 317.41 386.366 317.578 386.664 317.876C386.962 318.174 387.13 318.578 387.13 319Z" fill="white"/>
<path opacity="0.4" d="M397.13 319C397.13 319.314 397.037 319.622 396.862 319.883C396.687 320.145 396.439 320.349 396.148 320.469C395.858 320.589 395.538 320.621 395.23 320.559C394.921 320.498 394.638 320.347 394.416 320.124C394.193 319.902 394.042 319.619 393.981 319.31C393.919 319.002 393.951 318.682 394.071 318.392C394.191 318.101 394.395 317.853 394.657 317.678C394.918 317.503 395.226 317.41 395.54 317.41C395.962 317.41 396.366 317.578 396.664 317.876C396.962 318.174 397.13 318.578 397.13 319Z" fill="white"/>
<path opacity="0.3" d="M365.65 226.39H330.99V330.83H365.65V226.39Z" fill="black"/>
<path d="M431.15 96.26H329.95C327.222 96.26 325.01 98.4717 325.01 101.2V184.72C325.01 187.448 327.222 189.66 329.95 189.66H431.15C433.878 189.66 436.09 187.448 436.09 184.72V101.2C436.09 98.4717 433.878 96.26 431.15 96.26Z" fill="#90CAF9"/>
<path opacity="0.5" d="M431.15 96.26H329.95C327.222 96.26 325.01 98.4717 325.01 101.2V184.72C325.01 187.448 327.222 189.66 329.95 189.66H431.15C433.878 189.66 436.09 187.448 436.09 184.72V101.2C436.09 98.4717 433.878 96.26 431.15 96.26Z" fill="white"/>
<path d="M329.64 96.26H431.54C432.747 96.26 433.904 96.7394 434.757 97.5927C435.611 98.4459 436.09 99.6033 436.09 100.81V112.55H325V100.89C325 100.281 325.12 99.6782 325.353 99.1158C325.587 98.5535 325.929 98.0426 326.36 97.6125C326.791 97.1825 327.302 96.8416 327.865 96.6095C328.428 96.3775 329.031 96.2587 329.64 96.26Z" fill="#90CAF9"/>
<path opacity="0.5" d="M429.81 105.59C429.812 106.295 429.605 106.985 429.214 107.572C428.824 108.159 428.268 108.616 427.617 108.887C426.966 109.158 426.249 109.229 425.558 109.092C424.866 108.955 424.231 108.616 423.733 108.117C423.234 107.619 422.895 106.984 422.758 106.292C422.621 105.601 422.692 104.884 422.963 104.233C423.234 103.582 423.691 103.026 424.278 102.636C424.865 102.245 425.555 102.038 426.26 102.04C426.726 102.04 427.188 102.132 427.619 102.31C428.049 102.489 428.441 102.75 428.77 103.08C429.1 103.409 429.361 103.801 429.54 104.231C429.718 104.662 429.81 105.124 429.81 105.59Z" fill="white"/>
<path opacity="0.5" d="M419.71 105.59C419.712 106.295 419.505 106.984 419.115 107.571C418.725 108.157 418.17 108.615 417.519 108.886C416.869 109.157 416.153 109.229 415.462 109.093C414.77 108.957 414.135 108.618 413.636 108.121C413.137 107.623 412.797 106.989 412.659 106.298C412.521 105.607 412.591 104.891 412.86 104.24C413.129 103.589 413.585 103.032 414.171 102.641C414.757 102.249 415.445 102.04 416.15 102.04C417.092 102.04 417.996 102.414 418.664 103.079C419.331 103.745 419.707 104.648 419.71 105.59Z" fill="white"/>
<path opacity="0.5" d="M409.6 105.59C409.602 106.295 409.395 106.985 409.004 107.572C408.614 108.159 408.058 108.616 407.407 108.887C406.756 109.158 406.039 109.229 405.348 109.092C404.656 108.955 404.021 108.616 403.523 108.117C403.024 107.619 402.685 106.984 402.548 106.292C402.411 105.601 402.482 104.884 402.753 104.233C403.024 103.582 403.481 103.026 404.068 102.636C404.655 102.245 405.345 102.038 406.05 102.04C406.516 102.04 406.978 102.132 407.408 102.31C407.839 102.489 408.231 102.75 408.56 103.08C408.89 103.409 409.151 103.801 409.33 104.231C409.508 104.662 409.6 105.124 409.6 105.59Z" fill="white"/>
<path opacity="0.6" d="M406.98 126.16H350.01V129.48H406.98V126.16Z" fill="white"/>
<path opacity="0.6" d="M391.66 133.34H350.89V136.66H391.66V133.34Z" fill="#263238"/>
<path d="M422.38 126.16H411.17V129.48H422.38V126.16Z" fill="#90CAF9"/>
<path d="M346.05 126.16H334.84V129.48H346.05V126.16Z" fill="#90CAF9"/>
<path d="M406.98 141.31H350.01V144.63H406.98V141.31Z" fill="#90CAF9"/>
<path opacity="0.6" d="M422.38 141.31H411.17V144.63H422.38V141.31Z" fill="white"/>
<path d="M346.05 141.31H334.84V144.63H346.05V141.31Z" fill="#90CAF9"/>
<path d="M406.98 172.87H350.01V176.19H406.98V172.87Z" fill="#90CAF9"/>
<path opacity="0.6" d="M422.38 172.87H411.17V176.19H422.38V172.87Z" fill="white"/>
<path d="M406.98 149.29H350.01V152.61H406.98V149.29Z" fill="#90CAF9"/>
<path opacity="0.6" d="M422.38 149.29H411.17V152.61H422.38V149.29Z" fill="#263238"/>
<path opacity="0.6" d="M346.05 149.29H334.84V152.61H346.05V149.29Z" fill="#263238"/>
<path d="M423.2 133.47H396.12V136.79H423.2V133.47Z" fill="#90CAF9"/>
<path opacity="0.6" d="M390.78 156.25H350.01V159.57H390.78V156.25Z" fill="white"/>
<path d="M422.32 156.38H395.24V159.7H422.32V156.38Z" fill="#90CAF9"/>
<path opacity="0.6" d="M370.39 163.46H350.01V166.78H370.39V163.46Z" fill="#263238"/>
<path d="M129.84 0.649994H28.64C25.9117 0.649994 23.7 2.8617 23.7 5.58999V89.11C23.7 91.8383 25.9117 94.05 28.64 94.05H129.84C132.568 94.05 134.78 91.8383 134.78 89.11V5.58999C134.78 2.8617 132.568 0.649994 129.84 0.649994Z" fill="#90CAF9"/>
<path opacity="0.5" d="M129.84 0.649994H28.64C25.9117 0.649994 23.7 2.8617 23.7 5.58999V89.11C23.7 91.8383 25.9117 94.05 28.64 94.05H129.84C132.568 94.05 134.78 91.8383 134.78 89.11V5.58999C134.78 2.8617 132.568 0.649994 129.84 0.649994Z" fill="white"/>
<path d="M28.32 0.649994H130.23C131.437 0.649994 132.594 1.12937 133.447 1.98266C134.301 2.83595 134.78 3.99325 134.78 5.19999V16.94H23.7V5.27999C23.7 4.05377 24.1864 2.87763 25.0526 2.00962C25.9187 1.14161 27.0938 0.652642 28.32 0.649994Z" fill="#90CAF9"/>
<path opacity="0.5" d="M128.5 9.99999C128.498 10.7062 128.286 11.3958 127.891 11.9812C127.496 12.5665 126.935 13.0211 126.281 13.2872C125.627 13.5532 124.908 13.6187 124.217 13.4753C123.526 13.3319 122.892 12.986 122.398 12.4817C121.904 11.9775 121.57 11.3375 121.441 10.6433C121.311 9.94913 121.391 9.23205 121.67 8.58327C121.948 7.93449 122.414 7.38333 123.007 6.9999C123.6 6.61647 124.294 6.4181 125 6.42999C125.936 6.44317 126.829 6.82573 127.485 7.49439C128.141 8.16304 128.505 9.06362 128.5 9.99999Z" fill="white"/>
<path opacity="0.5" d="M118.4 9.99998C118.4 10.7041 118.191 11.3924 117.8 11.9778C117.409 12.5633 116.853 13.0195 116.202 13.289C115.552 13.5584 114.836 13.6289 114.145 13.4916C113.455 13.3542 112.821 13.0152 112.323 12.5173C111.825 12.0194 111.486 11.3851 111.348 10.6945C111.211 10.0039 111.282 9.28814 111.551 8.63763C111.82 7.98713 112.277 7.43113 112.862 7.03995C113.448 6.64878 114.136 6.43999 114.84 6.43999C115.308 6.43867 115.771 6.52984 116.204 6.70828C116.636 6.88672 117.029 7.1489 117.36 7.47974C117.691 7.81058 117.953 8.20355 118.132 8.63607C118.31 9.06858 118.401 9.53211 118.4 9.99998Z" fill="white"/>
<path opacity="0.5" d="M108.29 9.99998C108.29 10.7045 108.081 11.3932 107.689 11.9788C107.298 12.5645 106.741 13.0208 106.09 13.2899C105.439 13.5591 104.723 13.629 104.032 13.4908C103.341 13.3527 102.707 13.0126 102.209 12.5137C101.712 12.0148 101.373 11.3796 101.237 10.6884C101.101 9.99712 101.173 9.28102 101.444 8.63069C101.715 7.98036 102.173 7.42506 102.759 7.03509C103.346 6.64511 104.035 6.43801 104.74 6.43999C105.207 6.43998 105.669 6.53214 106.101 6.71117C106.532 6.89019 106.924 7.15258 107.254 7.48329C107.584 7.814 107.845 8.20653 108.023 8.63839C108.2 9.07025 108.291 9.53295 108.29 9.99998Z" fill="white"/>
<path d="M114.24 52.72C110.56 47.78 103.01 45.37 97.98 48.94C97.2096 43.4169 94.2766 38.426 89.8264 35.0654C85.3761 31.7047 79.7731 30.2495 74.25 31.02C68.7269 31.7904 63.736 34.7234 60.3754 39.1736C57.0147 43.6239 55.5596 49.2269 56.33 54.75C51.47 53.64 46.13 54.81 42.98 59.83C38.88 66.33 44.19 72.78 44.19 72.78L72.69 72.95V62.5H69.05C68.9057 62.5015 68.7642 62.4603 68.6433 62.3814C68.5225 62.3025 68.4277 62.1896 68.371 62.0569C68.3143 61.9243 68.2982 61.7777 68.3247 61.6359C68.3512 61.494 68.4192 61.3632 68.52 61.26L72.71 56.88L77.57 51.81C77.6389 51.7392 77.7214 51.683 77.8124 51.6446C77.9034 51.6062 78.0012 51.5864 78.1 51.5864C78.1988 51.5864 78.2966 51.6062 78.3876 51.6446C78.4786 51.683 78.5611 51.7392 78.63 51.81L83.48 56.88L87.68 61.26C87.7762 61.3649 87.8401 61.4953 87.8641 61.6356C87.888 61.7759 87.871 61.9201 87.8151 62.051C87.7591 62.1819 87.6666 62.2938 87.5487 62.3735C87.4307 62.4531 87.2923 62.497 87.15 62.5H83.5V73L113.84 73.17C118.16 68.21 117.93 57.66 114.24 52.72Z" fill="white"/>
<path d="M71.52 333.61C71.52 333.61 158.64 313.2 162.78 331.34C168.7 357.25 105.84 374.67 72.36 373.61C38.88 372.55 71.52 333.61 71.52 333.61Z" fill="#263238"/>
<path opacity="0.2" d="M71.52 333.61C71.52 333.61 158.64 313.2 162.78 331.34C168.7 357.25 105.84 374.67 72.36 373.61C38.88 372.55 71.52 333.61 71.52 333.61Z" fill="black"/>
<path opacity="0.7" d="M134.2 336.94L93.28 362.94L98.74 370.7C98.74 370.7 95.87 374.97 90.39 361.87L115.7 345.14C115.7 345.14 107.78 344.35 107.98 343.14C108.32 341.14 125.72 337.23 133.66 335.49C133.852 335.436 134.057 335.457 134.234 335.548C134.411 335.638 134.548 335.793 134.616 335.98C134.684 336.167 134.679 336.373 134.602 336.556C134.525 336.74 134.381 336.888 134.2 336.97V336.94Z" fill="black"/>
<path opacity="0.7" d="M91.8 360L98.9 371.5C90.1376 373.02 81.2524 373.72 72.36 373.59C69.4421 373.569 66.5496 373.045 63.81 372.04L61.32 367.48L66.68 356.68L91.8 360Z" fill="black"/>
<path d="M105.34 355.44L87.15 366.98L90.41 375.81L111.77 366.21L105.34 355.44Z" fill="#B97964"/>
<path d="M77.13 369.94L78.92 376.29C79.3246 376.393 79.6973 376.595 80.0045 376.878C80.3117 377.161 80.5438 377.515 80.68 377.91C80.7354 378.861 80.6272 379.815 80.36 380.73L85.14 398.24C85.7209 398.087 86.2815 397.866 86.81 397.58C87.3219 397.217 87.7886 396.794 88.2 396.32C89.5 394.83 89.64 392.66 89.69 391.06C89.77 388.38 91.31 380.53 91.31 380.53C91.8564 379.022 92.8079 377.693 94.06 376.69C94.5475 376.337 94.9491 375.878 95.2348 375.349C95.5205 374.819 95.6829 374.231 95.71 373.63C95.6777 373.298 95.5735 372.977 95.4048 372.689C95.236 372.402 95.0067 372.154 94.7327 371.964C94.4587 371.773 94.1466 371.645 93.8181 371.587C93.4895 371.53 93.1524 371.544 92.83 371.63L91.09 371.84C90.472 371.401 90.0429 370.745 89.889 370.003C89.735 369.261 89.8676 368.488 90.26 367.84C90.26 367.84 91.26 364.03 89.69 364.67C88.77 365.03 84.76 366.83 81.54 368.15L79.46 369L77.13 369.94Z" fill="#263238"/>
<path d="M90.64 384.71C90.6622 384.662 90.6684 384.607 90.6576 384.555C90.6468 384.503 90.6196 384.456 90.58 384.42C90.2007 384.063 89.7301 383.817 89.22 383.71C88.94 383.71 88.82 384.1 89.09 384.16C89.5405 384.252 89.9582 384.462 90.3 384.77C90.3195 384.797 90.345 384.819 90.3746 384.834C90.4041 384.849 90.4368 384.857 90.47 384.857C90.5032 384.857 90.5359 384.849 90.5654 384.834C90.595 384.819 90.6205 384.797 90.64 384.77V384.71Z" fill="#90CAF9"/>
<path d="M91 383.16C91.0222 383.112 91.0284 383.057 91.0176 383.005C91.0068 382.953 90.9796 382.906 90.94 382.87C90.561 382.514 90.0899 382.272 89.58 382.17C89.3 382.11 89.17 382.55 89.45 382.61C89.9005 382.702 90.3182 382.912 90.66 383.22C90.6832 383.244 90.7119 383.263 90.7438 383.274C90.7756 383.285 90.8097 383.288 90.843 383.283C90.8763 383.278 90.908 383.266 90.9353 383.246C90.9627 383.226 90.9849 383.2 91 383.17V383.16Z" fill="#90CAF9"/>
<path d="M91.3 381.59C91.3202 381.54 91.3252 381.484 91.3146 381.431C91.3039 381.378 91.278 381.329 91.24 381.29C90.8536 380.939 90.3807 380.698 89.87 380.59C89.6 380.53 89.47 380.97 89.75 381.03C90.1983 381.126 90.6127 381.34 90.95 381.65C90.9739 381.674 91.0032 381.692 91.0356 381.702C91.0679 381.713 91.1023 381.715 91.1357 381.709C91.1691 381.703 91.2006 381.689 91.2275 381.668C91.2544 381.648 91.2758 381.621 91.29 381.59H91.3Z" fill="#90CAF9"/>
<path opacity="0.2" d="M79.46 369L77.13 370L78.92 376.35C79.3246 376.453 79.6973 376.655 80.0045 376.938C80.3117 377.221 80.5438 377.575 80.68 377.97C80.7354 378.921 80.6272 379.875 80.36 380.79L85.14 398.3C85.7209 398.147 86.2815 397.926 86.81 397.64C87.07 397.45 87.3 397.26 87.52 397.07L79.81 368.9L79.46 369Z" fill="white"/>
<path d="M93.73 382.87C93.5589 382.868 93.3882 382.851 93.22 382.82C92.414 382.524 91.6584 382.106 90.98 381.58L90.78 381.45L91 381.36C91.5964 381.124 92.212 380.94 92.84 380.81C93.4814 380.672 94.1484 380.71 94.77 380.92C94.948 380.94 95.1145 381.018 95.2441 381.142C95.3737 381.265 95.4591 381.428 95.4875 381.605C95.5158 381.782 95.4855 381.963 95.4011 382.121C95.3166 382.279 95.1828 382.405 95.02 382.48C94.6417 382.742 94.1903 382.879 93.73 382.87ZM91.31 381.52C91.9161 381.975 92.5914 382.329 93.31 382.57C93.5825 382.632 93.8647 382.639 94.1397 382.589C94.4147 382.539 94.6767 382.434 94.91 382.28C95.0227 382.214 95.1156 382.119 95.1789 382.004C95.2422 381.89 95.2737 381.761 95.27 381.63C95.21 381.37 94.91 381.22 94.73 381.15C94.146 380.958 93.5216 380.923 92.92 381.05C92.3705 381.159 91.8317 381.316 91.31 381.52Z" fill="#90CAF9"/>
<path d="M90.92 381.65V381.42C90.83 380.563 90.8671 379.697 91.03 378.85C91.1344 378.553 91.2969 378.28 91.5081 378.046C91.7193 377.813 91.9749 377.624 92.26 377.49C92.4067 377.397 92.5792 377.352 92.7526 377.364C92.9261 377.375 93.0915 377.441 93.225 377.552C93.3586 377.663 93.4533 377.814 93.4955 377.983C93.5377 378.151 93.5253 378.329 93.46 378.49C93.3172 379.132 93.0026 379.723 92.55 380.2C92.1155 380.665 91.6403 381.09 91.13 381.47L90.92 381.65ZM92.73 377.65C92.5959 377.65 92.4633 377.677 92.34 377.73C92.0859 377.85 91.8585 378.02 91.6713 378.229C91.4841 378.439 91.3408 378.684 91.25 378.95C91.0962 379.68 91.059 380.429 91.14 381.17C91.5736 380.838 91.9784 380.47 92.35 380.07C92.7654 379.622 93.0582 379.074 93.2 378.48C93.238 378.36 93.246 378.233 93.2233 378.109C93.2007 377.985 93.148 377.869 93.07 377.77C93.0251 377.726 92.9719 377.692 92.9134 377.67C92.8549 377.648 92.7925 377.637 92.73 377.64V377.65Z" fill="#90CAF9"/>
<path d="M107.51 278.18C107.51 278.18 110.69 306.5 111.51 308.02C114.39 313.16 133.44 322.02 133.44 322.02L143.15 320.02L150.15 325.83L145.56 329.42L140.18 327.42C137.242 327.944 134.264 328.205 131.28 328.2C126.28 328.2 102.07 322.07 98.03 315.32C93.99 308.57 92.14 277.32 92.14 277.32L107.51 278.18Z" fill="#B97964"/>
<path d="M91.71 289.31C91.71 289.31 84.25 264.44 93.55 257.53C102.85 250.62 110.24 284.83 110.24 284.83L91.71 289.31Z" fill="#90CAF9"/>
<path opacity="0.3" d="M91.71 289.31C91.71 289.31 84.25 264.44 93.55 257.53C102.85 250.62 110.24 284.83 110.24 284.83L91.71 289.31Z" fill="white"/>
<path d="M97.6 334.81L97.53 301.81L96.61 256.41L77.34 252.41L60.34 251.66L41.1 260.55L40.65 271.63C40.65 271.63 42.85 322.49 42.73 324.03C42.58 325.91 37.1 337.7 37.1 337.7C61.48 343.26 98 336.49 97.6 334.81Z" fill="#90CAF9"/>
<path opacity="0.3" d="M97.6 334.81L97.53 301.81L96.61 256.41L77.34 252.41L60.34 251.66L41.1 260.55L40.65 271.63C40.65 271.63 42.85 322.49 42.73 324.03C42.58 325.91 37.1 337.7 37.1 337.7C61.48 343.26 98 336.49 97.6 334.81Z" fill="white"/>
<path d="M70 259C70 259 74.73 263.21 77.15 257.77L78.41 258.77C78.41 258.77 78.29 262.82 75.99 264.17C76.55 266.42 86.15 299.12 87.87 315.6L85.25 322.29L78.25 316.78C78.25 316.78 74.87 288.51 73.71 264.48C72.353 264.025 71.1124 263.278 70.0757 262.292C69.039 261.305 68.2314 260.103 67.71 258.77L70 259Z" fill="#90CAF9"/>
<path opacity="0.2" d="M76.1 259.58L80.2 262.77L80.87 253.2L79.57 252.92L78.48 259.37L76.54 258.24L76.1 259.58Z" fill="black"/>
<path opacity="0.2" d="M56.35 253.57C56.28 253.57 66 265.46 66 265.46L69.3 262.94L71.57 261.02L72.16 260.3L59.29 251.36C58.6991 251.991 58.0642 252.579 57.39 253.12C57.0298 253.236 56.6815 253.387 56.35 253.57Z" fill="black"/>
<path d="M57.04 253.37L61.74 249.17L74.61 261.22L71.25 260.03L66.34 263.8L57.04 253.37Z" fill="#90CAF9"/>
<path d="M74.61 261.22C74.33 260.67 75.61 249.73 75.61 249.73L80.17 252.85C79.93 252.8 79.77 261.85 79.62 261.85C79.47 261.85 76.62 258.75 76.62 258.75L74.61 261.22Z" fill="#90CAF9"/>
<path opacity="0.2" d="M97.26 287.97L96.26 266.71L101.02 287.06L97.26 287.97Z" fill="black"/>
<path opacity="0.2" d="M56 291.07C56.6 290.95 59.63 289.95 59.63 289.95L52.9 271.17L62.17 292L56.6 294.22L56 291.07Z" fill="black"/>
<path opacity="0.3" d="M57.04 253.37L61.74 249.17L74.61 261.22L71.25 260.03L66.34 263.8L57.04 253.37Z" fill="white"/>
<path opacity="0.3" d="M74.61 261.22C74.33 260.67 75.61 249.73 75.61 249.73L80.17 252.85C79.93 252.8 79.77 261.85 79.62 261.85C79.47 261.85 76.62 258.75 76.62 258.75L74.61 261.22Z" fill="white"/>
<path opacity="0.3" d="M81.91 278.8L84.07 289.41L90.36 291.69L94.61 287.98L93.83 277.96L81.91 278.8Z" fill="white"/>
<path d="M75.38 260.3L73.38 260.78C73.38 260.78 73.31 260.91 73.38 260.83C73.45 260.75 72.29 264.6 72.29 264.6C72.61 264.89 73.68 266.74 73.8 266.71C73.92 266.68 76.57 266.43 76.57 266.43L77.57 263.63L75.38 260.3Z" fill="#90CAF9"/>
<path opacity="0.2" d="M75.38 260.3L73.38 260.78C73.38 260.78 73.31 260.91 73.38 260.83C73.45 260.75 72.29 264.6 72.29 264.6C72.61 264.89 73.68 266.74 73.8 266.71C73.92 266.68 76.57 266.43 76.57 266.43L77.57 263.63L75.38 260.3Z" fill="black"/>
<path d="M53.41 275.49C53.41 275.49 58.13 306.93 60.86 309.87C65.47 314.87 88.32 328.02 88.32 328.02L99.73 324.02C100.12 323.89 100.536 323.857 100.942 323.923C101.348 323.989 101.731 324.153 102.06 324.4L109.86 330.4L109.12 331.03C108.959 331.164 108.763 331.249 108.556 331.274C108.348 331.298 108.138 331.262 107.95 331.17L106.74 330.57L108.09 331.89L107.67 332.26C107.455 332.439 107.2 332.563 106.927 332.622C106.653 332.681 106.37 332.674 106.1 332.6L102.61 331.66L105.83 333.81C105.467 334.108 105.037 334.313 104.578 334.409C104.118 334.505 103.642 334.488 103.19 334.36L98.09 332.91C94.6074 333.703 91.0654 334.208 87.5 334.42C81.5 334.79 53.13 324.88 47.84 317.63C42.55 310.38 37.1 280.19 37.1 280.19L53.41 275.49Z" fill="#B97964"/>
<path d="M38.31 296.41C38.31 296.41 31.24 267.91 40.54 261C49.84 254.09 59.05 290.15 59.05 290.15L38.31 296.41Z" fill="#90CAF9"/>
<path opacity="0.3" d="M38.31 296.41C38.31 296.41 31.24 267.91 40.54 261C49.84 254.09 59.05 290.15 59.05 290.15L38.31 296.41Z" fill="white"/>
<path d="M99.18 222.69C99.7727 222.626 100.323 222.352 100.731 221.918C101.139 221.483 101.377 220.916 101.402 220.32C101.428 219.725 101.239 219.14 100.869 218.672C100.5 218.204 99.9752 217.884 99.39 217.77L93.88 217.22C94.14 220.76 94.4033 224.297 94.67 227.83C95.7297 228.15 96.8603 228.15 97.92 227.83C98.448 227.663 98.9294 227.374 99.3254 226.986C99.7213 226.599 100.021 226.124 100.2 225.6C100.366 225.07 100.356 224.5 100.173 223.976C99.9888 223.452 99.6407 223.001 99.18 222.69Z" fill="#263238"/>
<path d="M78.11 243.1L66.26 228.19C66.26 228.19 66.26 228.19 66.26 228.24C66.26 229.65 66.26 231.24 66.1 232.98C66.1 232.98 64.82 232.37 64.82 232.39C64.31 240.13 61.25 253.39 61.39 254.49L73.84 260.68L76.11 258.41L76.55 253.41C75.28 250.21 76.46 246.53 78.11 243.1Z" fill="#B97964"/>
<path opacity="0.2" d="M76.33 248.13L68.84 242.21C68.65 245.21 70.23 249.96 76.24 252.42C75.9143 251.005 75.9452 249.53 76.33 248.13Z" fill="black"/>
<path d="M68.79 220.8C66.34 230.8 65.41 235.65 68.79 242.21C73.94 252.07 86.53 252.15 91.95 243.02C96.82 234.81 100.02 219.79 91.55 212.96C89.6737 211.461 87.449 210.46 85.0824 210.051C82.7158 209.642 80.2842 209.837 78.0134 210.619C75.7427 211.402 73.7065 212.745 72.0939 214.525C70.4814 216.305 69.3449 218.463 68.79 220.8Z" fill="#B97964"/>
<path d="M70.9 207.18C73.9 202.18 81.9 201.37 84.83 205.32C85.26 205.91 80.52 206.05 81.06 206.02L78.28 213.93C77.73 213.62 76.37 213.93 75.22 215.57C75.22 215.57 73.43 226.45 67.79 229.49C62.26 221.85 62.89 207.2 70.9 207.18Z" fill="#263238"/>
<path d="M62.35 227.8C62.362 229.083 62.628 230.35 63.1327 231.529C63.6373 232.708 64.3705 233.776 65.29 234.67C67.78 237.04 70.66 235.2 71.35 232.02C71.96 229.15 71.41 224.45 68.26 223.29C65.11 222.13 62.35 224.62 62.35 227.8Z" fill="#B97964"/>
<path d="M82.37 229.21C82.06 230.21 82.37 231.21 83 231.39C83.63 231.57 84.45 230.93 84.77 229.93C85.09 228.93 84.77 227.93 84.14 227.74C83.51 227.55 82.69 228.2 82.37 229.21Z" fill="#263238"/>
<path d="M92.25 232.42C91.94 233.42 92.25 234.42 92.88 234.6C93.51 234.78 94.34 234.14 94.65 233.14C94.96 232.14 94.65 231.14 94.02 230.95C93.39 230.76 92.57 231.41 92.25 232.42Z" fill="#263238"/>
<path d="M88.77 229.73C88.77 229.73 90.03 234.32 90.6 237.04C90.6336 237.193 90.6334 237.352 90.5995 237.505C90.5656 237.658 90.4987 237.802 90.4035 237.927C90.3084 238.051 90.1872 238.154 90.0484 238.227C89.9097 238.3 89.7566 238.342 89.6 238.35C88.6143 238.328 87.6492 238.064 86.79 237.58L88.77 229.73Z" fill="#A24E3F"/>
<path d="M81.32 223.16C81.3872 223.216 81.4675 223.253 81.5533 223.269C81.639 223.285 81.7274 223.278 81.81 223.25C82.3851 223.015 83.0072 222.916 83.6269 222.963C84.2466 223.01 84.8468 223.201 85.38 223.52C85.487 223.597 85.6196 223.63 85.7501 223.611C85.8806 223.592 85.9989 223.524 86.08 223.42C86.1554 223.313 86.1861 223.182 86.1655 223.053C86.145 222.924 86.0748 222.808 85.97 222.73C85.3046 222.309 84.5481 222.052 83.7635 221.983C82.979 221.913 82.1892 222.032 81.46 222.33C81.3396 222.377 81.2421 222.469 81.188 222.587C81.1339 222.704 81.1275 222.838 81.17 222.96C81.2023 223.038 81.2539 223.107 81.32 223.16Z" fill="#263238"/>
<path d="M97.5 227.84C97.5963 227.819 97.6858 227.775 97.76 227.71C97.851 227.618 97.902 227.494 97.902 227.365C97.902 227.236 97.851 227.112 97.76 227.02C97.2546 226.425 96.6139 225.961 95.8918 225.665C95.1698 225.369 94.3873 225.251 93.61 225.32C93.4798 225.342 93.3633 225.414 93.285 225.52C93.2066 225.627 93.1726 225.759 93.19 225.89C93.1998 225.954 93.222 226.015 93.2554 226.07C93.2889 226.125 93.3329 226.173 93.3849 226.211C93.4369 226.249 93.4959 226.277 93.5586 226.292C93.6212 226.307 93.6863 226.31 93.75 226.3C94.3664 226.245 94.9869 226.342 95.557 226.582C96.1272 226.823 96.6295 227.2 97.02 227.68C97.0798 227.745 97.1552 227.794 97.2392 227.822C97.3232 227.85 97.413 227.856 97.5 227.84Z" fill="#263238"/>
<path d="M81.54 239.63C81.8858 239.909 82.2536 240.16 82.64 240.38C82.7015 240.411 82.7718 240.42 82.8392 240.406C82.9066 240.391 82.9669 240.354 83.01 240.3C83.0394 240.234 83.0434 240.16 83.0212 240.092C82.9991 240.024 82.9523 239.966 82.89 239.93C81.8979 239.397 81.0457 238.638 80.4027 237.713C79.7597 236.789 79.3442 235.725 79.19 234.61C79.1825 234.542 79.1493 234.479 79.0974 234.435C79.0454 234.39 78.9784 234.367 78.91 234.37C78.848 234.367 78.7873 234.389 78.7406 234.43C78.694 234.471 78.6651 234.528 78.66 234.59C78.6553 234.61 78.6553 234.63 78.66 234.65C78.7766 235.632 79.0921 236.58 79.5872 237.437C80.0824 238.293 80.7468 239.039 81.54 239.63Z" fill="#263238"/>
<path d="M104.15 215.2C103.47 213.2 101.09 212.36 98.98 212.2C99.6375 212.123 100.243 211.806 100.681 211.31C101.119 210.813 101.357 210.172 101.35 209.51C101.309 208.847 101.121 208.201 100.799 207.62C100.477 207.039 100.03 206.537 99.49 206.15C98.5515 205.421 97.4412 204.946 96.266 204.771C95.0907 204.596 93.8902 204.727 92.78 205.15C92.9779 205.032 93.1288 204.849 93.2071 204.632C93.2855 204.415 93.2865 204.178 93.21 203.96C93.0465 203.526 92.7533 203.152 92.37 202.89C91.2252 202.067 89.8348 201.657 88.4267 201.728C87.0186 201.799 85.6764 202.346 84.62 203.28C84.2193 202.071 83.3825 201.056 82.2732 200.431C81.1638 199.806 79.8613 199.616 78.62 199.9C76.23 200.52 71.73 201 71.04 207.11C70.5253 206.619 69.912 206.244 69.2408 206.01C68.5696 205.775 67.8561 205.686 67.1479 205.749C66.4397 205.812 65.753 206.025 65.1337 206.374C64.5144 206.724 63.9768 207.201 63.5566 207.775C63.1365 208.348 62.8435 209.005 62.6972 209.701C62.5509 210.396 62.5547 211.115 62.7084 211.81C62.862 212.504 63.1619 213.157 63.5881 213.726C64.0144 214.296 64.5571 214.767 65.18 215.11C64.6156 214.925 64.0018 214.961 63.4633 215.212C62.9248 215.463 62.5017 215.909 62.28 216.46C62.0853 217.022 62.0438 217.626 62.1598 218.21C62.2758 218.793 62.5451 219.335 62.94 219.78C63.7476 220.65 64.7894 221.268 65.94 221.56C67.008 221.907 68.153 221.942 69.24 221.66C69.7781 221.507 70.267 221.216 70.6582 220.817C71.0493 220.417 71.3292 219.921 71.47 219.38C71.5901 219.95 71.9149 220.456 72.383 220.802C72.8511 221.149 73.4299 221.312 74.01 221.26C74.5877 221.173 75.1232 220.906 75.5399 220.496C75.9566 220.087 76.2331 219.556 76.33 218.98C76.4057 218.402 76.3272 217.815 76.1024 217.278C75.8776 216.74 75.5145 216.272 75.05 215.92C75.3932 216.209 75.797 216.418 76.2315 216.53C76.666 216.643 77.1202 216.656 77.5607 216.57C78.0012 216.484 78.4167 216.3 78.7765 216.031C79.1364 215.763 79.4315 215.417 79.64 215.02C80.5257 216.954 82.0417 218.53 83.94 219.49C84.8983 219.943 85.979 220.07 87.016 219.849C88.053 219.629 88.9889 219.074 89.68 218.27C90.274 219.033 90.9745 219.706 91.76 220.27C92.159 220.547 92.6128 220.735 93.0907 220.821C93.5686 220.907 94.0594 220.89 94.53 220.77C94.9944 220.63 95.3944 220.33 95.6597 219.924C95.9249 219.518 96.0384 219.032 95.98 218.55C96.7209 219.213 97.6167 219.679 98.5849 219.904C99.5531 220.129 100.563 220.107 101.52 219.84C102.452 219.525 103.236 218.878 103.721 218.022C104.206 217.166 104.359 216.162 104.15 215.2Z" fill="#263238"/>
<path d="M114.43 332.63H78.27C78.27 334.01 79.82 335.12 81.72 335.11H140.61C142.49 335.11 144 333.98 143.99 332.61L114.43 332.63Z" fill="#263238"/>
<path d="M141.15 335H108.15C107.909 335.017 107.67 334.94 107.483 334.786C107.297 334.631 107.178 334.411 107.15 334.17C107.152 334.081 107.169 333.993 107.2 333.91L121.9 300.23C122.145 299.72 122.534 299.294 123.02 299.004C123.505 298.714 124.065 298.574 124.63 298.6H157.63C157.871 298.58 158.109 298.655 158.296 298.808C158.482 298.961 158.602 299.18 158.63 299.42C158.629 299.513 158.609 299.605 158.57 299.69L143.88 333.38C143.632 333.886 143.241 334.309 142.756 334.597C142.271 334.884 141.713 335.025 141.15 335Z" fill="#263238"/>
<path opacity="0.7" d="M157.63 298.59H124.63C124.065 298.564 123.505 298.704 123.02 298.994C122.534 299.284 122.145 299.71 121.9 300.22L107.76 332.63H78.27C78.27 334.01 79.82 335.12 81.72 335.11H140.61C141.17 335.109 141.724 334.997 142.24 334.78C142.602 334.675 142.937 334.493 143.222 334.246C143.507 333.999 143.735 333.693 143.89 333.35L158.58 299.66C158.619 299.575 158.639 299.483 158.64 299.39C158.608 299.152 158.484 298.936 158.296 298.787C158.108 298.638 157.869 298.567 157.63 298.59Z" fill="white"/>
<path d="M137.78 316.53C137.06 318.14 135.62 319.25 134.54 319.03C133.46 318.81 133.17 317.33 133.87 315.71C134.57 314.09 136.02 313 137.1 313.23C138.18 313.46 138.5 314.87 137.78 316.53Z" fill="white"/>
<g opacity="0.3">
<path d="M121.85 300.22L107.71 332.63H109.24L124.58 298.63C124.02 298.6 123.463 298.735 122.978 299.017C122.493 299.3 122.101 299.718 121.85 300.22Z" fill="black"/>
</g>
<path d="M123.55 370L144.83 373.42L148.24 364.65L125.88 357.67L123.55 370Z" fill="#B97964"/>
<path d="M154.29 377.85L157.16 371.91C156.923 371.565 156.777 371.167 156.735 370.751C156.694 370.335 156.757 369.915 156.92 369.53C157.24 368.81 159.03 367.63 159.03 367.63L167.03 351.35C166.495 351.077 165.927 350.872 165.34 350.74C164.715 350.669 164.085 350.669 163.46 350.74C161.51 351.01 159.97 352.53 158.87 353.74C157.03 355.74 150.67 360.55 150.67 360.55C149.26 361.318 147.664 361.682 146.06 361.6C145.461 361.538 144.856 361.613 144.291 361.821C143.725 362.029 143.216 362.364 142.8 362.8C142.599 363.068 142.46 363.378 142.392 363.706C142.323 364.034 142.328 364.373 142.405 364.699C142.483 365.026 142.631 365.331 142.839 365.594C143.047 365.856 143.31 366.07 143.61 366.22L145.06 367.22C145.235 367.955 145.126 368.729 144.755 369.387C144.384 370.045 143.779 370.539 143.06 370.77C143.06 370.77 139.76 372.95 141.39 373.52C142.31 373.86 146.51 375.18 149.79 376.32L151.92 377.06L154.29 377.85Z" fill="#263238"/>
<path d="M154 357.83C153.948 357.85 153.905 357.886 153.876 357.933C153.847 357.98 153.834 358.035 153.84 358.09C153.899 358.607 154.092 359.1 154.4 359.52C154.57 359.75 154.96 359.52 154.79 359.27C154.511 358.904 154.338 358.468 154.29 358.01C154.29 357.976 154.282 357.942 154.265 357.912C154.249 357.882 154.225 357.857 154.195 357.839C154.166 357.821 154.133 357.81 154.099 357.809C154.065 357.807 154.031 357.815 154 357.83Z" fill="#90CAF9"/>
<path d="M152.67 358.75C152.62 358.771 152.579 358.808 152.552 358.855C152.525 358.902 152.513 358.956 152.52 359.01C152.569 359.528 152.759 360.023 153.07 360.44C153.24 360.67 153.63 360.44 153.46 360.19C153.184 359.823 153.014 359.387 152.97 358.93C152.966 358.898 152.955 358.866 152.937 358.839C152.919 358.811 152.896 358.788 152.868 358.771C152.84 358.754 152.809 358.743 152.776 358.739C152.744 358.736 152.711 358.739 152.68 358.75H152.67Z" fill="#90CAF9"/>
<path d="M151.4 359.74C151.35 359.761 151.309 359.798 151.282 359.845C151.255 359.892 151.243 359.946 151.25 360C151.302 360.519 151.496 361.014 151.81 361.43C151.97 361.65 152.36 361.43 152.19 361.18C151.919 360.81 151.75 360.376 151.7 359.92C151.698 359.887 151.688 359.854 151.67 359.826C151.653 359.797 151.63 359.773 151.601 359.756C151.573 359.738 151.541 359.727 151.507 359.725C151.474 359.722 151.441 359.727 151.41 359.74H151.4Z" fill="#90CAF9"/>
<path opacity="0.2" d="M156.92 369.53C157.24 368.81 159.03 367.63 159.03 367.63L167.03 351.35C166.495 351.077 165.927 350.872 165.34 350.74C165.02 350.74 164.72 350.74 164.43 350.74L151.53 376.94L151.89 377.06L154.27 377.89L157.14 371.95C156.9 371.599 156.753 371.192 156.715 370.769C156.676 370.345 156.747 369.919 156.92 369.53Z" fill="white"/>
<path d="M151.69 360.18L151.47 360.1L151.52 359.98L151.47 360.09C150.867 359.88 150.285 359.616 149.73 359.3C149.157 358.977 148.683 358.503 148.36 357.93C148.258 357.786 148.196 357.618 148.18 357.442C148.165 357.267 148.196 357.09 148.27 356.93C148.374 356.784 148.519 356.672 148.685 356.606C148.852 356.541 149.034 356.525 149.21 356.56C149.522 356.603 149.821 356.708 150.091 356.869C150.361 357.031 150.595 357.245 150.78 357.5C151.184 358.256 151.474 359.069 151.64 359.91L151.69 360.18ZM149.07 356.84C148.958 356.831 148.845 356.85 148.742 356.896C148.639 356.941 148.549 357.011 148.48 357.1C148.438 357.218 148.425 357.344 148.442 357.467C148.46 357.591 148.507 357.709 148.58 357.81C148.884 358.344 149.326 358.786 149.86 359.09C150.333 359.362 150.828 359.593 151.34 359.78C151.197 359.048 150.94 358.343 150.58 357.69C150.416 357.462 150.207 357.271 149.966 357.126C149.726 356.982 149.458 356.888 149.18 356.85L149.07 356.84Z" fill="#90CAF9"/>
<path d="M148.62 362.28C148.403 362.277 148.188 362.243 147.98 362.18C147.809 362.132 147.654 362.038 147.531 361.91C147.408 361.782 147.321 361.623 147.28 361.45C147.282 361.281 147.328 361.115 147.412 360.968C147.496 360.821 147.615 360.698 147.76 360.61C148.293 360.227 148.917 359.993 149.57 359.93C150.209 359.875 150.851 359.875 151.49 359.93H151.73L151.58 360.11C151.089 360.829 150.489 361.467 149.8 362C149.435 362.186 149.03 362.282 148.62 362.28ZM150.43 360.14C150.154 360.125 149.876 360.125 149.6 360.14C148.991 360.197 148.408 360.414 147.91 360.77C147.804 360.836 147.715 360.925 147.649 361.031C147.583 361.136 147.542 361.256 147.53 361.38C147.563 361.507 147.629 361.622 147.723 361.714C147.816 361.805 147.933 361.87 148.06 361.9C148.607 362.055 149.193 361.986 149.69 361.71C150.287 361.264 150.81 360.728 151.24 360.12L150.43 360.14Z" fill="#90CAF9"/>
<path d="M43.61 360.3C39.02 352.99 28.61 333.18 49.69 329.3C70.77 325.42 141.05 358.85 141.05 358.85L136.6 372.3L71.15 362C71.15 362 80.15 373.95 69.24 373.41C53.44 371.83 49.65 368.05 43.61 360.3Z" fill="#263238"/>
<path opacity="0.7" d="M72.7 362.35L54.7 356.7C54.7 356.7 69.76 365.91 75.29 367.01L72.7 362.35Z" fill="black"/>
<path d="M6 191.84H42.6C44.1913 191.84 45.7174 192.472 46.8426 193.597C47.9679 194.723 48.6 196.249 48.6 197.84V217.6C48.6 219.191 47.9679 220.717 46.8426 221.843C45.7174 222.968 44.1913 223.6 42.6 223.6H33.84L33.78 229.6L27.19 223.6H6C4.4087 223.6 2.88258 222.968 1.75736 221.843C0.63214 220.717 0 219.191 0 217.6V197.83C0.00264928 196.24 0.63596 194.717 1.76089 193.594C2.88582 192.471 4.41043 191.84 6 191.84Z" fill="#90CAF9"/>
<path d="M19.79 204.59L14 207.28L19.77 209.98V212.15L12.06 208.41V206.16L19.77 202.42L19.79 204.59Z" fill="white"/>
<path d="M37.35 206.16V208.41L29.64 212.15V210L35.41 207.3L29.64 204.61V202.44L37.35 206.16Z" fill="white"/>
<path d="M26.07 200.9L22.31 213.9H24.19L27.95 200.9H26.07Z" fill="white"/>
<path d="M34.15 190.49H15.36C15.2937 190.49 15.2301 190.464 15.1832 190.417C15.1363 190.37 15.11 190.306 15.11 190.24C15.11 190.174 15.1363 190.11 15.1832 190.063C15.2301 190.016 15.2937 189.99 15.36 189.99H34.15C34.2163 189.99 34.2799 190.016 34.3268 190.063C34.3737 190.11 34.4 190.174 34.4 190.24C34.4 190.306 34.3737 190.37 34.3268 190.417C34.2799 190.464 34.2163 190.49 34.15 190.49Z" fill="#90CAF9"/>
<path d="M39.34 190.5H36.34C36.2737 190.5 36.2101 190.474 36.1632 190.427C36.1163 190.38 36.09 190.316 36.09 190.25C36.09 190.184 36.1163 190.12 36.1632 190.073C36.2101 190.026 36.2737 190 36.34 190H39.34C39.4063 190 39.4699 190.026 39.5168 190.073C39.5637 190.12 39.59 190.184 39.59 190.25C39.59 190.316 39.5637 190.38 39.5168 190.427C39.4699 190.474 39.4063 190.5 39.34 190.5Z" fill="#90CAF9"/>
</g>
<defs>
<clipPath id="clip0_1_586">
<rect width="440" height="399" fill="white"/>
</clipPath>
</defs>
</svg>
